<?xml version="1.0" standalone="no"?>
<!DOCTYPE svg PUBLIC "-//W3C//DTD SVG 20010904//EN"
 "http://www.w3.org/TR/2001/REC-SVG-20010904/DTD/svg10.dtd">
<svg version="1.0" xmlns="http://www.w3.org/2000/svg"
 width="1876.000000pt" height="1876.000000pt" viewBox="0 0 1876.000000 1876.000000"
 preserveAspectRatio="xMidYMid meet">
<metadata>
Created by potrace 1.14, written by Peter Selinger 2001-2017
</metadata>
<g transform="translate(0.000000,1876.000000) scale(0.100000,-0.100000)"
fill="#000000" stroke="none">
<path d="M435 13403 c-109 -25 -247 -107 -301 -180 -16 -21 -32 -40 -36 -43
-16 -13 -67 -139 -77 -195 -9 -44 -11 -947 -9 -3475 l3 -3415 29 -65 c62 -138
141 -223 263 -284 106 -53 94 -52 1263 -50 597 0 1094 4 1105 7 121 33 222 90
286 162 50 56 61 73 88 129 29 62 43 110 47 156 1 14 3 27 4 30 1 5 2 1963 1
2001 -1 14 -16 17 -106 18 -58 1 -113 1 -122 1 -10 0 -118 -1 -240 -2 l-222
-1 0 -945 c0 -519 -2 -946 -4 -949 -5 -5 1 -5 -182 -4 -77 1 -223 1 -324 1
-101 1 -187 3 -191 5 -4 3 -7 116 -8 252 0 137 -1 266 -1 288 l-1 40 -192 -1
c-106 -1 -196 -2 -199 -3 -4 -1 -7 -119 -7 -263 0 -145 -1 -276 -1 -291 l-1
-28 -127 0 c-71 0 -135 0 -143 0 -17 -1 -211 0 -280 1 -24 1 -47 4 -50 6 -6 7
-7 6494 0 6495 26 5 1703 2 1706 -3 3 -4 5 -395 5 -868 0 -805 1 -860 17 -861
23 -1 609 -1 647 0 l30 1 -2 922 c-1 508 -4 944 -7 970 -2 25 -9 55 -15 67 -6
11 -11 26 -11 35 0 24 -72 137 -115 182 -44 45 -131 103 -180 121 -16 6 -39
14 -50 18 -11 4 -29 10 -40 13 -25 6 -2222 11 -2250 5z"/>
<path d="M10354 13385 c-69 -21 -131 -59 -166 -100 -18 -21 -71 -121 -74 -140
-1 -5 -5 -30 -10 -55 -4 -25 -8 -475 -8 -1000 l-1 -955 -170 -2 c-94 -1 -191
-2 -218 -2 l-47 -1 2 -222 3 -223 76 -1 c42 0 80 -4 86 -7 6 -4 13 -4 16 -1 7
8 187 11 187 4 0 -4 15 -4 33 -2 l32 4 0 -1646 c0 -1640 0 -1646 20 -1647 91
-4 475 0 483 5 7 4 8 15 3 29 -5 12 -5 31 -1 42 4 11 5 24 2 29 -6 11 -6 115
1 122 3 3 2 18 -3 34 -5 18 -4 32 3 39 8 8 8 11 -1 11 -8 0 -9 7 -2 24 5 13 7
26 5 28 -8 8 -12 74 -5 93 4 11 4 32 0 46 -5 17 -4 31 3 38 8 8 8 11 -1 11 -8
0 -9 7 -2 24 5 13 7 26 4 28 -8 9 -10 74 -3 95 5 13 4 25 -2 28 -5 4 -7 11 -3
16 3 5 5 34 4 64 0 30 -1 62 0 70 0 8 0 21 0 28 1 6 1 41 1 77 -1 36 -1 73 -1
83 0 9 0 40 -1 67 -1 28 1 53 4 56 3 3 2 18 -3 34 -5 18 -4 32 3 39 8 8 8 11
-1 11 -8 0 -9 7 -2 24 5 13 7 26 5 28 -8 8 -12 74 -5 93 4 11 4 32 0 46 -5 17
-4 31 3 38 8 8 8 11 -1 11 -8 0 -9 7 -2 24 5 13 7 26 4 28 -8 9 -10 74 -3 95
5 12 4 25 0 27 -5 3 -5 23 -1 45 4 22 4 45 -1 52 -4 7 -4 22 0 33 4 12 5 32 1
46 -4 14 -2 31 3 38 6 8 6 12 -2 12 -7 0 -8 8 -1 24 5 13 7 26 5 28 -8 8 -12
74 -5 93 4 11 4 32 0 46 -5 17 -4 31 3 38 8 8 8 11 -1 11 -8 0 -9 7 -2 24 5
13 7 26 4 28 -8 9 -10 74 -3 95 5 12 4 25 0 27 -5 3 -5 23 -1 45 4 22 4 45 -1
52 -4 7 -4 22 0 33 4 12 5 32 1 46 -4 14 -2 31 3 38 6 8 6 12 -2 12 -7 0 -8 8
-1 24 5 13 7 26 5 28 -8 8 -12 74 -5 93 4 11 4 32 0 46 -5 17 -4 31 3 38 8 8
8 11 -1 11 -8 0 -9 7 -2 24 5 13 7 26 4 28 -8 9 -10 74 -3 95 5 12 4 25 0 27
-5 3 -5 23 -1 45 4 22 4 45 -1 52 -4 7 -4 22 1 33 4 12 4 30 0 41 -4 11 -3 30
1 43 7 17 6 21 -3 16 -7 -5 -8 -3 -3 6 4 7 8 31 9 53 l1 40 86 0 c47 0 91 -3
96 -6 6 -4 13 -4 16 -1 9 10 117 10 117 1 0 -5 5 -5 12 -1 14 9 103 8 118 -1
5 -3 10 -3 10 2 0 4 39 8 88 8 l87 0 3 30 c1 17 2 44 1 60 0 17 -1 36 0 43 1
18 2 129 1 190 0 9 0 38 0 65 1 33 -3 49 -14 53 -8 3 -151 6 -317 7 l-303 2
-7 32 c-3 18 -2 36 4 42 8 8 8 11 -1 11 -8 0 -9 7 -2 24 5 13 7 26 5 28 -8 8
-12 74 -5 93 4 11 4 32 0 46 -5 17 -4 31 3 38 8 8 8 11 -1 11 -8 0 -9 7 -2 24
5 13 7 26 4 28 -8 9 -10 74 -3 95 5 12 4 25 0 27 -5 3 -5 23 -1 45 4 22 4 45
-1 52 -4 7 -4 22 0 33 4 12 5 32 1 46 -4 14 -2 31 3 38 6 8 6 12 -2 12 -7 0
-8 8 -1 24 5 13 7 26 5 28 -8 8 -12 74 -5 93 4 11 4 32 0 46 -5 17 -4 31 3 38
8 8 8 11 -1 11 -8 0 -9 7 -2 24 5 13 7 26 4 28 -8 9 -10 74 -3 95 5 12 4 25 0
27 -5 3 -5 23 -1 45 4 22 4 45 -1 52 -4 7 -4 22 0 33 4 12 5 32 1 46 -4 14 -2
31 3 38 6 8 6 12 -2 12 -7 0 -8 8 -1 24 5 13 7 26 5 28 -8 8 -12 74 -5 93 4
11 4 32 0 46 -5 17 -4 31 3 38 8 8 8 11 -1 11 -8 0 -9 7 -3 22 4 13 5 34 2 48
-4 14 -6 36 -4 50 2 14 3 42 3 62 0 41 -8 38 95 38 11 0 40 1 65 1 25 0 52 1
60 0 151 -5 495 0 499 7 3 6 6 106 6 224 l-1 213 -449 1 c-439 2 -452 1 -521
-21z"/>
<path d="M14809 13398 c0 -7 -2 -519 -2 -1138 l-2 -1125 -473 -2 c-368 -2
-486 -6 -534 -17 -35 -8 -66 -12 -70 -10 -5 3 -8 0 -8 -5 0 -6 -3 -10 -7 -9
-15 4 -108 -36 -161 -69 -29 -18 -55 -33 -57 -33 -3 0 -19 -12 -36 -27 -167
-147 -246 -287 -286 -508 -8 -44 -8 -2358 1 -2439 3 -38 8 -72 11 -76 2 -3 6
-18 9 -32 6 -36 58 -162 68 -166 4 -2 8 -8 8 -13 0 -22 59 -100 130 -169 52
-53 100 -88 155 -117 44 -23 82 -41 85 -41 3 0 25 -5 50 -12 25 -7 61 -14 80
-16 45 -5 1531 -5 1539 0 3 2 6 1360 6 3018 l0 3013 -253 3 c-198 2 -252 0
-253 -10z m-619 -2719 c0 -3 20 -3 45 1 25 4 45 3 45 -2 0 -5 5 -6 12 -2 14 9
103 8 118 -1 5 -3 10 -3 10 2 0 4 56 8 125 8 69 0 125 -3 125 -6 0 -3 22 -3
49 1 27 3 57 3 67 0 18 -7 19 -49 20 -1414 0 -774 -2 -1409 -5 -1411 -11 -6
-511 -36 -651 -39 -67 -1 -146 6 -206 18 -86 18 -186 97 -223 178 -44 98 -44
93 -45 1213 -2 873 1 1083 12 1140 7 39 14 76 15 83 0 6 4 12 9 12 4 0 7 3 6
8 -4 15 33 71 76 113 59 59 132 86 256 96 36 3 66 6 67 6 5 5 73 1 73 -4z"/>
<path d="M11806 12581 c-2 -9 -3 -153 -2 -321 l1 -305 258 -2 c233 -1 257 1
258 15 3 43 5 608 1 618 -2 8 -80 11 -257 11 -226 0 -255 -1 -259 -16z"/>
<path d="M1039 12390 c-3 -12 -5 -376 -2 -385 3 -8 126 -12 221 -6 15 1 17 15
15 168 -1 93 -2 182 -2 198 l-1 30 -115 0 c-63 0 -116 -2 -116 -5z"/>
<path d="M1447 12392 c-15 -3 -17 -24 -17 -198 0 -148 3 -194 13 -195 6 0 59
-1 117 -2 l105 -1 2 197 2 197 -27 1 c-93 3 -181 4 -195 1z"/>
<path d="M1831 12390 c-4 -3 -7 -92 -6 -197 0 -164 2 -193 15 -194 73 -4 202
-3 212 1 10 4 13 51 13 198 0 164 -2 192 -15 193 -69 4 -213 3 -219 -1z"/>
<path d="M1039 11600 c-1 -3 -2 -92 -3 -197 -1 -166 1 -193 14 -194 8 0 61 -1
118 -2 91 -2 102 0 103 16 1 22 1 342 0 365 -1 15 -13 17 -116 17 -63 0 -116
-2 -116 -5z"/>
<path d="M1440 11602 c-6 -2 -10 -77 -10 -198 l0 -194 23 -1 c25 -1 161 -1
193 0 21 1 21 4 22 191 0 128 -4 192 -11 197 -11 7 -198 11 -217 5z"/>
<path d="M1842 11599 c-15 -5 -17 -27 -17 -197 0 -164 2 -192 15 -193 89 -5
213 0 218 9 4 5 7 95 6 198 l-1 187 -102 1 c-56 1 -109 -2 -119 -5z"/>
<path d="M8578 11154 c-11 -10 -324 -18 -903 -20 -374 -2 -695 -3 -713 -4
l-32 0 2 -1872 3 -1872 248 1 c136 0 250 3 253 6 3 2 5 734 5 1626 0 892 3
1621 7 1622 19 2 458 14 855 24 126 3 232 6 235 7 4 0 12 0 18 -1 8 -1 11
-445 12 -1635 0 -899 2 -1638 5 -1643 3 -4 108 -7 234 -6 298 2 276 0 270 18
-4 8 -2 17 4 20 5 4 7 11 3 16 -5 8 -8 278 -3 304 1 6 1 14 -1 20 -2 12 -2
287 1 300 1 6 1 14 -1 20 -2 12 -2 287 1 300 1 6 1 14 0 19 -1 5 -2 61 -1 125
0 64 0 125 0 136 0 11 0 36 1 55 1 19 1 40 1 45 -1 6 -1 89 -1 185 0 96 -1
184 -1 195 0 11 0 36 1 55 1 19 1 40 1 45 -1 6 -1 89 -1 185 0 187 -1 203 -2
223 0 6 0 30 0 52 1 36 2 187 1 240 0 11 0 36 1 55 1 19 1 40 1 45 -1 6 -1 89
-1 185 0 187 -1 203 -2 223 0 6 0 30 1 52 2 59 -8 348 -13 365 -2 8 -7 29 -12
45 -4 17 -16 42 -26 57 -11 14 -19 29 -19 33 0 4 -19 25 -41 46 -70 66 -165
98 -307 103 -45 2 -83 2 -84 0z"/>
<path d="M4402 11133 c-4 -1 -38 -4 -77 -6 -134 -9 -199 -33 -270 -102 -63
-60 -102 -149 -110 -250 -3 -34 -5 -272 -4 -315 1 -8 1 -116 0 -240 0 -124 0
-232 0 -240 1 -8 1 -116 0 -240 0 -124 0 -232 0 -240 1 -8 1 -116 0 -240 0
-124 0 -232 0 -240 1 -8 1 -116 0 -240 0 -124 0 -232 0 -240 1 -8 0 -116 0
-240 -1 -124 0 -313 2 -420 3 -172 6 -202 26 -251 53 -136 147 -210 298 -235
45 -8 1457 -9 1493 -1 56 11 116 30 128 39 6 6 12 7 12 3 0 -8 93 65 98 78 2
4 9 13 16 20 21 21 53 100 66 162 10 46 13 397 13 1550 0 820 -3 1513 -7 1541
-15 133 -87 249 -181 293 -70 32 -90 38 -170 47 -37 5 -1316 11 -1333 7z m348
-455 c0 -4 6 -5 13 -2 24 9 98 10 103 2 3 -5 10 -5 16 -2 14 9 136 9 144 1 4
-4 11 -4 16 -1 12 8 188 11 188 3 0 -3 20 -3 45 1 25 4 45 3 45 -2 0 -5 5 -6
11 -2 12 7 237 9 244 2 5 -5 8 -248 4 -253 -2 -2 -2 -56 1 -120 3 -64 2 -119
-1 -121 -4 -2 -3 -20 1 -39 4 -19 5 -37 1 -39 -3 -2 -4 -57 -1 -121 3 -64 3
-118 0 -120 -3 -2 -3 -128 0 -280 3 -152 3 -278 0 -280 -3 -2 -3 -56 0 -120 3
-64 3 -118 0 -120 -3 -2 -3 -164 0 -360 3 -196 3 -358 0 -360 -3 -2 -3 -56 0
-120 3 -64 3 -118 1 -120 -2 -2 -2 -63 -2 -134 1 -72 -2 -131 -6 -132 -11 -1
-1095 -1 -1109 0 -8 1 -11 384 -11 1422 l0 1421 23 -5 c13 -2 24 -1 24 2 0 3
56 6 125 6 69 0 125 -3 125 -7z"/>
<path d="M11863 11132 l-51 -3 0 -1869 -1 -1870 22 -1 c56 -3 463 -4 472 -1 7
1 10 85 10 240 -1 131 3 243 8 250 5 6 5 12 1 12 -5 0 -9 94 -9 210 0 133 4
210 10 210 7 0 6 3 0 8 -14 10 -14 944 0 954 7 5 7 8 0 8 -12 0 -14 498 -2
518 5 6 4 12 0 12 -12 0 -10 413 2 422 7 5 7 8 0 8 -7 0 -10 155 -9 445 l0
445 -25 0 c-190 4 -386 4 -428 2z"/>
<path d="M16627 11134 c-1 -1 -38 -4 -82 -7 -229 -14 -352 -123 -381 -337 -10
-73 -10 -544 -1 -557 5 -7 6 -13 1 -13 -11 0 -11 -931 0 -948 4 -6 4 -12 -1
-12 -10 0 -10 -931 1 -948 4 -7 4 -12 -1 -12 -4 0 -7 -116 -6 -257 0 -142 2
-258 3 -258 0 0 3 -25 5 -55 9 -132 79 -241 190 -296 50 -24 63 -28 135 -40
45 -8 1456 -8 1493 0 15 3 39 9 54 12 100 20 222 129 239 212 1 8 6 21 10 30
4 9 10 24 13 32 9 26 12 3105 2 3136 -5 16 -15 50 -22 77 -7 26 -17 47 -21 47
-4 0 -8 6 -8 13 0 8 -19 34 -43 59 -66 71 -146 105 -267 114 -56 5 -1309 12
-1313 8z m179 -458 c8 -3 14 -2 14 2 0 4 41 7 90 7 50 0 90 -4 90 -8 0 -5 5
-5 12 -1 14 9 103 8 118 -1 5 -3 10 -3 10 2 0 9 197 10 206 0 4 -3 11 -4 17 0
13 8 135 8 143 0 4 -4 11 -4 16 -1 12 8 188 11 188 3 0 -3 20 -3 43 1 l44 6 0
-1423 c0 -1014 -3 -1423 -11 -1424 -14 -1 -1087 -1 -1103 0 -10 1 -13 292 -13
1422 0 874 4 1418 9 1414 5 -3 12 -2 14 2 5 9 91 8 113 -1z"/>
<path d="M1090 10812 l-55 -3 0 -194 c0 -107 3 -195 8 -196 4 0 57 -1 117 -2
92 -2 110 1 111 13 3 66 1 371 -3 375 -7 7 -106 11 -178 7z"/>
<path d="M1434 10811 c-2 -2 -4 -91 -4 -198 0 -177 1 -193 18 -194 17 -1 188
-1 208 0 13 1 18 391 6 392 -37 3 -225 3 -228 0z"/>
<path d="M1855 10810 l-30 -5 0 -194 0 -194 118 -1 c110 -1 117 0 118 19 4 82
1 366 -3 371 -8 7 -165 10 -203 4z"/>
<path d="M1039 10020 c-1 -3 -2 -92 -3 -197 l-1 -193 30 -1 c79 -2 196 0 202
4 6 4 9 256 4 372 -1 19 -8 20 -116 20 -63 0 -116 -2 -116 -5z"/>
<path d="M1447 10022 c-15 -3 -17 -24 -17 -198 l0 -194 33 -1 c38 -1 177 -1
193 0 16 1 16 378 0 388 -11 7 -178 11 -209 5z"/>
<path d="M1832 10015 c-4 -5 -7 -94 -7 -197 0 -161 2 -188 15 -189 18 -1 165
-1 200 0 l25 1 -2 187 c-1 104 -2 193 -2 198 -1 6 -45 10 -112 10 -63 0 -114
-4 -117 -10z"/>
<path d="M1039 9230 c-7 -27 -2 -383 5 -387 17 -11 209 -8 220 3 12 11 14 370
2 381 -8 8 -225 11 -227 3z"/>
<path d="M1447 9232 c-15 -3 -17 -24 -17 -197 0 -146 3 -194 13 -197 6 -2 59
-3 117 -3 l105 1 2 199 1 200 -102 0 c-56 0 -110 -1 -119 -3z"/>
<path d="M1843 9230 c-17 -5 -18 -20 -18 -192 0 -102 3 -190 7 -194 9 -9 206
-11 220 -2 13 7 17 377 5 385 -11 7 -191 9 -214 3z"/>
<path d="M1042 8435 c-4 -5 -7 -94 -7 -197 l0 -188 62 -1 c35 0 86 -1 115 -1
39 0 53 3 57 15 8 23 5 366 -3 374 -11 12 -217 9 -224 -2z"/>
<path d="M1434 8441 c-2 -2 -4 -91 -4 -197 l0 -193 115 -3 c96 -2 116 0 119
12 7 25 4 380 -3 381 -21 3 -223 3 -227 0z"/>
<path d="M1831 8440 c-7 -6 -9 -390 -1 -390 8 -1 193 -1 215 -1 19 1 20 8 19
191 0 105 -4 193 -8 197 -8 8 -214 11 -225 3z"/>
<path d="M1039 7650 c-6 -26 -2 -383 4 -387 13 -8 216 -7 224 0 3 4 7 92 7
197 1 162 -1 190 -14 191 -58 4 -220 3 -221 -1z"/>
<path d="M1453 7652 c-22 -3 -22 -6 -25 -194 -2 -140 0 -192 9 -195 6 -3 59
-5 117 -6 87 -2 107 1 110 13 7 24 5 380 -2 381 -22 3 -191 3 -209 1z"/>
<path d="M1837 7650 c-9 -4 -12 -53 -12 -192 0 -102 3 -190 7 -194 6 -6 97 -8
203 -5 l30 1 -1 190 c-1 105 -4 193 -8 197 -8 8 -201 10 -219 3z"/>
<path d="M4215 6493 c-47 -8 -102 -28 -130 -47 -42 -29 -105 -88 -105 -100 0
-5 -6 -17 -14 -25 -33 -39 -54 -137 -52 -243 4 -120 8 -143 42 -212 64 -131
177 -196 330 -192 79 2 164 22 164 38 0 4 7 8 15 8 23 0 110 93 133 143 59
126 63 295 9 422 -24 55 -36 72 -86 121 -35 34 -107 73 -148 80 -35 7 -136 11
-158 7z m167 -107 c96 -46 150 -156 149 -306 0 -36 -3 -76 -6 -90 -3 -14 -8
-36 -11 -50 -3 -14 -9 -26 -15 -28 -5 -2 -9 -9 -9 -15 0 -23 -52 -85 -91 -106
-22 -13 -65 -25 -95 -28 -165 -16 -272 101 -279 304 -6 176 66 303 188 334 46
11 128 4 169 -15z"/>
<path d="M6690 6488 c-114 -21 -184 -88 -196 -192 -11 -86 29 -166 100 -203
26 -13 146 -52 161 -52 43 1 126 -30 152 -57 50 -53 34 -166 -28 -194 -7 -4
-24 -12 -36 -18 -12 -6 -59 -10 -110 -9 -70 2 -101 9 -153 30 -36 15 -69 29
-74 30 -14 3 -14 -92 -1 -103 21 -18 172 -48 239 -48 60 0 126 10 166 24 8 3
17 6 20 6 3 0 22 14 44 31 104 83 101 270 -6 347 -42 31 -113 58 -169 65 -71
9 -167 45 -181 68 -21 32 -21 93 -1 127 26 44 75 64 163 63 41 0 85 -2 98 -6
42 -11 97 -31 108 -39 6 -4 13 -6 16 -3 5 6 1 96 -6 102 -1 2 -29 10 -61 18
-70 19 -183 25 -245 13z"/>
<path d="M11505 6492 c-53 -8 -123 -37 -161 -64 -37 -26 -108 -109 -109 -126
-1 -4 -6 -17 -13 -29 -7 -13 -10 -23 -7 -23 3 0 0 -10 -7 -22 -15 -28 -20
-215 -7 -266 29 -113 82 -186 170 -239 30 -17 70 -35 89 -39 70 -14 186 -10
265 9 31 8 105 52 106 64 6 91 -1 106 -34 76 -70 -62 -220 -89 -320 -56 -103
34 -167 140 -171 283 -6 221 86 341 268 345 79 2 147 -18 214 -65 l42 -30 0
45 c0 25 1 48 2 53 3 12 -58 48 -114 67 -48 16 -166 25 -213 17z"/>
<path d="M14597 6494 c-1 -1 -14 -5 -27 -7 -129 -21 -235 -129 -269 -274 -15
-62 -16 -204 -2 -250 5 -18 8 -33 5 -33 -2 0 9 -26 25 -57 64 -128 165 -194
301 -199 92 -3 159 12 220 51 114 71 169 188 171 355 0 75 -13 148 -36 205
-36 85 -125 167 -210 194 -35 11 -170 22 -178 15z m138 -99 c55 -19 104 -65
135 -126 27 -52 31 -71 34 -181 6 -187 -79 -313 -221 -325 -78 -7 -136 10
-185 55 -36 32 -73 94 -86 142 -2 8 -5 60 -7 114 -3 139 20 207 93 275 62 58
150 75 237 46z"/>
<path d="M17057 6486 c-116 -25 -187 -106 -187 -213 0 -57 20 -117 48 -143 39
-36 136 -75 217 -87 94 -13 172 -63 176 -111 7 -81 -13 -122 -75 -151 -34 -17
-57 -20 -126 -17 -80 3 -112 11 -202 50 l-38 16 0 -54 0 -54 48 -16 c26 -9 65
-19 87 -23 61 -12 231 -8 259 5 15 7 38 18 53 25 41 18 90 76 101 117 21 85 2
178 -47 227 -45 45 -89 64 -216 93 -123 27 -153 42 -170 83 -23 56 -2 115 54
150 52 32 180 30 274 -5 l67 -26 0 53 c0 51 -1 54 -30 60 -16 4 -33 7 -37 7
-5 0 -18 4 -30 9 -39 15 -166 18 -226 5z"/>
<path d="M5278 6482 c-14 -3 -16 -47 -14 -400 l1 -397 45 2 c25 1 47 2 51 2 3
1 5 147 5 326 -1 239 2 321 10 312 6 -7 42 -70 79 -142 71 -135 75 -142 193
-365 l72 -135 70 0 c39 0 71 2 71 5 1 3 2 180 3 394 1 426 5 400 -61 399 -56
-2 -55 -1 -43 -22 6 -13 7 -22 0 -26 -6 -4 -6 -15 0 -30 5 -14 6 -25 2 -25 -4
0 -7 -13 -7 -30 0 -16 2 -30 5 -30 7 0 4 -69 -3 -76 -3 -3 -2 -17 3 -30 5 -13
6 -24 2 -24 -4 0 -7 -25 -7 -55 0 -30 3 -55 7 -55 4 0 3 -13 -2 -30 -5 -17 -5
-30 0 -30 5 0 7 -6 5 -12 -9 -24 -11 -118 -2 -118 4 0 4 -8 -1 -17 -5 -10 -7
-24 -5 -30 8 -23 -7 -14 -17 10 -6 12 -14 30 -20 40 -17 29 -27 49 -83 157
-30 58 -65 123 -77 145 -21 37 -84 155 -133 248 -10 20 -24 37 -31 38 -51 3
-105 4 -118 1z"/>
<path d="M7569 6482 c-12 -2 -15 -29 -10 -84 1 -4 54 -7 119 -7 64 0 127 0
139 0 19 -1 22 -6 20 -44 0 -23 2 -48 6 -55 5 -6 5 -17 1 -24 -10 -16 -11 -58
-2 -64 5 -3 5 -13 0 -22 -9 -21 -8 -155 2 -171 4 -6 4 -11 -1 -11 -4 0 -8 -25
-8 -55 0 -30 3 -55 7 -55 4 0 4 -10 -1 -22 -4 -13 -5 -35 -1 -49 4 -15 5 -31
1 -38 -8 -12 -5 -80 4 -89 4 -5 41 -6 88 -3 12 1 14 64 14 346 0 190 2 348 5
350 3 3 66 7 139 8 l134 2 3 43 c2 23 0 42 -5 43 -23 2 -642 4 -654 1z"/>
<path d="M8798 6482 c-14 -3 -15 -49 -15 -397 0 -284 3 -395 11 -396 6 -1 29
-1 51 -2 l40 -1 5 170 5 169 80 -3 c44 -1 89 -5 100 -8 40 -13 87 -76 147
-199 39 -79 67 -125 77 -126 51 -3 101 -4 101 -1 0 1 -4 10 -9 20 -5 9 -33 64
-62 122 -60 120 -98 180 -134 208 -28 22 -32 32 -11 32 24 0 76 50 93 89 15
36 20 121 10 174 -14 68 -94 131 -182 142 -53 7 -281 12 -307 7z m314 -106
c61 -26 86 -114 54 -191 -24 -56 -55 -69 -173 -73 l-103 -3 0 139 c0 76 2 141
4 143 11 11 185 -2 218 -15z"/>
<path d="M9982 6471 c-10 -20 -8 -522 2 -576 19 -96 90 -186 160 -201 17 -3
36 -10 41 -14 14 -12 162 -10 199 2 106 34 152 79 187 183 18 54 21 605 3 612
-6 2 -25 5 -40 5 -64 1 -59 22 -58 -264 2 -294 -5 -350 -48 -402 -44 -53 -139
-71 -230 -44 -35 10 -88 58 -89 80 -1 4 -6 27 -13 50 -8 29 -12 128 -12 311 1
231 -1 267 -14 268 -8 0 -30 2 -48 3 -23 3 -35 -1 -40 -13z"/>
<path d="M12342 6476 c-7 -13 -10 -57 -4 -74 3 -9 24 -13 71 -12 36 1 99 1
139 1 l72 -1 -2 -350 c-2 -228 0 -350 7 -351 110 -12 102 -41 102 351 0 187 3
343 6 347 3 3 67 5 142 4 l135 -1 0 45 c0 40 -3 45 -22 46 -156 6 -641 2 -646
-5z"/>
<path d="M13585 6479 c-16 -4 -26 -7 -21 -8 5 0 3 -7 -3 -15 -7 -9 -8 -17 -3
-20 6 -3 7 -20 2 -40 -4 -19 -4 -39 -1 -45 4 -5 6 -30 5 -53 -4 -68 -4 -99 -3
-153 1 -27 1 -63 0 -80 -1 -16 -1 -52 0 -80 1 -27 1 -63 0 -80 -1 -16 0 -64 0
-106 1 -42 -1 -80 -4 -86 -7 -11 29 -30 51 -27 6 1 23 2 37 3 l25 1 0 395 c0
217 -3 395 -7 396 -39 4 -52 4 -78 -2z"/>
<path d="M15639 6475 c-1 -5 -2 -17 -3 -25 -1 -8 2 -25 6 -36 4 -12 4 -25 1
-28 -6 -6 -8 -277 -3 -301 1 -5 1 -14 0 -20 -5 -25 -3 -366 2 -371 7 -7 78
-12 93 -7 6 2 10 118 9 323 0 176 2 320 6 320 3 0 21 -30 40 -67 19 -38 42
-80 53 -95 10 -16 15 -28 12 -28 -3 0 2 -12 13 -27 10 -16 38 -66 62 -113 52
-102 79 -151 92 -167 6 -7 7 -13 4 -13 -4 0 1 -12 12 -27 10 -16 26 -45 36
-65 13 -30 23 -38 44 -39 110 -5 122 -4 123 11 0 20 0 650 0 725 l-1 60 -46
-2 c-25 -1 -49 -5 -52 -8 -4 -3 -6 -149 -6 -325 0 -175 -4 -317 -7 -314 -4 2
-18 25 -31 52 -23 44 -80 153 -205 387 -29 55 -65 124 -79 153 -23 46 -30 52
-58 53 -17 0 -50 1 -74 2 -23 1 -43 -2 -43 -8z"/>
</g>
</svg>
