<svg xmlns="http://www.w3.org/2000/svg" viewBox="0 0 287.01 188.47"><defs><style>.cls-1{fill:#fff;}</style></defs><title>ANERHLM</title><g id="Layer_2" data-name="Layer 2"><g id="Capa_1" data-name="Capa 1"><polygon class="cls-1" points="158.2 65.25 153.08 3.19 143.51 3.19 133.94 3.19 128.82 65.25 158.2 65.25"/><path class="cls-1" d="M161.66,68.44h-36.3L131,0h25Zm-29.37-6.39h22.44L150.14,6.38H136.87Z"/><path class="cls-1" d="M274.25,170.16H12.77V167a150.5,150.5,0,0,1,8.34-49.74C33.44,81.84,58.83,52.93,90.9,37.67l3.2-17.89L95.35,19c.6-.35,15-8.73,37.61-10.76l3.78-.34-4.45,54.12h22.44L150.29,8l3.83.4a118.25,118.25,0,0,1,37.25,10.44l1.56.72,2.79,18.06a125.33,125.33,0,0,1,26.44,16.49c32.62,26.57,52.09,68.74,52.09,112.82ZM19.18,163.77H267.83c-.91-41-19.34-79.94-49.7-104.67a119.08,119.08,0,0,0-26.6-16.33L190,42.06,187.14,24a112.55,112.55,0,0,0-29.85-8.7l4.37,53.17h-36.3L129.75,15a92.9,92.9,0,0,0-29.9,8.81L96.6,42.06l-1.51.7C63.86,57.1,39.1,85,27.14,119.33A143.94,143.94,0,0,0,19.18,163.77Z"/><rect class="cls-1" x="191.72" y="21.4" width="6.38" height="63.74" transform="translate(-5.86 30.47) rotate(-8.81)"/><rect class="cls-1" x="59.36" y="50.08" width="63.99" height="6.38" transform="translate(22.86 133.84) rotate(-79.88)"/><path class="cls-1" d="M113.57,151.44H30.79l-.17-3c-1-18.06,11.79-40.81,12.33-41.77l5.55,3.16c-.11.21-11,19.5-11.54,35.24h76.61Z"/><path class="cls-1" d="M287,188.47H0l0-3.18c-.13-20.72,14.44-21.51,14.58-21.51h258c.15,0,14.53.79,14.4,21.51ZM6.51,182.08h274c-1-11.1-7.57-11.88-8.11-11.92H14.79C13.91,170.23,7.49,171.14,6.51,182.08Z"/></g></g></svg>