<svg xmlns="http://www.w3.org/2000/svg" xmlns:xlink="http://www.w3.org/1999/xlink" viewBox="0 0 912.97 889.35"><defs><style>.cls-1{mask:url(#mask);filter:url(#luminosity-noclip-10);}.cls-10,.cls-102,.cls-103,.cls-12,.cls-14,.cls-16,.cls-18,.cls-2,.cls-26,.cls-30,.cls-4,.cls-40,.cls-45,.cls-59,.cls-6,.cls-77,.cls-78,.cls-8,.cls-89,.cls-98{mix-blend-mode:multiply;}.cls-2{fill:url(#linear-gradient);}.cls-3{mask:url(#mask-2);filter:url(#luminosity-noclip-15);}.cls-4{fill:url(#linear-gradient-2);}.cls-5{mask:url(#mask-3);filter:url(#luminosity-noclip-16);}.cls-6{fill:url(#linear-gradient-3);}.cls-7{mask:url(#mask-4);filter:url(#luminosity-noclip-17);}.cls-8{fill:url(#linear-gradient-4);}.cls-9{mask:url(#mask-5);filter:url(#luminosity-noclip-18);}.cls-10{fill:url(#linear-gradient-5);}.cls-11{mask:url(#mask-6);filter:url(#luminosity-noclip-11);}.cls-12{fill:url(#linear-gradient-6);}.cls-13{mask:url(#mask-7);filter:url(#luminosity-noclip-12);}.cls-14{fill:url(#linear-gradient-7);}.cls-15{mask:url(#mask-8);filter:url(#luminosity-noclip-13);}.cls-16{fill:url(#linear-gradient-8);}.cls-17{mask:url(#mask-9);filter:url(#luminosity-noclip-14);}.cls-18{fill:url(#linear-gradient-9);}.cls-19{fill:none;}.cls-20{isolation:isolate;}.cls-21{fill:#15894f;}.cls-22{clip-path:url(#clip-path);}.cls-23{fill:#006837;}.cls-24{fill:#667f7d;}.cls-25{fill:#efb237;}.cls-103,.cls-26,.cls-30,.cls-59{fill:#614e68;}.cls-26,.cls-51,.cls-85{opacity:0.6;}.cls-27{fill:#605147;}.cls-28{fill:#3f362c;}.cls-29{fill:#7b9b98;}.cls-102,.cls-30,.cls-99{opacity:0.3;}.cls-31{fill:#d59c24;}.cls-32,.cls-34{fill:#fff7db;}.cls-32{opacity:0.7;}.cls-101,.cls-124,.cls-32,.cls-34,.cls-42,.cls-51,.cls-58,.cls-66,.cls-71,.cls-75,.cls-83,.cls-85,.cls-90,.cls-93,.cls-97,.cls-99{mix-blend-mode:overlay;}.cls-33{fill:#415957;}.cls-103,.cls-115,.cls-34,.cls-58,.cls-89{opacity:0.4;}.cls-35{fill:#c49c37;}.cls-36{fill:#634228;}.cls-37{fill:url(#linear-gradient-10);}.cls-38{fill:#ffc61b;}.cls-39{fill:#c65c2e;}.cls-40,.cls-45,.cls-59,.cls-78,.cls-79,.cls-90{opacity:0.5;}.cls-41{mask:url(#mask-10);}.cls-42{fill:url(#linear-gradient-11);}.cls-43{fill:#9b7623;}.cls-44{fill:#42392b;}.cls-45{fill:#3d3028;}.cls-46{fill:#604f35;}.cls-47{fill:url(#linear-gradient-12);}.cls-48{fill:#f9d12b;}.cls-49{fill:#f4c78c;}.cls-50{fill:#ea7a2f;}.cls-51,.cls-58{fill:#fffac6;}.cls-52{fill:#a06b47;}.cls-53{fill:url(#linear-gradient-13);}.cls-54{fill:url(#linear-gradient-14);}.cls-55{fill:url(#linear-gradient-15);}.cls-56{fill:#89cec8;}.cls-57{fill:url(#linear-gradient-16);}.cls-60{fill:url(#linear-gradient-17);}.cls-61{fill:url(#linear-gradient-18);}.cls-62{fill:#a35b2b;}.cls-63{fill:url(#linear-gradient-19);}.cls-64{fill:url(#linear-gradient-20);}.cls-65{mask:url(#mask-11);}.cls-66{fill:url(#linear-gradient-21);}.cls-67{fill:#526866;}.cls-68{fill:url(#linear-gradient-22);}.cls-69{fill:#bfbf84;}.cls-70{mask:url(#mask-12);}.cls-71{fill:url(#linear-gradient-23);}.cls-72{fill:#8d8e75;}.cls-73{fill:#afaf91;}.cls-74{mask:url(#mask-13);}.cls-75{fill:url(#linear-gradient-24);}.cls-76{fill:url(#linear-gradient-25);}.cls-77{opacity:0.8;}.cls-78{fill:#001525;}.cls-80{fill:#966c33;}.cls-81{fill:url(#linear-gradient-26);}.cls-82{mask:url(#mask-14);}.cls-83{fill:url(#linear-gradient-27);}.cls-84{fill:#5b4f33;}.cls-85{fill:#d7eed8;}.cls-86{fill:#3a3022;}.cls-87{fill:url(#linear-gradient-28);}.cls-88{fill:#aa8022;}.cls-102,.cls-89,.cls-91{fill:#514735;}.cls-90{fill:#ffebbe;}.cls-92{mask:url(#mask-15);}.cls-93{fill:url(#linear-gradient-29);}.cls-94,.cls-98{fill:#8fb7b3;}.cls-95{fill:#705e42;}.cls-96{mask:url(#mask-16);}.cls-97{fill:url(#linear-gradient-30);}.cls-99{fill:#ffd9a5;}.cls-100{mask:url(#mask-17);}.cls-101{fill:url(#linear-gradient-31);}.cls-104{fill:#4f2e26;}.cls-105{fill:#493a26;}.cls-106{fill:#2d4951;}.cls-107{fill:url(#linear-gradient-32);}.cls-108{fill:#375860;}.cls-109{fill:#a5722f;}.cls-110{fill:#db9261;}.cls-111{fill:#457582;}.cls-112{fill:#f7ac74;}.cls-113,.cls-115{fill:#754e34;}.cls-114{fill:#513420;}.cls-116{fill:#564438;}.cls-117{fill:#d67254;}.cls-118{fill:#5a93a0;}.cls-119{fill:#633f1a;}.cls-120{fill:#3d250f;}.cls-121{fill:#756151;}.cls-122{fill:#c4972a;}.cls-123{mask:url(#mask-18);}.cls-124{fill:url(#linear-gradient-33);}.cls-125{filter:url(#luminosity-noclip-9);}.cls-126{filter:url(#luminosity-noclip-8);}.cls-127{filter:url(#luminosity-noclip-7);}.cls-128{filter:url(#luminosity-noclip-6);}.cls-129{filter:url(#luminosity-noclip-5);}.cls-130{filter:url(#luminosity-noclip-4);}.cls-131{filter:url(#luminosity-noclip-3);}.cls-132{filter:url(#luminosity-noclip-2);}.cls-133{filter:url(#luminosity-noclip);}</style><filter id="luminosity-noclip" x="147.34" y="-10533.65" width="60.23" height="32766" filterUnits="userSpaceOnUse" color-interpolation-filters="sRGB"><feFlood flood-color="#fff" result="bg"/><feBlend in="SourceGraphic" in2="bg"/></filter><mask id="mask" x="147.34" y="-10533.65" width="60.23" height="32766" maskUnits="userSpaceOnUse"><g class="cls-133"/></mask><linearGradient id="linear-gradient" x1="143.09" y1="546.66" x2="211" y2="546.66" gradientUnits="userSpaceOnUse"><stop offset="0.01" stop-color="#fff"/><stop offset="0.99"/></linearGradient><filter id="luminosity-noclip-2" x="71.22" y="-10533.65" width="105.53" height="32766" filterUnits="userSpaceOnUse" color-interpolation-filters="sRGB"><feFlood flood-color="#fff" result="bg"/><feBlend in="SourceGraphic" in2="bg"/></filter><mask id="mask-2" x="71.22" y="-10533.65" width="105.53" height="32766" maskUnits="userSpaceOnUse"><g class="cls-132"/></mask><linearGradient id="linear-gradient-2" x1="177.17" y1="940.03" x2="-44.52" y2="844.46" gradientTransform="matrix(1, 0.04, -0.04, 1, 113.19, -70.77)" xlink:href="#linear-gradient"/><filter id="luminosity-noclip-3" x="71.75" y="-10533.65" width="33.41" height="32766" filterUnits="userSpaceOnUse" color-interpolation-filters="sRGB"><feFlood flood-color="#fff" result="bg"/><feBlend in="SourceGraphic" in2="bg"/></filter><mask id="mask-3" x="71.75" y="-10533.65" width="33.41" height="32766" maskUnits="userSpaceOnUse"><g class="cls-131"/></mask><linearGradient id="linear-gradient-3" x1="-24.1" y1="841.07" x2="66.15" y2="841.07" gradientTransform="matrix(1, 0.04, -0.04, 1, 113.19, -70.77)" xlink:href="#linear-gradient"/><filter id="luminosity-noclip-4" x="73.01" y="-10533.65" width="103.74" height="32766" filterUnits="userSpaceOnUse" color-interpolation-filters="sRGB"><feFlood flood-color="#fff" result="bg"/><feBlend in="SourceGraphic" in2="bg"/></filter><mask id="mask-4" x="73.01" y="-10533.65" width="103.74" height="32766" maskUnits="userSpaceOnUse"><g class="cls-130"/></mask><linearGradient id="linear-gradient-4" x1="32.78" y1="864.81" x2="-15.19" y2="839.89" gradientTransform="matrix(1, 0.04, -0.04, 1, 113.19, -70.77)" xlink:href="#linear-gradient"/><filter id="luminosity-noclip-5" x="782.21" y="-10533.65" width="95.97" height="32766" filterUnits="userSpaceOnUse" color-interpolation-filters="sRGB"><feFlood flood-color="#fff" result="bg"/><feBlend in="SourceGraphic" in2="bg"/></filter><mask id="mask-5" x="782.21" y="-10533.65" width="95.97" height="32766" maskUnits="userSpaceOnUse"><g class="cls-129"/></mask><linearGradient id="linear-gradient-5" x1="990.23" y1="1066" x2="1113.8" y2="1066" gradientTransform="translate(-456.62 -416.7) rotate(-1.47) scale(1.18)" xlink:href="#linear-gradient"/><filter id="luminosity-noclip-6" x="175.2" y="-10533.65" width="71.59" height="32766" filterUnits="userSpaceOnUse" color-interpolation-filters="sRGB"><feFlood flood-color="#fff" result="bg"/><feBlend in="SourceGraphic" in2="bg"/></filter><mask id="mask-6" x="175.2" y="-10533.65" width="71.59" height="32766" maskUnits="userSpaceOnUse"><g class="cls-128"/></mask><linearGradient id="linear-gradient-6" x1="-6.93" y1="547.72" x2="116.64" y2="547.72" gradientTransform="translate(138.16 330.36) rotate(-1.47) scale(0.88)" xlink:href="#linear-gradient"/><filter id="luminosity-noclip-7" x="145.99" y="-10533.65" width="129.08" height="32766" filterUnits="userSpaceOnUse" color-interpolation-filters="sRGB"><feFlood flood-color="#fff" result="bg"/><feBlend in="SourceGraphic" in2="bg"/></filter><mask id="mask-7" x="145.99" y="-10533.65" width="129.08" height="32766" maskUnits="userSpaceOnUse"><g class="cls-127"/></mask><linearGradient id="linear-gradient-7" x1="89.02" y1="585.81" x2="304.26" y2="736.74" gradientUnits="userSpaceOnUse"><stop offset="0.01" stop-color="#fff"/><stop offset="0.72" stop-color="#757575"/><stop offset="0.99"/></linearGradient><filter id="luminosity-noclip-8" x="516.98" y="-10533.65" width="84.9" height="32766" filterUnits="userSpaceOnUse" color-interpolation-filters="sRGB"><feFlood flood-color="#fff" result="bg"/><feBlend in="SourceGraphic" in2="bg"/></filter><mask id="mask-8" x="516.98" y="-10533.65" width="84.9" height="32766" maskUnits="userSpaceOnUse"><g class="cls-126"/></mask><linearGradient id="linear-gradient-8" x1="435.71" y1="488.28" x2="611.5" y2="626.34" xlink:href="#linear-gradient-7"/><filter id="luminosity-noclip-9" x="126.79" y="-10533.65" width="111.03" height="32766" filterUnits="userSpaceOnUse" color-interpolation-filters="sRGB"><feFlood flood-color="#fff" result="bg"/><feBlend in="SourceGraphic" in2="bg"/></filter><mask id="mask-9" x="126.79" y="-10533.65" width="111.03" height="32766" maskUnits="userSpaceOnUse"><g class="cls-125"/></mask><linearGradient id="linear-gradient-9" x1="48.59" y1="830" x2="213.32" y2="785.75" gradientTransform="matrix(1, 0.04, -0.04, 1, 113.19, -70.77)" xlink:href="#linear-gradient"/><clipPath id="clip-path"><path class="cls-19" d="M726.74,847.44A395,395,0,0,0,826.93,584c0-219-177.54-396.54-396.54-396.54S33.86,365,33.86,584A395,395,0,0,0,134,847.44Z"/></clipPath><linearGradient id="linear-gradient-10" x1="170.88" y1="546.18" x2="172.66" y2="546.18" gradientUnits="userSpaceOnUse"><stop offset="0" stop-color="#eac324"/><stop offset="0.99" stop-color="#cb8924"/></linearGradient><filter id="luminosity-noclip-10" x="147.34" y="541.47" width="60.23" height="10.39" filterUnits="userSpaceOnUse" color-interpolation-filters="sRGB"><feFlood flood-color="#fff" result="bg"/><feBlend in="SourceGraphic" in2="bg"/></filter><mask id="mask-10" x="147.34" y="541.47" width="60.23" height="10.39" maskUnits="userSpaceOnUse"><g class="cls-1"><path class="cls-2" d="M207.51,545.61a3.49,3.49,0,0,0-3.58-4.14l-52.81,2.3a3.94,3.94,0,0,0-3.74,4.46l.49,3.63,59.44-5.2Z"/></g></mask><linearGradient id="linear-gradient-11" x1="143.09" y1="546.66" x2="211" y2="546.66" gradientUnits="userSpaceOnUse"><stop offset="0.01" stop-color="#fff2c8"/><stop offset="0.99" stop-color="#ffae67"/></linearGradient><linearGradient id="linear-gradient-12" x1="299.52" y1="477.8" x2="332.31" y2="477.8" gradientTransform="translate(183.23) scale(0.92 1)" xlink:href="#linear-gradient-10"/><linearGradient id="linear-gradient-13" x1="3360.34" y1="850.6" x2="3371.21" y2="850.6" gradientTransform="matrix(-1.06, -0.41, -0.31, 0.8, 4111.75, 1169.18)" xlink:href="#linear-gradient-10"/><linearGradient id="linear-gradient-14" x1="2933.46" y1="447.98" x2="2941.37" y2="493.88" gradientTransform="matrix(-1, 0.01, 0.01, 1, 3223.16, -16.63)" xlink:href="#linear-gradient-10"/><linearGradient id="linear-gradient-15" x1="2942.89" y1="705.71" x2="2953.76" y2="705.71" gradientTransform="matrix(-1.23, -0.2, -0.16, 0.99, 4017.94, 354.38)" xlink:href="#linear-gradient-10"/><linearGradient id="linear-gradient-16" x1="246.44" y1="694.01" x2="491.69" y2="505.35" gradientUnits="userSpaceOnUse"><stop offset="0.02" stop-color="#4f7770"/><stop offset="0.89" stop-color="#3f362c"/></linearGradient><linearGradient id="linear-gradient-17" x1="87.68" y1="613.28" x2="603.34" y2="613.28" xlink:href="#linear-gradient-16"/><linearGradient id="linear-gradient-18" x1="2962.8" y1="632.44" x2="2969.92" y2="658.3" gradientTransform="matrix(-1, 0, 0, 1, 3388.85, 0)" xlink:href="#linear-gradient-10"/><linearGradient id="linear-gradient-19" x1="147.13" y1="690.86" x2="662.8" y2="690.86" xlink:href="#linear-gradient-16"/><linearGradient id="linear-gradient-20" x1="117.41" y1="755.15" x2="633.07" y2="755.15" gradientUnits="userSpaceOnUse"><stop offset="0.02" stop-color="#4f7770"/><stop offset="0.54" stop-color="#44483f"/><stop offset="0.89" stop-color="#3f362c"/></linearGradient><filter id="luminosity-noclip-11" x="175.2" y="780.71" width="71.59" height="58.31" filterUnits="userSpaceOnUse" color-interpolation-filters="sRGB"><feFlood flood-color="#fff" result="bg"/><feBlend in="SourceGraphic" in2="bg"/></filter><mask id="mask-11" x="175.2" y="780.71" width="71.59" height="58.31" maskUnits="userSpaceOnUse"><g class="cls-11"><path class="cls-12" d="M243.22,802a77.72,77.72,0,0,0,3.57-7.88c-9.37-8.11-20.36-13.66-31.37-13.38-27.36.71-39.78,35.06-40.22,56.23C199.24,844.69,228.43,830.24,243.22,802Z"/></g></mask><linearGradient id="linear-gradient-21" x1="-6.93" y1="547.72" x2="116.64" y2="547.72" gradientTransform="translate(138.16 330.36) rotate(-1.47) scale(0.88)" xlink:href="#linear-gradient-11"/><linearGradient id="linear-gradient-22" x1="743.11" y1="334.11" x2="880.25" y2="246.6" gradientUnits="userSpaceOnUse"><stop offset="0" stop-color="#c1552f"/><stop offset="1" stop-color="#ccb637"/></linearGradient><filter id="luminosity-noclip-12" x="145.99" y="592.73" width="129.08" height="157.46" filterUnits="userSpaceOnUse" color-interpolation-filters="sRGB"><feFlood flood-color="#fff" result="bg"/><feBlend in="SourceGraphic" in2="bg"/></filter><mask id="mask-12" x="145.99" y="592.73" width="129.08" height="157.46" maskUnits="userSpaceOnUse"><g class="cls-13"><path class="cls-14" d="M188.44,741.14c5.14,3.86,34.94,8.37,56.17-3.86,19.88-8.52,21.89-21,26.58-43.73,4.23-24.57,4.55-61.25,3.11-100.82-13.11,6.21-30.83,16.64-39.41,2.48-15.47,12.33-32.59,29.16-46.31,17.16-10.09,19.26-33.87,26.58-42.59,16,5.95,47.15,6.27,78.8,2.07,121.79C162,738.71,180.72,745.36,188.44,741.14Z"/></g></mask><linearGradient id="linear-gradient-23" x1="89.02" y1="585.81" x2="304.26" y2="736.74" gradientUnits="userSpaceOnUse"><stop offset="0.01" stop-color="#fff2c8"/><stop offset="0.72" stop-color="#ffcd94"/><stop offset="0.99" stop-color="#ffae67"/></linearGradient><filter id="luminosity-noclip-13" x="516.98" y="527.13" width="84.9" height="116.63" filterUnits="userSpaceOnUse" color-interpolation-filters="sRGB"><feFlood flood-color="#fff" result="bg"/><feBlend in="SourceGraphic" in2="bg"/></filter><mask id="mask-13" x="516.98" y="527.13" width="84.9" height="116.63" maskUnits="userSpaceOnUse"><g class="cls-15"><polygon class="cls-16" points="517.83 555.43 601.87 527.13 599.3 630.89 516.98 643.75 517.83 555.43"/></g></mask><linearGradient id="linear-gradient-24" x1="435.71" y1="488.28" x2="611.5" y2="626.34" xlink:href="#linear-gradient-23"/><linearGradient id="linear-gradient-25" x1="492.04" y1="685.83" x2="637.82" y2="630.95" gradientUnits="userSpaceOnUse"><stop offset="0.02" stop-color="#4f7770"/><stop offset="1" stop-color="#605147"/></linearGradient><linearGradient id="linear-gradient-26" x1="28.47" y1="905.27" x2="136.56" y2="905.27" gradientTransform="matrix(1, 0.04, -0.04, 1, 113.19, -70.77)" gradientUnits="userSpaceOnUse"><stop offset="0.02" stop-color="#8e7d5a"/><stop offset="0.99" stop-color="#5b4f33"/></linearGradient><filter id="luminosity-noclip-14" x="126.79" y="711.93" width="111.03" height="64.46" filterUnits="userSpaceOnUse" color-interpolation-filters="sRGB"><feFlood flood-color="#fff" result="bg"/><feBlend in="SourceGraphic" in2="bg"/></filter><mask id="mask-14" x="126.79" y="711.93" width="111.03" height="64.46" maskUnits="userSpaceOnUse"><g class="cls-17"><polygon class="cls-18" points="237.81 716.23 234.94 711.93 159.09 771.17 158.26 768.63 150.42 766.53 147.37 759.7 152.03 756.48 126.78 758.74 162.63 776.38 237.81 716.23"/></g></mask><linearGradient id="linear-gradient-27" x1="48.59" y1="830" x2="213.32" y2="785.75" gradientTransform="matrix(1, 0.04, -0.04, 1, 113.19, -70.77)" xlink:href="#linear-gradient-11"/><linearGradient id="linear-gradient-28" x1="40.36" y1="900.9" x2="45.99" y2="948.98" xlink:href="#linear-gradient-26"/><filter id="luminosity-noclip-15" x="71.22" y="801.96" width="105.53" height="31.57" filterUnits="userSpaceOnUse" color-interpolation-filters="sRGB"><feFlood flood-color="#fff" result="bg"/><feBlend in="SourceGraphic" in2="bg"/></filter><mask id="mask-15" x="71.22" y="801.96" width="105.53" height="31.57" maskUnits="userSpaceOnUse"><g class="cls-3"><polygon class="cls-4" points="176.75 801.96 74.63 804.83 71.22 807.09 78.3 833.53 156.17 829.9 157.52 829.43 157.81 809.3 176.75 801.96"/></g></mask><linearGradient id="linear-gradient-29" x1="177.17" y1="940.03" x2="-44.52" y2="844.46" gradientTransform="matrix(1, 0.04, -0.04, 1, 113.19, -70.77)" xlink:href="#linear-gradient-11"/><filter id="luminosity-noclip-16" x="71.75" y="735.75" width="33.41" height="68.95" filterUnits="userSpaceOnUse" color-interpolation-filters="sRGB"><feFlood flood-color="#fff" result="bg"/><feBlend in="SourceGraphic" in2="bg"/></filter><mask id="mask-16" x="71.75" y="735.75" width="33.41" height="68.95" maskUnits="userSpaceOnUse"><g class="cls-5"><path class="cls-6" d="M105.16,735.75c-16.83,2-34.24,11.94-33.38,21.25l8.43,47.71L95.85,741Z"/></g></mask><linearGradient id="linear-gradient-30" x1="-24.1" y1="841.07" x2="66.15" y2="841.07" gradientTransform="matrix(1, 0.04, -0.04, 1, 113.19, -70.77)" xlink:href="#linear-gradient-11"/><filter id="luminosity-noclip-17" x="73.01" y="801.96" width="103.74" height="7.34" filterUnits="userSpaceOnUse" color-interpolation-filters="sRGB"><feFlood flood-color="#fff" result="bg"/><feBlend in="SourceGraphic" in2="bg"/></filter><mask id="mask-17" x="73.01" y="801.96" width="103.74" height="7.34" maskUnits="userSpaceOnUse"><g class="cls-7"><polygon class="cls-8" points="157.81 809.3 176.75 801.96 73.01 807.74 157.81 809.3"/></g></mask><linearGradient id="linear-gradient-31" x1="32.78" y1="864.81" x2="-15.19" y2="839.89" gradientTransform="matrix(1, 0.04, -0.04, 1, 113.19, -70.77)" xlink:href="#linear-gradient-11"/><linearGradient id="linear-gradient-32" x1="475.62" y1="789.07" x2="461.56" y2="868.7" xlink:href="#linear-gradient-10"/><filter id="luminosity-noclip-18" x="782.21" y="766.68" width="95.97" height="78.17" filterUnits="userSpaceOnUse" color-interpolation-filters="sRGB"><feFlood flood-color="#fff" result="bg"/><feBlend in="SourceGraphic" in2="bg"/></filter><mask id="mask-18" x="782.21" y="766.68" width="95.97" height="78.17" maskUnits="userSpaceOnUse"><g class="cls-9"><path class="cls-10" d="M873.39,795.19a104.4,104.4,0,0,0,4.79-10.56c-12.57-10.87-27.3-18.32-42.06-17.94-36.67.95-53.32,47-53.91,75.38C814.43,852.45,853.57,833.07,873.39,795.19Z"/></g></mask><linearGradient id="linear-gradient-33" x1="990.23" y1="1066" x2="1113.8" y2="1066" gradientTransform="translate(-456.62 -416.7) rotate(-1.47) scale(1.18)" xlink:href="#linear-gradient-11"/></defs><title>ANERvect</title><g class="cls-20"><g id="Layer_2" data-name="Layer 2"><g id="Layer_1-2" data-name="Layer 1"><path class="cls-21" d="M726.74,847.44A395,395,0,0,0,826.93,584c0-219-177.54-396.54-396.54-396.54S33.86,365,33.86,584A395,395,0,0,0,134,847.44Z"/><g class="cls-22"><rect class="cls-23" x="98.56" y="651.48" width="99.83" height="208.9"/><rect class="cls-23" x="9.83" y="573.84" width="99.83" height="208.9"/><rect class="cls-23" x="518.2" y="727.27" width="99.83" height="131.25"/><rect class="cls-23" x="606.94" y="679.21" width="99.83" height="188.56"/><rect class="cls-23" x="619.88" y="518.38" width="99.83" height="253.26"/><rect class="cls-23" x="630.97" y="499.89" width="77.64" height="253.26"/><rect class="cls-23" x="642.06" y="478.63" width="55.46" height="253.26"/><polygon class="cls-23" points="812.14 573.84 780.71 557.2 756.68 573.84 756.68 798.45 812.14 798.45 812.14 573.84"/><rect class="cls-23" x="653.15" y="451.83" width="33.28" height="253.26"/><rect class="cls-23" x="17.22" y="555.35" width="85.04" height="208.9"/><rect class="cls-23" x="17.22" y="518.38" width="85.04" height="27.73"/><rect class="cls-23" x="32.01" y="518.93" width="55.46" height="44.19"/><rect class="cls-23" x="70.83" y="485.1" width="5.55" height="110.92"/><rect class="cls-23" x="797.35" y="542.41" width="5.55" height="110.92"/></g><polygon class="cls-24" points="739.4 171.21 561.27 1.63 559.25 5.32 737.35 174.82 739.4 171.21"/><polygon class="cls-24" points="750.27 178.74 746.91 177.97 809.35 355.38 814.3 355.39 750.27 178.74"/><path class="cls-25" d="M910.91,846.47c0-14.67-209.34-10.28-458.95-10.28S0,848.09,0,862.77s202.35,26.58,452,26.58S910.91,861.16,910.91,846.47Z"/><path class="cls-26" d="M877.76,842.55c0-4.06-46.71-7.35-104.34-7.35s-104.33,3.29-104.33,7.35a.64.64,0,0,0,.12.34c-43.58-3.66-126.63-6.13-221.93-6.13-140.51,0-254.41,5.38-254.41,12s113.9,12,254.41,12c84.28,0,159-1.94,205.27-4.91-9.92,2.18-15.66,4.76-15.66,7.53,0,7.88,46.46,14.27,103.77,14.27s103.77-6.39,103.77-14.27c0-6.25-29.25-11.56-70-13.49C831.61,849.86,877.76,846.59,877.76,842.55Z"/><path class="cls-26" d="M627.93,850.48c-55.26-3.81-121.6-7-149.07-1.12C498.06,862.68,617.78,863.6,627.93,850.48Z"/><rect class="cls-27" x="432.98" y="442.57" width="145.78" height="5.15" transform="translate(48.7 940.18) rotate(-88.62)"/><rect class="cls-27" x="420.98" y="464.01" width="145.78" height="5.15" transform="translate(15.46 949.01) rotate(-88.61)"/><rect class="cls-27" x="443.27" y="487.17" width="145.78" height="5.15" transform="translate(13.98 993.8) rotate(-88.6)"/><rect class="cls-27" x="303.27" y="351.22" width="3.95" height="136.51" transform="translate(-31.41 24.76) rotate(-4.42)"/><rect class="cls-27" x="292.62" y="373.31" width="3.95" height="136.51" transform="translate(-32.86 23.79) rotate(-4.38)"/><rect class="cls-27" x="324.28" y="389.65" width="3.95" height="136.51" transform="translate(-33.82 26.09) rotate(-4.35)"/><polygon class="cls-27" points="643.34 757.29 634.43 848.37 650.8 849.05 660.23 757.29 643.34 757.29"/><polygon class="cls-27" points="612.47 755.15 603.56 846.23 619.93 846.9 629.36 755.15 612.47 755.15"/><polygon class="cls-27" points="576.88 753.43 567.97 844.51 584.34 845.19 593.77 753.43 576.88 753.43"/><rect class="cls-28" x="410.67" y="650.04" width="388.47" height="7.6" transform="translate(-67.36 1238.21) rotate(-88.23)"/><rect class="cls-28" x="392.82" y="660.74" width="357.49" height="12.84" transform="translate(-112.84 1217.95) rotate(-88.24)"/><polygon class="cls-29" points="564.42 327.19 553.04 321.67 538.17 331.96 526.79 800.99 545.26 801.73 564.42 327.19"/><polygon class="cls-30" points="556.37 526.58 564.42 327.19 553.04 321.67 552.55 322 543.17 527.47 556.37 526.58"/><polygon class="cls-29" points="385.89 255.37 376.38 249.2 367.4 255.37 367.4 460.87 385.89 460.87 385.89 255.37"/><polygon class="cls-30" points="386.75 463.44 386.75 257.94 377.24 251.77 376.81 252.07 376.81 463.44 386.75 463.44"/><path class="cls-31" d="M799.38,392l.27-16.25L563.29,0S538.55,11.68,536,12.57s-11.88,31.2-11.88,31.2L785.56,389.88Z"/><polygon class="cls-24" points="823.08 698.15 700.94 704.93 700.76 720.57 822.64 721.18 823.08 698.15"/><polygon class="cls-24" points="818.25 670.24 698.67 685.86 698.5 701.38 817.82 693.03 818.25 670.24"/><polygon class="cls-24" points="813.53 643.02 696.44 667.1 696.27 682.51 813.11 665.57 813.53 643.02"/><polygon class="cls-32" points="696.44 667.1 696.27 682.51 799.58 667.53 810.41 643.65 696.44 667.1"/><polygon class="cls-32" points="698.67 685.86 698.5 701.38 787.03 695.19 797.1 673.01 698.67 685.86"/><polygon class="cls-32" points="700.94 704.93 700.76 720.57 775.34 720.95 784.72 700.28 700.94 704.93"/><polygon class="cls-33" points="825.09 809.25 786.85 800.21 763.09 827.26 762.9 838.99 816.98 839.31 825.09 809.25"/><polygon class="cls-33" points="751.1 825 717.6 800.56 676.17 806.94 682.23 839.62 748.65 838.18 751.1 825"/><polygon class="cls-33" points="708.85 778.03 718.64 807.92 748.13 822.78 769.14 825.1 802.1 810.6 811.68 781.92 708.85 778.03"/><polygon class="cls-24" points="261.1 344.1 250.76 337.53 242.64 345.32 273.64 813.15 292.1 811.93 261.1 344.1"/><polygon class="cls-30" points="272.95 523.04 261.1 344.1 250.76 337.53 248.83 339.38 262.76 528.33 272.95 523.04"/><polygon class="cls-24" points="449.86 347.02 443.27 341.81 437.15 346.73 426.62 801.3 439.32 801.6 449.86 347.02"/><polygon class="cls-30" points="446.56 489.31 449.86 347.02 443.41 341.93 441.13 489.31 446.56 489.31"/><polygon class="cls-31" points="758.19 298.62 727.12 283.14 727.37 744.84 772.88 743.73 758.19 298.62"/><polygon class="cls-31" points="832.98 735.38 790.09 721.78 694.43 753.56 703.01 793.48 822.67 798.57 832.98 735.38"/><polygon class="cls-31" points="723.7 274.75 739.02 169.23 744.18 172.02 730.98 275.36 723.7 274.75"/><polygon class="cls-31" points="749.2 302.03 740.31 169.58 746.09 170.41 757.16 301.02 749.2 302.03"/><polygon class="cls-34" points="809.44 750.43 753.56 736 744.03 320.47 727.14 313.19 727.37 742.62 694.43 753.56 703.01 793.48 719.62 794.19 708.5 758.26 809.44 750.43"/><rect class="cls-35" x="167.54" y="490.9" width="3.79" height="24.75" transform="translate(-279.74 220.01) rotate(-39.16)"/><rect class="cls-36" x="126" y="494.62" width="1.29" height="133.75"/><rect class="cls-37" x="170.88" y="544.85" width="1.78" height="2.68"/><polygon class="cls-38" points="186.04 492.24 178.01 490.45 169.1 547.52 186.04 547.52 186.04 492.24"/><polygon class="cls-39" points="186.04 523.22 172.89 523.22 171.22 533.92 186.04 533.92 186.04 523.22"/><g class="cls-40"><polygon class="cls-35" points="177.12 546.04 186.04 544.06 186.04 499.06 181.58 499.49 177.12 546.04"/></g><polygon class="cls-38" points="177.01 486 134.66 487.78 134.66 493.13 177.68 496.7 177.01 486"/><polygon class="cls-35" points="177.68 496.7 177.31 490.75 134.66 490.75 134.66 490.84 135.65 493.21 177.68 496.7"/><path class="cls-35" d="M173.55,493.13a8,8,0,1,0,8-8A8,8,0,0,0,173.55,493.13Z"/><path class="cls-35" d="M137.89,493.13a7.58,7.58,0,1,0-7.58,7.58A7.59,7.59,0,0,0,137.89,493.13Z"/><path class="cls-35" d="M207.51,545.6a3.48,3.48,0,0,0-.79-2.93,3.54,3.54,0,0,0-2.79-1.2l-52.83,2.3a3.94,3.94,0,0,0-3.73,4.46l1.43,10.66,56.85-3.49Z"/><path class="cls-38" d="M135.67,493.13a5.36,5.36,0,1,0-5.36,5.36A5.36,5.36,0,0,0,135.67,493.13Z"/><path class="cls-38" d="M175.23,493.13a6.35,6.35,0,1,0,6.35-6.35A6.35,6.35,0,0,0,175.23,493.13Z"/><g class="cls-41"><path class="cls-42" d="M207.51,545.61a3.49,3.49,0,0,0-3.58-4.14l-52.81,2.3a3.94,3.94,0,0,0-3.74,4.46l.49,3.63,59.44-5.2Z"/></g><rect class="cls-43" x="159.44" y="557.78" width="4.16" height="5.65" transform="translate(-41.87 13.8) rotate(-4.33)"/><rect class="cls-43" x="193.76" y="555.99" width="4.16" height="5.65" transform="translate(-46.58 18.58) rotate(-4.85)"/><path class="cls-43" d="M129.64,624.2a4.09,4.09,0,0,0-6.24.45c-1.36,2-.22,7.8,3.56,10.92C130.53,631.34,131.22,626.07,129.64,624.2Z"/><path class="cls-35" d="M129.64,636.24a2.45,2.45,0,1,0-2.45,2.46A2.45,2.45,0,0,0,129.64,636.24Z"/><path class="cls-44" d="M132,651.51v0c-5.86-2.93-3.25-13-4.5-13s-2.27,2.92-2.27,6.51a18.51,18.51,0,0,0,.2,2.68,7.69,7.69,0,0,0,.75,2.59l.09.2a6.79,6.79,0,0,0,6,3.77,7.16,7.16,0,0,0,6.87-7.42C137.13,645.58,137.1,652.62,132,651.51Z"/><polygon class="cls-45" points="205.65 552.28 148.29 556.44 148.29 559.71 205.65 555.55 205.65 552.28"/><path class="cls-46" d="M176.45,493.13a5.13,5.13,0,1,0,5.13-5.12A5.13,5.13,0,0,0,176.45,493.13Z"/><path class="cls-46" d="M126.19,493.13a4.32,4.32,0,1,0,4.31-4.31A4.31,4.31,0,0,0,126.19,493.13Z"/><path class="cls-47" d="M490.15,468.79l-5.3-16.24,0-.18h-.11l0-.1-.22.08-14.94-1.6c-3.35,6.17-5.49,12.66-8.57,26.06-1.68,3.78-1.39,27.76,0,27.76h4.29c-2.06-9.89-2-16,0-27l8,1c1.59,9.87,3.23,16.71,0,26.3h4.29c2.79-9,1.15-17.86,0-29.3-.47-8.3,1.18-11.73,5.06-16l3.45,10.57Z"/><path class="cls-30" d="M461.41,487.52a53.64,53.64,0,0,0,2.59,17h1.11c-2.07-9.89-2.05-16,0-27l8,1c1.59,9.87,3.25,16.71,0,26.3h4.31c2.81-9,1.16-17.86,0-29.3-.47-8.3,1.19-11.72,5.1-16L486,470.14l4.1-1.35L485,453.08a12.52,12.52,0,0,0-4.11-.72C469.15,452.36,461.41,469.32,461.41,487.52Z"/><path class="cls-48" d="M469.58,450.74c-3.15.9-3.76,3.1-2.85,6.48.46,4.7,1.2,8.48,4.16,12l3-3.24A36,36,0,0,1,469.58,450.74Z"/><rect class="cls-49" x="488.01" y="468.49" width="2.78" height="9.38" transform="translate(-114.86 159.68) rotate(-16.61)"/><rect class="cls-49" x="474.4" y="465.61" width="2.78" height="12.56" transform="translate(-189.17 388.9) rotate(-37.65)"/><path class="cls-49" d="M484.07,449.9a5.8,5.8,0,1,0-5.78,5.32A5.56,5.56,0,0,0,484.07,449.9Z"/><path class="cls-30" d="M474.36,450.36a5.3,5.3,0,0,0,3.33,4.8,5.8,5.8,0,0,0,.6.06,5.56,5.56,0,0,0,5.78-5.32,5.3,5.3,0,0,0-3.33-4.8,4.07,4.07,0,0,0-.6-.06A5.56,5.56,0,0,0,474.36,450.36Z"/><path class="cls-45" d="M483.39,452.35a4.93,4.93,0,0,0,.68-2.45,5.3,5.3,0,0,0-3.33-4.8,6,6,0,0,0-2.45-.52,5.56,5.56,0,0,0-5.78,5.32,4.91,4.91,0,0,0,.64,2.39C476,453.43,480.57,453.28,483.39,452.35Z"/><path class="cls-50" d="M485.92,449.67c0-2.22-2.31-7.72-8.32-7.41a7.31,7.31,0,0,0-6.79,6.48C470.81,454,485.92,452.9,485.92,449.67Z"/><path class="cls-51" d="M483.64,444.61a7.46,7.46,0,0,0-6-2.35,7.31,7.31,0,0,0-6.79,6.48,2.81,2.81,0,0,0,1.55,2.41,16.66,16.66,0,0,0,3.49-.68C479.67,449.29,482.58,447,483.64,444.61Z"/><polygon class="cls-49" points="276.54 457.79 278.99 458.38 280 464.57 278.04 465.25 276.54 457.79"/><rect class="cls-52" x="276.66" y="457.61" width="1.78" height="5.54" transform="translate(-4.15 2.53) rotate(-0.52)"/><path class="cls-53" d="M280.36,463.82c.49,3.48,2.35,5.26,7.38,5.26.74,1.67.43,2.45-1.17,3-5.08-.32-8.23-3.14-9.16-7.82Z"/><path class="cls-54" d="M282.63,490.84l-1.07-22.52,10.59-2.48,2.5,24.09c-.34,9.14.53,16.8,3.59,21.75l-4.49.69c-2.51-3.75-3.57-13.12-3.55-22.1l-2.81.21c-1,9-1.43,16.21.43,22.88l-4.75,0c-.93-5-1.32-12.08-.42-22.57Z"/><path class="cls-55" d="M277,466.32c1.29,3.83,3.13,5.07,8.54,3.8,1.17,1.7,1,2.66-.59,3.71-5.54.92-9.55-1.49-11.59-6.55Z"/><path class="cls-49" d="M292.78,463.1c0,2.56-2.43,4.67-5.49,4.7s-5.56-2-5.59-4.59,2.44-4.68,5.49-4.71S292.76,460.53,292.78,463.1Z"/><rect class="cls-52" x="271.28" y="453.48" width="8.11" height="5.34" transform="translate(-4.61 2.82) rotate(-0.58)"/><polygon class="cls-49" points="274.65 458.31 277.35 458.95 276.14 467.05 273.93 467.91 274.65 458.31"/><rect class="cls-52" x="270.36" y="454.71" width="1.78" height="3.03" transform="translate(-4.63 2.78) rotate(-0.58)"/><rect class="cls-52" x="265.74" y="456.05" width="5.47" height="0.66" transform="translate(-4.58 2.73) rotate(-0.58)"/><path class="cls-50" d="M280.68,459.08c1.16-2.75,4.91-4.21,8.61-2.64s5.95,5.54,4.79,8.29-4.7,2.31-8.4.75S279.52,461.83,280.68,459.08Z"/><path class="cls-51" d="M288.15,460c2.44.61,4.32,2,4.94,3.39a.41.41,0,0,0,0,.08c-1,2.34-4,2-7.12.63-2-.83-3.51-1.83-4.16-3C282.8,459.81,285.38,459.32,288.15,460Z"/><path class="cls-30" d="M287.3,491.28c-.93,8.66-1.28,15.62.52,22.08H287a36.1,36.1,0,0,1,.33-22.09Z"/><polygon class="cls-56" points="661.66 562.91 396.39 430.29 146.99 561.77 147.85 571.21 392.96 625.8 662.8 573.35 661.66 562.91"/><polygon class="cls-57" points="662.8 573.2 397.53 440.57 147.13 570.92 394.11 636.09 662.8 573.2"/><polygon class="cls-24" points="245.61 565.2 397.82 497.45 557.75 569.49 549.95 616.96 250.82 615.38 245.61 565.2"/><polygon class="cls-58" points="398.68 517.75 368.67 533.05 368.67 549.77 346.59 557.91 346.8 539.05 247.19 580.07 250.26 618.42 395.82 620.94 398.68 517.75"/><polygon class="cls-24" points="274.77 530.47 266.62 526.18 255.05 532.57 260.84 620.03 279.3 618.81 274.77 530.47"/><polygon class="cls-30" points="279.12 615.41 274.77 530.47 266.62 526.18 265.24 526.95 271.14 615.93 279.12 615.41"/><polygon class="cls-30" points="549.95 616.96 557.75 569.49 397.82 497.45 396.15 616.14 549.95 616.96"/><polygon class="cls-30" points="412.4 517.18 412.97 550.91 448.99 565.2 449.56 531.47 412.4 517.18"/><polygon class="cls-59" points="412.97 526.33 412.69 544.91 444.7 556.34 443.85 538.34 412.97 526.33"/><polygon class="cls-30" points="489.01 544.05 489.58 577.78 525.6 592.07 526.17 558.34 489.01 544.05"/><polygon class="cls-56" points="661.66 629.95 396.39 540.05 145.99 628.4 148.28 635.52 392.96 672.57 662.8 636.8 661.66 629.95"/><polygon class="cls-60" points="662.8 636.92 397.53 547.02 147.13 635.37 394.11 679.54 662.8 636.92"/><polygon class="cls-24" points="246.3 637.24 397.54 586.36 550.2 641.52 549.95 690.13 250.82 688.55 246.3 637.24"/><polygon class="cls-58" points="396.11 628.02 384.1 633.16 384.32 645.06 326.11 657.39 319.68 641.74 309.93 687.4 396.96 701.55 396.11 628.02"/><path class="cls-61" d="M419.3,642.44a25.8,25.8,0,0,1,2.13-13L413.82,621l2.5-2.07,8.1,7.06,9.34,2c-3.4,6.45-4.44,11.39-3.24,19.14h0l2.39,16.27-3.54.48-2.54-17.33-4.19-.66-.89,16.6-3.57-.18,1.07-19.91Z"/><path class="cls-62" d="M426.14,619.58a6.31,6.31,0,0,1,8.66-.2,5.74,5.74,0,0,1,.41,8.32C432.94,630.05,423.86,621.93,426.14,619.58Z"/><path class="cls-49" d="M425.52,623.72c0-2.45,2.31-4.43,5.15-4.43s5.15,2,5.15,4.43-2.3,4.42-5.15,4.42S425.52,626.16,425.52,623.72Z"/><path class="cls-50" d="M431.89,622.32a12.21,12.21,0,0,0-5.55-2.91,6.31,6.31,0,0,1,8.46,0,5.73,5.73,0,0,1,.55,8.15A11.63,11.63,0,0,0,431.89,622.32Z"/><path class="cls-30" d="M419.61,635.37a27.44,27.44,0,0,1,1.82-5.88L413.82,621l2.5-2.07,8.1,7.06,2.3.5a4,4,0,0,1-1.2-2.8,3.82,3.82,0,0,1,.56-2,1.93,1.93,0,0,1,.06-2.18c.06-.07.14-.11.2-.17h0a6.09,6.09,0,0,1,4.16-1.63h.15a5.29,5.29,0,0,1,1,.08c.13,0,.25.07.37.1a5.88,5.88,0,0,1,.75.19,6.63,6.63,0,0,1,.6.29,4.91,4.91,0,0,1,.46.22,6,6,0,0,1,1.81,1.62c.11.14.18.3.28.45s.23.35.32.53a6.39,6.39,0,0,1,.27.73c0,.11.09.22.12.33a6.2,6.2,0,0,1,.16,1s0,.08,0,.12a4.72,4.72,0,0,1-1.28,4c-.35.36-.79,1.21-1.4,1.14-1.5,2.85-2.9,5-3.49,7.61a22.85,22.85,0,0,0-6.92-1.33A16.81,16.81,0,0,0,419.61,635.37Z"/><polygon class="cls-48" points="422.12 624.73 423.88 622.04 434.23 628.3 432.47 630.98 422.12 624.73"/><polygon class="cls-49" points="409.16 612.4 416.13 619.42 414.4 621 407.44 613.98 409.16 612.4"/><polygon class="cls-30" points="409.95 614.14 416.13 619.42 414.4 621 407.44 613.98 409.95 614.14"/><polygon class="cls-49" points="415.31 617.26 423.82 622.48 422.54 624.41 414.03 619.19 415.31 617.26"/><polygon class="cls-30" points="549.95 690.13 550.2 641.52 397.54 584.93 394.4 684.12 549.95 690.13"/><polygon class="cls-56" points="661.09 698.55 398.25 641.52 146.99 697.26 147.21 704.77 392.96 727.79 662.37 705.62 661.09 698.55"/><polygon class="cls-30" points="289.78 683.26 294.35 664.39 203.73 684.69 202.31 690.98 289.78 683.26"/><polygon class="cls-63" points="662.8 705.59 397.53 649.58 147.13 704.62 394.11 732.14 662.8 705.59"/><polygon class="cls-24" points="246.3 705.97 402.18 679.13 550.2 706.64 549.95 775.02 250.82 773.45 246.3 705.97"/><polygon class="cls-58" points="400.4 712.7 331.79 719.99 306.92 758.58 396.11 771.87 400.4 712.7"/><polygon class="cls-30" points="402.68 678.97 400.4 775.3 550.47 776.16 550.47 706.41 402.68 678.97"/><polygon class="cls-56" points="661.52 753 395.25 723.42 147.42 752.14 146.99 759.01 392.96 775.24 662.37 759.65 661.52 753"/><path class="cls-30" d="M261.48,750.43c9.46-4,12.83-6.87,15.43-13.15l-104,11.15-.57,8.86Z"/><polygon class="cls-64" points="662.8 759.58 397.53 734.14 147.13 759.14 394.39 776.16 662.8 759.58"/><path class="cls-36" d="M272.75,839c-.54-20.83-28.88-59-57.33-58.27s-40.76,37.9-40.22,58.73C198.57,841.3,271.61,846.33,272.75,839Z"/><g class="cls-65"><path class="cls-66" d="M243.22,802a77.72,77.72,0,0,0,3.57-7.88c-9.37-8.11-20.36-13.66-31.37-13.38-27.36.71-39.78,35.06-40.22,56.23C199.24,844.69,228.43,830.24,243.22,802Z"/></g><polygon class="cls-67" points="218.46 764.63 394.78 749.34 581.62 763.87 582.89 847.51 223.88 845.62 218.46 764.63"/><polygon class="cls-30" points="394.78 749.34 401.25 844.76 555.61 849.05 563.33 760.72 394.78 749.34"/><path class="cls-34" d="M556.47,33.53l9-30.12L563.29,0S538.55,11.68,536,12.57s-11.88,31.2-11.88,31.2l199.3,263.84,17.13.33Z"/><polygon class="cls-31" points="586.48 102.62 581.95 102.62 581.67 562.43 586.14 562.46 586.48 102.62"/><polygon class="cls-68" points="769.99 289.08 750.15 292.37 743.38 333.6 760.56 351.96 782 346.53 787.15 309.66 769.99 289.08"/><path class="cls-69" d="M281.2,589.22c2,44.54,2.12,86.76-2.58,114C273.93,726,271.93,738.47,252,747c-21.22,12.23-51,7.72-56.17,3.86-7.81,4.26-30.25,9.68-45.36,9.72a7.44,7.44,0,0,1-7.41-8.26c4.82-43.78,8.91-76.25,2.89-123.92,17.7,3.29,32.5,3.23,42.6-16,18.08,1.94,30.83-4.82,46.3-17.15C254.17,600.87,264.26,598.42,281.2,589.22Z"/><g class="cls-70"><path class="cls-71" d="M188.44,741.14c5.14,3.86,34.94,8.37,56.17-3.86,19.88-8.52,21.89-21,26.58-43.73,4.23-24.57,4.55-61.25,3.11-100.82-13.11,6.21-30.83,16.64-39.41,2.48-15.47,12.33-32.59,29.16-46.31,17.16-10.09,19.26-33.87,26.58-42.59,16,5.95,47.15,6.27,78.8,2.07,121.79C162,738.71,180.72,745.36,188.44,741.14Z"/></g><path class="cls-69" d="M193.38,684.15a93.81,93.81,0,0,1-1.32,20.07c-3.81,22.37-14.14,39.37-23.46,39.09,3,5.52,6.67,8.84,10.7,8.84,9.7,0,17.57-19.07,17.57-42.59A87.79,87.79,0,0,0,193.38,684.15Z"/><path class="cls-27" d="M280.92,591.07a4.43,4.43,0,1,0-4.43,4.43A4.43,4.43,0,0,0,280.92,591.07Z"/><path class="cls-27" d="M237.89,596.65a4.43,4.43,0,1,0-4.43,4.43A4.43,4.43,0,0,0,237.89,596.65Z"/><path class="cls-27" d="M195,613.8a4.43,4.43,0,1,0-4.42,4.43A4.42,4.42,0,0,0,195,613.8Z"/><polygon class="cls-30" points="482.72 626.37 483.29 660.11 521.02 668.11 519.88 640.67 482.72 626.37"/><polygon class="cls-59" points="482.85 634.12 483.29 660.11 515.59 666.95 514.74 646.38 482.85 634.12"/><polygon class="cls-59" points="489.58 553.2 489.29 571.78 521.31 583.21 520.45 565.2 489.58 553.2"/><polygon class="cls-59" points="248.61 846.47 240.04 774.44 273.48 771.87 286.34 847.33 248.61 846.47"/><polygon class="cls-30" points="251.18 783.88 258.04 845.62 286.34 847.33 272.62 783.02 251.18 783.88"/><polygon class="cls-59" points="315.5 843.9 306.92 771.87 340.37 769.29 353.23 844.76 315.5 843.9"/><polygon class="cls-30" points="318.07 781.3 324.93 843.05 353.23 844.76 339.51 780.45 318.07 781.3"/><rect class="cls-72" x="496.44" y="830.18" width="42.02" height="20.58"/><rect class="cls-72" x="500.73" y="808.74" width="42.02" height="20.58"/><rect class="cls-72" x="522.17" y="789.88" width="42.02" height="20.58"/><rect class="cls-72" x="533.31" y="831.04" width="42.02" height="20.58"/><rect class="cls-72" x="542.75" y="808.74" width="42.02" height="20.58"/><rect class="cls-72" x="557.75" y="792.45" width="42.02" height="20.58"/><rect class="cls-72" x="586.91" y="812.6" width="25.73" height="20.58"/><rect class="cls-72" x="577.05" y="831.9" width="25.73" height="20.58"/><rect class="cls-72" x="545.75" y="835.33" width="25.73" height="20.58"/><rect class="cls-72" x="507.59" y="814.32" width="20.58" height="20.58"/><rect class="cls-73" x="499.01" y="810.03" width="8.58" height="20.58"/><rect class="cls-72" x="554.32" y="811.32" width="25.73" height="20.58"/><rect class="cls-72" x="561.61" y="789.88" width="25.72" height="20.58"/><rect class="cls-72" x="569.76" y="835.33" width="25.72" height="20.58"/><rect class="cls-72" x="573.62" y="815.18" width="25.73" height="20.58"/><rect class="cls-72" x="570.62" y="805.74" width="25.73" height="20.58"/><rect class="cls-72" x="595.48" y="831.47" width="25.73" height="20.58"/><rect class="cls-73" x="520.02" y="834.9" width="25.73" height="20.58"/><rect class="cls-73" x="528.6" y="812.17" width="25.73" height="20.58"/><rect class="cls-73" x="544.89" y="790.73" width="17.15" height="18.87"/><polygon class="cls-34" points="746.22 316.27 743.49 332.93 774.28 328.52 746.22 316.27"/><polygon class="cls-59" points="770.28 290.22 774.28 328.52 781.71 346.24 787.43 310.23 770.28 290.22"/><rect class="cls-72" x="296.34" y="832.19" width="35.46" height="18.87"/><path class="cls-28" d="M314.33,828c-4.14-5.18-14.6-3.69-23.34,3.32s-12.48,16.88-8.33,22.06S297.25,857,306,850,318.48,833.12,314.33,828Zm-9.69,20.34c-7.17,5.74-15.72,7-19.12,2.72s-.34-12.32,6.82-18,15.73-7,19.13-2.72S311.8,842.56,304.64,848.29Z"/><path class="cls-28" d="M308.5,825.92c-4.15-5.17-14.6-3.69-23.35,3.32s-12.47,16.89-8.33,22.06,14.6,3.69,23.35-3.32S312.65,831.09,308.5,825.92Zm-9.7,20.35c-7.16,5.74-15.72,7-19.11,2.72s-.34-12.32,6.82-18.06,15.72-6.95,19.12-2.72S306,840.53,298.8,846.27Z"/><polygon class="cls-59" points="332.22 698.98 334.37 730.28 362.24 726.85 359.66 695.12 332.22 698.98"/><polygon class="cls-59" points="339.2 729.68 362.24 726.85 360.03 699.65 337.37 702.84 339.2 729.68"/><polygon class="cls-59" points="471.14 612.37 471.57 656.96 406.83 642.81 405.97 589.22 471.14 612.37"/><polygon class="cls-59" points="464.28 610.22 405.97 589.51 406.81 642.16 464.71 654.82 464.28 610.22"/><polygon class="cls-59" points="477.57 693.4 478.43 731.99 412.84 725.35 412.26 680.68 477.57 693.4"/><polygon class="cls-59" points="470.93 692.33 412.26 680.98 412.83 724.7 471.79 731.14 470.93 692.33"/><polygon class="cls-59" points="479.86 762.43 485.53 844.6 419.64 846.67 411.79 755.85 479.86 762.43"/><polygon class="cls-59" points="473.13 762.25 411.83 756.15 419.54 846.03 478.82 844.62 473.13 762.25"/><polygon class="cls-59" points="383.82 591.5 384.21 644.74 319.47 659.21 319.78 611.22 383.82 591.5"/><polygon class="cls-59" points="384.12 593.27 326.65 608.65 326.22 657.6 384.21 644.63 384.12 593.27"/><polygon class="cls-59" points="346.58 557.51 368.5 549.89 368.38 521.29 346.89 529.16 346.58 557.51"/><polygon class="cls-56" points="517.83 555.43 601.87 527.13 599.3 630.89 516.98 643.75 517.83 555.43"/><g class="cls-74"><polygon class="cls-75" points="517.83 555.43 601.87 527.13 599.3 630.89 516.98 643.75 517.83 555.43"/></g><polygon class="cls-24" points="601.45 526.27 657.62 575.15 650.75 658.76 598.87 630.46 601.45 526.27"/><polygon class="cls-76" points="516.98 643.75 582.15 664.34 650.75 658.76 598.87 630.46 516.98 643.75"/><polygon class="cls-59" points="538.42 572.58 535.84 611.17 575.29 603.45 573.57 558.86 538.42 572.58"/><g class="cls-77"><polygon class="cls-78" points="539.61 610.43 575.29 603.45 573.79 564.4 541.84 576.86 539.61 610.43"/></g><polygon class="cls-59" points="804.01 804.17 805.15 797.31 714.25 793.31 717.7 801.91 720.19 838.79 748.65 838.18 751.1 825 747.9 822.66 748.13 822.78 765.35 824.68 763.09 827.26 762.9 838.99 772.36 839.05 780.57 803.6 804.01 804.17"/><polygon class="cls-26" points="729.75 734.57 745.58 689.12 745.98 725.56 729.75 734.57"/><polygon class="cls-26" points="729.75 723.85 729.75 659.1 743.75 683.97 729.75 723.85"/><polygon class="cls-26" points="730.16 640.24 730.16 575.49 744.16 600.36 730.16 640.24"/><polygon class="cls-26" points="730.57 554.05 730.57 489.31 744.56 514.18 730.57 554.05"/><polygon class="cls-26" points="730.34 463.89 730.34 404.54 743.17 427.34 730.34 463.89"/><polygon class="cls-26" points="730.57 651.38 744.97 677.54 743.95 610.22 730.57 651.38"/><polygon class="cls-26" points="729.75 566.92 744.16 593.07 743.14 525.75 729.75 566.92"/><polygon class="cls-26" points="729.5 478.23 743.2 503.13 742.24 439.05 729.5 478.23"/><polygon class="cls-26" points="728.28 389.05 741.99 413.94 741.02 349.86 728.28 389.05"/><polygon class="cls-26" points="730.16 327.24 730.16 372.69 738.48 347.39 730.16 327.24"/><g class="cls-79"><polygon class="cls-26" points="729.69 310.94 729.11 294.69 740.41 311.8 729.69 310.94"/><polygon class="cls-26" points="727.77 310.98 713.03 291.2 726.98 293.77 727.77 310.98"/><polygon class="cls-26" points="708.28 284.33 687.97 256.99 705.74 261.85 708.28 284.33"/><polygon class="cls-26" points="680.18 245.9 649.97 205.14 674.2 214.51 680.18 245.9"/><polygon class="cls-26" points="634.71 184.98 588.76 123.08 622.19 140.56 634.71 184.98"/><polygon class="cls-26" points="711.52 288.18 726.25 291.18 708.52 266.26 711.52 288.18"/><polygon class="cls-26" points="684.54 252.96 703.5 258.55 678.15 222.81 684.54 252.96"/><polygon class="cls-26" points="642.71 197.32 667.93 207.69 629.76 153.71 642.71 197.32"/><polygon class="cls-26" points="570.79 103.95 610.28 125.88 554.75 39.82 570.79 103.95"/><polygon class="cls-26" points="533.6 48.39 562.65 87.32 551.89 40.96 533.6 48.39"/></g><polygon class="cls-34" points="737.84 179.74 726.69 258.2 728.4 262.06 741.69 181.88 737.84 179.74"/><path class="cls-24" d="M751.81,176.93c.09-6.33-3.37-11.48-7.72-11.48s-8,5.13-8.05,11.46,3.38,11.46,7.74,11.46S751.73,183.25,751.81,176.93Z"/><path class="cls-59" d="M750.84,176.43c0-5.67-1.71-10.26-3.92-10.27s-4,4.59-4.08,10.25,1.72,10.24,3.93,10.24S750.8,182.08,750.84,176.43Z"/><polygon class="cls-34" points="744.27 190.46 752.41 291.65 748.56 293.79 742.13 192.18 744.27 190.46"/><path class="cls-69" d="M211.17,747s20.58-8.57,25.73-30.3c0,0,4.57,25.15-7.44,31.44S211.17,747,211.17,747Z"/><path class="cls-69" d="M233.46,608.08s-6.86,14.86,14.87,29.73C248.33,637.81,235.18,619.51,233.46,608.08Z"/><path class="cls-69" d="M158.57,639.52s12,17.15,28-10.86C186.59,628.66,176.29,644.67,158.57,639.52Z"/><path class="cls-69" d="M219.17,654.39s17.72,20,2.28,66.31C221.45,720.7,225.46,669.26,219.17,654.39Z"/><polygon class="cls-31" points="794 373.97 807.73 355.96 814.3 355.39 799.38 391.95 794 373.97"/><polygon class="cls-30" points="771.99 353.68 797.72 388.55 786.86 387.41 763.99 355.39 771.99 353.68"/><polygon class="cls-80" points="597.77 111.93 584.13 95.79 574.04 104.34 587.68 120.48 597.77 111.93"/><path class="cls-81" d="M209.08,839.15A16.48,16.48,0,0,0,190.93,822L101,835.54l-.23,16.37,94.06,3A14.23,14.23,0,0,0,209,841.25Z"/><path class="cls-44" d="M199.57,840.86a11.42,11.42,0,0,0-4.29-9.26,14.93,14.93,0,0,0-10.73-3.26l-74,9.43-.12,11.89,77.5,2.55c6.24,0,11.32-4.33,11.57-9.82Z"/><polygon class="cls-35" points="239.96 708.01 142.43 784.18 156.31 797.47 247.72 716.5 239.96 708.01"/><rect class="cls-35" x="167.32" y="772.34" width="49" height="7.44" transform="translate(-604.39 704.56) rotate(-70.98)"/><polygon class="cls-35" points="154.23 756.29 120.97 759.26 134.11 801.22 167.78 797.77 154.23 756.29"/><g class="cls-82"><polygon class="cls-83" points="237.81 716.23 234.94 711.93 159.09 771.17 158.26 768.63 150.42 766.53 147.37 759.7 152.03 756.48 126.78 758.74 162.63 776.38 237.81 716.23"/></g><rect class="cls-35" x="240.88" y="708.65" width="5.43" height="58.76" transform="translate(-504.61 948.35) rotate(-87.43)"/><polygon class="cls-38" points="294.95 753 244.02 703.8 236.33 714.96 288.35 759.04 294.95 753"/><polygon class="cls-35" points="288.35 759.04 291.5 756.16 240.88 708.35 236.41 714.85 237.81 716.23 288.35 759.04"/><path class="cls-84" d="M334.84,772.3C322.78,754.68,306.65,749,285,753l23.77,55.8,10.16,1.75C329.39,797.63,333,788.47,334.84,772.3Z"/><path class="cls-85" d="M328.28,764.93c-.48-.71-1-1.37-1.49-2C315.85,752.77,302.15,749.83,285,753l22.44,53.46,1.19,2.52C319.1,796.05,326.45,781.11,328.28,764.93Z"/><polygon class="cls-86" points="184.26 816.94 181.78 839.16 153.74 855.77 83.97 851.16 82.73 823.31 184.26 816.94"/><path class="cls-87" d="M173.85,850a11,11,0,0,0-3.82-8.69,13.67,13.67,0,0,0-9.7-3.33l-93.49,4.35c-6.6.31-11.66,5.32-11.37,11.27l.19,4c.25,5.15,4.83,9.31,10.56,9.57l89.57,4c9.43.42,17.38-6.11,17.76-14.59Z"/><path class="cls-88" d="M83.93,767.85l-15.57,4.84A8.8,8.8,0,0,0,62.21,782l6.69,42.64,23.82,0Z"/><rect class="cls-89" x="65.56" y="787.17" width="14.38" height="2.73" transform="matrix(1, -0.03, 0.03, 1, -24.81, 2.68)"/><rect class="cls-89" x="66.75" y="793.76" width="14.38" height="2.72" transform="matrix(1, -0.03, 0.03, 1, -25.12, 2.74)"/><rect class="cls-89" x="67.99" y="799.4" width="14.38" height="2.72" transform="translate(-25.3 2.78) rotate(-1.81)"/><path class="cls-90" d="M85.67,779.08l-1.74-11.23-15.57,4.84A8.8,8.8,0,0,0,62.21,782l.15,1,21.75-1.55Z"/><polygon class="cls-35" points="71.22 807.09 78.3 833.53 156.17 829.9 190.65 817.87 194.12 790.87 81.77 800.43 71.22 807.09"/><path class="cls-91" d="M166.45,855c.1-2.14-1.2-4.24-3.59-5.77a16.1,16.1,0,0,0-8.92-2.32L68.4,848.7c-6,.12-10.61,3.37-10.28,7.31l.22,2.67c.28,3.41,4.53,6.2,9.77,6.44l82.06,3.68c8.63.38,15.83-3.84,16.09-9.44Z"/><g class="cls-92"><polygon class="cls-93" points="176.75 801.96 74.63 804.83 71.22 807.09 78.3 833.53 156.17 829.9 157.52 829.43 157.81 809.3 176.75 801.96"/></g><path class="cls-38" d="M71.78,757l8.43,47.71,52.55-1.36,21.87-6.89-22.87-52.79C118,724.88,70.38,741.73,71.78,757Z"/><path class="cls-86" d="M133.42,747.5l-1.66-3.83c-13.72-18.79-61.38-1.94-60,13.33l.67,3.82,35.76-7.71Z"/><path class="cls-94" d="M75.74,755l6.85,46.46,38.06-2-16.84-47.78C90.76,745,84.07,747.31,75.74,755Z"/><path class="cls-85" d="M326.79,762.89C315.85,752.77,302.15,749.83,285,753l.54,1.3c14.88-1.78,27,1.49,36.88,10.61.49.68,1,1.34,1.49,2.05-1.64,14.41-7.66,27.83-16.36,39.74l1.08,2.28c10.47-12.94,17.82-27.88,19.65-44.06C327.8,764.22,327.29,763.56,326.79,762.89Z"/><path class="cls-84" d="M293.57,755.45a5.67,5.67,0,1,0-5.92,5.41A5.66,5.66,0,0,0,293.57,755.45Z"/><path class="cls-35" d="M249.76,711.4A7.48,7.48,0,1,0,242,718,7.2,7.2,0,0,0,249.76,711.4Z"/><path class="cls-84" d="M248.81,712.3a6.32,6.32,0,1,0-6.59,6A6.33,6.33,0,0,0,248.81,712.3Z"/><path class="cls-86" d="M74.54,852.29c-8-3.38-13.7,1.2-8.64,9C72.41,864.16,78,859,74.54,852.29Z"/><path class="cls-86" d="M157.69,854c-8.37-3.55-14.35,1.26-9.05,9.38C155.46,866.4,161.34,861,157.69,854Z"/><path class="cls-90" d="M164.33,838.45a14.08,14.08,0,0,0-4-.45l-93.49,4.35a12.09,12.09,0,0,0-9.94,5.75l101.6-4.53Z"/><polygon class="cls-86" points="86.9 860.47 82.26 847.61 93.03 839.9 129.97 838.08 123.99 846.87 125.6 860.72 86.9 860.47"/><polygon class="cls-95" points="82.29 858.03 77.66 845.16 88.43 837.46 124.56 836.85 119.38 844.43 121 858.27 82.29 858.03"/><path class="cls-89" d="M129.9,803.42l2.86-.07,21.87-6.89-22.87-52.79a17.23,17.23,0,0,0-2.8-3l-21.16,4.95Z"/><g class="cls-96"><path class="cls-97" d="M105.16,735.75c-16.83,2-34.24,11.94-33.38,21.25l8.43,47.71L95.85,741Z"/></g><polygon class="cls-35" points="157.81 809.3 76.91 809.15 158.2 817.26 157.81 809.3"/><path class="cls-84" d="M199.67,761.05a4.47,4.47,0,1,0-4.65,4A4.33,4.33,0,0,0,199.67,761.05Z"/><polygon class="cls-94" points="113.61 754.46 132.63 750.85 150.13 792.34 131.56 796.96 113.61 754.46"/><path class="cls-98" d="M120.29,799.3l-5.35-15.11-11.14-32.4c-2-1.83-6-2.61-6-2.61-9.49-3.34-15.36-.8-22.38,5.68l6.85,46.46.55,0h0ZM79.14,756.64c6.18-5.71,11.51-8.28,19.17-6.56l3.15,12.52-20.61,5.79Z"/><path class="cls-98" d="M132.63,750.85l-19,3.61,1.29,2.85h-.09L131.56,797l16.77-4.18,1.8-.45ZM116.54,754l14.46-2.7,2.48,7-14,.49Z"/><polygon class="cls-99" points="97.76 749.18 85.52 799.86 95.24 798.8 100.85 751.17 97.76 749.18"/><path class="cls-90" d="M155.35,856c-4.45-1.89-7.62.67-4.81,5C154.17,862.56,157.3,859.69,155.35,856Z"/><path class="cls-90" d="M72.74,854c-4.45-1.88-7.63.67-4.82,5C71.55,860.56,74.68,857.69,72.74,854Z"/><polygon class="cls-91" points="143.71 838.7 138.36 844.41 139.46 847.69 142.69 847.58 141.58 844.56 147.19 838.61 143.71 838.7"/><polygon class="cls-91" points="156.4 837.9 150.5 844.96 151.59 848.23 154.82 848.13 153.72 845.1 159.62 838.04 156.4 837.9"/><polygon class="cls-91" points="133.15 838.97 127.16 845.4 128.25 848.67 131.48 848.57 130.38 845.54 136.12 839.11 133.15 838.97"/><polygon class="cls-91" points="74.43 841.79 69.77 846.78 70.62 849.32 73.13 849.24 72.27 846.9 76.74 841.89 74.43 841.79"/><polygon class="cls-91" points="66.74 841.69 62.08 846.68 63.55 849.99 65.44 849.15 64.58 846.79 69.05 841.8 66.74 841.69"/><g class="cls-100"><polygon class="cls-101" points="157.81 809.3 176.75 801.96 73.01 807.74 157.81 809.3"/></g><polygon class="cls-84" points="285.8 760.69 306.25 811.12 304.7 820.72 309.21 819.8 313.29 811.8 316.58 813.07 315.12 820.82 319.27 819.51 324.96 800.78 312.04 806.53 288.35 759.04 285.8 760.69"/><path class="cls-35" d="M291.91,755.38a4,4,0,1,0-4.18,3.82A4,4,0,0,0,291.91,755.38Z"/><path class="cls-35" d="M247,712.21a4.46,4.46,0,1,0-4.66,4.27A4.47,4.47,0,0,0,247,712.21Z"/><path class="cls-35" d="M198.9,761a3.69,3.69,0,1,0-3.84,3.31A3.58,3.58,0,0,0,198.9,761Z"/><polygon class="cls-85" points="285.51 758.82 305.61 808.85 305.43 821.12 309.29 809.76 285.51 758.82"/><polygon class="cls-102" points="161.41 807.79 158.37 809.14 157.8 829.75 160.31 828.21 161.41 807.79"/><path class="cls-103" d="M501.4,875.22c0-4.63-11.41-8.39-25.49-8.39s-25.48,3.76-25.48,8.39,11.41,8.38,25.48,8.38S501.4,879.85,501.4,875.22Z"/><path class="cls-104" d="M467.89,775.16c4-5.06,5.56-10.74,3.24-12.58-1.08-.79-7.64.85-11.65,5.91s-4.26,11.1-3.13,12.56C458.67,782.89,463.88,780.22,467.89,775.16Z"/><rect class="cls-105" x="458.86" y="866.77" width="6.99" height="2.13" transform="translate(-418.41 1305.08) rotate(-88.35)"/><rect class="cls-105" x="477.94" y="859.33" width="2.14" height="7.82" transform="translate(-40.98 24.05) rotate(-2.76)"/><polygon class="cls-106" points="483.07 769.53 479.5 767.26 470.4 784.18 474.83 790.6 483.07 769.53"/><path class="cls-107" d="M476.7,861.77l3.85.23a446.61,446.61,0,0,0-2.22-47.17l.07,0c-.35-17.61-2.52-27.25-7.06-32.38L459.23,788a2.81,2.81,0,0,0-1.59,3.1c1.6,8.18,3.05,15.93,2.62,23.1h-.13c0,.33,0,.67.05,1s0,.41-.05.62l.09,0c.69,14.16.76,30.83-.09,50.14l4,.24c2-22.27,3-36.26,3.62-44.46,1.4-1.52,2.87-1.57,4.33-1.72C474.59,835.15,476.45,847.69,476.7,861.77Z"/><path class="cls-108" d="M464.27,793.33c-.49-2.59-2.11-4.45-3.62-4.17s-2.35,2.62-1.86,5.21,2.11,4.45,3.62,4.17S464.76,795.92,464.27,793.33Z"/><path class="cls-108" d="M465.47,796.9l7.61-3.27c-.17-4.6-1.4-9.51-3.48-10.41l-7.92,3.64C465.12,787.18,465.38,793.57,465.47,796.9Z"/><rect class="cls-109" x="460.44" y="862.13" width="3.59" height="5.43" transform="translate(-426.8 1278.66) rotate(-86.84)"/><rect class="cls-109" x="476.98" y="857.98" width="3.59" height="5.43" transform="translate(-402.1 1301.24) rotate(-87.48)"/><polygon class="cls-108" points="461.68 786.86 462.88 783.13 466.38 782.66 471.74 784.29 471.1 785.87 461.68 786.86"/><path class="cls-110" d="M466.26,780.39l-4-.06.76,6.18c2,1,3.41.61,4.49-.4Z"/><polygon class="cls-110" points="467.54 786.11 469.18 789.9 464.57 787.27 467.54 786.11"/><polygon class="cls-111" points="462.58 783.13 465.79 786.46 464.8 788.91 461.94 785.81 462.58 783.13"/><rect class="cls-111" x="479.76" y="765.5" width="3.28" height="5.61" transform="translate(-420.72 859.06) rotate(-63.67)"/><path class="cls-103" d="M472,781.29l-.61,1.14h0l-2.28,1-2.25-.68-.54-2.4-4-.06.35,2.86-.06-.06-.64,2.68.06.06-.32,1L459.23,788a2.81,2.81,0,0,0-1.59,3.1c.13.65.25,1.3.38,1.94a15.31,15.31,0,0,0,7.64-2.4C470.13,787.93,472.75,783.94,472,781.29Z"/><path class="cls-112" d="M473,774.84c0-3.73-2.41-11.2-6.24-11.2s-9.51,5.48-9.51,9.22,5,8.75,8.81,8.75S473,779.74,473,774.84Z"/><path class="cls-113" d="M462.7,780.39s-8.52,1.22-8.05-7.36c0,0,1.4-7.4,8.34-9.1C463,763.93,456.51,774.08,462.7,780.39Z"/><path class="cls-112" d="M461.13,775.87a1.49,1.49,0,0,0-2.93.52,1.49,1.49,0,0,0,2.93-.52Z"/><path class="cls-113" d="M462.29,765.51a9,9,0,0,0,.7,10.33l-1.34.17s-2.92-1.81-3.62-4.49C458,771.52,458.27,768.13,462.29,765.51Z"/><path class="cls-114" d="M471.92,774.7a.59.59,0,0,0-.31-.44.55.55,0,0,0-.53,0,11.42,11.42,0,0,1-4,1,1,1,0,0,0-.7.42,1,1,0,0,0-.1.81l.37,1a.46.46,0,0,0,.43.32,5.36,5.36,0,0,0,4.71-2,.81.81,0,0,0,.17-.62Z"/><path class="cls-115" d="M471,778.3c-.07-.19-.46-.24-.86-.1s-.7.4-.63.6.45.25.86.11S471,778.5,471,778.3Z"/><path class="cls-116" d="M466.4,771.11c-.21-.63-.57-1.07-.82-1s-.28.65-.07,1.28.57,1.07.81,1S466.6,771.74,466.4,771.11Z"/><path class="cls-116" d="M470.79,769.59c-.21-.62-.57-1.07-.82-1s-.28.65-.07,1.28.57,1.08.81,1S471,770.22,470.79,769.59Z"/><path class="cls-117" d="M469.84,770.64a1.82,1.82,0,0,0-1.94-.56l-.39.13,1.68,3.18a.75.75,0,0,0,1,.33l.86-.39a.69.69,0,0,0,.36-.44.67.67,0,0,0-.14-.56Z"/><path class="cls-112" d="M470.94,775.25l-.09-.53a.61.61,0,0,0-.13,0,9.71,9.71,0,0,1-3.34.84.72.72,0,0,0-.49.24l.26.74Z"/><path class="cls-112" d="M470.5,772.06c-.25-.33-.57-.52-.71-.42s0,.46.22.79.58.52.71.42S470.76,772.39,470.5,772.06Z"/><path class="cls-113" d="M465.42,768.05l-1.05.69a1.4,1.4,0,0,0-.61.89,1.43,1.43,0,0,0,.21,1.06l.06.1,2.23-1.46Z"/><path class="cls-113" d="M468.59,766.72l1-.17a1.09,1.09,0,0,1,.86.28,1.62,1.62,0,0,1,.49.93l0,.13-2.14.34Z"/><path class="cls-103" d="M471.63,768.64c-1.08-2.69-2.77-5-4.9-5a4.67,4.67,0,0,0-.82.09c-3.08,2.46-8.88,7.42-11.16,11.49.61,3.87,3.58,4.92,5.71,5.16A17.63,17.63,0,0,1,471.63,768.64Z"/><path class="cls-50" d="M456.29,781c.46-3.08,2.48-7.18,5.68-11.06a26.51,26.51,0,0,1,9-7.42C458.15,758,448.62,768.29,456.29,781Z"/><path class="cls-111" d="M480,787.21l-1.71-4.11c-5.13,3.17-10.19,4.3-17.31,5.95a3.07,3.07,0,0,0-2.33,2.49,4.59,4.59,0,0,0,.3,2.56,2.38,2.38,0,0,0,2.9,1.36A70.77,70.77,0,0,0,480,787.21Z"/><rect class="cls-118" x="477.22" y="782.57" width="3.28" height="5.61" transform="translate(-261.58 239.6) rotate(-22.23)"/><path class="cls-119" d="M461.27,818.08l-5.6,2.36,2.62,14c1.48.8,2.31.25,3.42-.53Z"/><path class="cls-51" d="M468.13,762.67a16.73,16.73,0,0,0-8.47-.15c-5.65,2.55-8.16,9.26-4.14,17.08a29.46,29.46,0,0,1,4.24-8.78A26.52,26.52,0,0,1,468.13,762.67Z"/><path class="cls-51" d="M456.9,769.59c.8-1.65,2.44-3.42,1.74-3.76s-2.81.8-3.61,2.45-.84,3.77-.15,4.11S456.09,771.24,456.9,769.59Z"/><path class="cls-51" d="M460.93,764.26c-.11-.27-.56-.33-1-.14s-.7.57-.59.84.57.32,1,.13S461.05,764.52,460.93,764.26Z"/><path class="cls-103" d="M460.48,776.16a.92.92,0,1,0-.92.87A.9.9,0,0,0,460.48,776.16Z"/><polygon class="cls-119" points="464.58 815.08 460.4 818.68 461.03 819.41 465.21 815.81 464.58 815.08"/><path class="cls-46" d="M462.93,813c-.62,0-1.25.09-1.92.12l-.35,3.06c.8,0,1.55-.11,2.27-.18Z"/><path class="cls-46" d="M467.08,812.34a26.52,26.52,0,0,1-3.09.53v3c1.2-.14,2.31-.32,3.4-.55Z"/><path class="cls-46" d="M471,811.15a29.75,29.75,0,0,1-3,1l.3,3a30.77,30.77,0,0,0,3.07-.91Z"/><path class="cls-46" d="M475.94,812.26c.61-.29,1.22-.59,1.87-.92l-.09-3.07-2.12,1Z"/><path class="cls-46" d="M474.76,809.63c-.92.4-1.79.77-2.63,1.11l.37,3q1.26-.49,2.61-1.11Z"/><path class="cls-51" d="M455.67,820.44l2.62,14a2.63,2.63,0,0,0,1.57.37l-1.49-15.51Z"/><path class="cls-120" d="M460.31,819.3l-3.94,1.64.61,1.42c1.78.12,2.42-.61,3.59-1.38Z"/><rect class="cls-121" x="456.9" y="817.11" width="1.84" height="4.81" transform="translate(-126.15 84.55) rotate(-9.28)"/><rect class="cls-51" x="457.5" y="818.47" width="0.89" height="3.44" transform="translate(-146.78 101.35) rotate(-10.9)"/><polygon class="cls-121" points="458.78 815.23 454.91 815.72 455.38 818.18 459.08 817.07 458.78 815.23"/><path class="cls-121" d="M455,815.12l-2.52.16a6.54,6.54,0,0,0,1.09,4.24l2.2-.72A3.73,3.73,0,0,0,455,815.12Z"/><path class="cls-121" d="M461.88,817.33s-.74-2.49-4.46-1.53l.26,1.23C459.63,816,461.85,817.37,461.88,817.33Z"/><path class="cls-51" d="M458.84,815.59l-.06-.36-3.36.42a6.42,6.42,0,0,0-.38-.53l-2.52.16a6.14,6.14,0,0,0,.31,2.63l7.22-2.19A3.71,3.71,0,0,0,458.84,815.59Z"/><polygon class="cls-51" points="454.67 816.87 452.83 817.29 452.99 817.97 454.83 817.55 454.67 816.87"/><polygon class="cls-51" points="458.84 815.84 455.59 816.59 455.75 817.27 458.82 816.32 458.84 815.84"/><path class="cls-119" d="M459.78,825.38a.92.92,0,1,0-.92.92A.92.92,0,0,0,459.78,825.38Z"/><polygon class="cls-112" points="491.37 748.33 489.27 747.98 480.21 766.69 483.22 768.1 491.37 748.33"/><path class="cls-112" d="M493.47,767.58c-4.19,8-8.36,11.35-13.82,15.49l1.46,3.39c6.19-5.61,9.19-9.17,13.77-17.74Z"/><path class="cls-112" d="M496.36,767.25c.63-1.65.48-3.24-.34-3.55s-2,.77-2.62,2.41-.48,3.24.34,3.55S495.73,768.89,496.36,767.25Z"/><path class="cls-112" d="M494.26,763.91c-.25-1.82-1.39-2.83-1.78-2.77s.3,1.12.56,2.94,0,3.7.38,3.64S494.52,765.72,494.26,763.91Z"/><path class="cls-112" d="M495.78,763c.44-1.63.55-4,.2-4.08s-.54,1.41-1,3.05-.51,3-.16,3.13S495.35,764.63,495.78,763Z"/><path class="cls-112" d="M497.18,763.13c.72-1.54,1.25-3.83.92-4s-.79,1.3-1.51,2.83-1,2.9-.71,3S496.47,764.66,497.18,763.13Z"/><path class="cls-112" d="M497.78,765c1.16-1.32,2.33-3.46,2-3.71s-1.15,1.07-2.3,2.39-1.85,2.59-1.57,2.84S496.64,766.35,497.78,765Z"/><path class="cls-112" d="M492.07,747.82c.63-1.65.48-3.24-.34-3.55s-2,.77-2.62,2.42-.48,3.23.34,3.54S491.44,749.47,492.07,747.82Z"/><path class="cls-112" d="M490,744.48c-.26-1.82-1.4-2.82-1.78-2.77s.29,1.12.55,2.94,0,3.7.37,3.65S490.23,746.3,490,744.48Z"/><path class="cls-112" d="M491.5,743.57c.43-1.63.55-4,.2-4.08s-.55,1.42-1,3-.51,3-.16,3.13S491.05,745.21,491.5,743.57Z"/><path class="cls-112" d="M492.89,743.7c.72-1.53,1.25-3.83.92-4s-.79,1.29-1.51,2.82-1,2.9-.7,3.06S492.18,745.23,492.89,743.7Z"/><path class="cls-112" d="M493.5,745.61c1.15-1.33,2.32-3.46,2-3.71s-1.15,1.06-2.3,2.38-1.85,2.6-1.57,2.85S492.35,746.93,493.5,745.61Z"/><path class="cls-105" d="M464.51,878.63c0-1.83-.6-8.57-2.1-8.57s-3.33,6.74-3.33,8.57,1.13,1.57,2.63,1.57S464.51,880.47,464.51,878.63Z"/><path class="cls-122" d="M464.51,877.76c0-1.84-.6-8.58-2.1-8.58s-3.33,6.74-3.33,8.58,1.13,1.57,2.63,1.57S464.51,879.59,464.51,877.76Z"/><path class="cls-51" d="M462.39,876.28c.19-1.06-.2-2-.87-2.14s-1.35.65-1.54,1.71.2,2,.86,2.14S462.2,877.34,462.39,876.28Z"/><rect class="cls-105" x="461.36" y="868.83" width="1.75" height="2.8"/><rect class="cls-105" x="460.78" y="872.33" width="2.57" height="0.82"/><path class="cls-105" d="M483.94,867.72c-2.53-.31-5.74-2.52-5.93-1,0,0,0,.06,0,.09a7.65,7.65,0,0,0-.48,3,1.8,1.8,0,0,0,2,1.51,2.27,2.27,0,0,0,1.16-.3,1.91,1.91,0,0,0,.33.06c2.53.32,8.81,1,9-.51S489.65,867.25,483.94,867.72Z"/><path class="cls-122" d="M483.94,866.91c-2.53-.32-5.74-2.53-5.93-1,0,0,0,.06,0,.09a7.68,7.68,0,0,0-.48,3,1.8,1.8,0,0,0,2,1.51,2.37,2.37,0,0,0,1.16-.29l.33.06c2.53.32,8.81,1,9-.52S489.65,866.44,483.94,866.91Z"/><polygon class="cls-105" points="479.97 865.15 478.62 865.09 481.19 866.96 481.72 866.21 479.97 865.15"/><path class="cls-51" d="M488.72,868.78c0-.39-.88-.76-2-.82s-2.06.19-2.08.58.87.75,2,.81S488.69,869.16,488.72,868.78Z"/><rect class="cls-105" x="481.78" y="866.85" width="1.52" height="0.82" transform="translate(-500.88 1000.91) rotate(-68.65)"/><path class="cls-36" d="M913,844.8c-.72-27.92-38.71-79.09-76.85-78.11s-54.64,50.81-53.92,78.73C813.53,847.9,911.45,854.64,913,844.8Z"/><g class="cls-123"><path class="cls-124" d="M873.39,795.19a104.4,104.4,0,0,0,4.79-10.56c-12.57-10.87-27.3-18.32-42.06-17.94-36.67.95-53.32,47-53.91,75.38C814.43,852.45,853.57,833.07,873.39,795.19Z"/></g></g></g></g></svg>