<svg xmlns="http://www.w3.org/2000/svg" viewBox="0 0 81.55 263.08"><defs><style>.cls-1{fill:#fff;}</style></defs><title>ANERSPANER</title><g id="Layer_2" data-name="Layer 2"><g id="Capa_1" data-name="Capa 1"><path class="cls-1" d="M19.33,207.74a30.41,30.41,0,0,1,21.84-8.45L41,205.67a24.2,24.2,0,0,0-24.77,23.64l-6.39-.15A30.36,30.36,0,0,1,19.33,207.74Z"/><path class="cls-1" d="M40.78,76.37c-4.25,0-7.7,3.08-7.7,6.88v96.59c0,3.8,3.45,6.89,7.7,6.89s7.7-3.09,7.7-6.89V83.25C48.48,79.45,45,76.37,40.78,76.37ZM39.46,179.84V83.28a1.56,1.56,0,0,1,1.32-.53,1.64,1.64,0,0,1,1.31.5v96.57a1.58,1.58,0,0,1-1.31.52A1.67,1.67,0,0,1,39.46,179.84Z"/><path class="cls-1" d="M41.12,71h-.74l.15-6.38A24.27,24.27,0,0,0,65.32,41l6.38.15A30.64,30.64,0,0,1,41.12,71Z"/><path class="cls-1" d="M55,189.34c0-.2,0-.38,0-.57V76.21A11.3,11.3,0,0,0,54.83,74a37.44,37.44,0,0,0,1-69.09V39.2H26V4.87A37.43,37.43,0,0,0,27,74a12.12,12.12,0,0,0-.21,2.25V188.77c0,.1,0,.2,0,.32a37.43,37.43,0,0,0-1.13,69.13V223.88H55.52v34.34a37.43,37.43,0,0,0-.5-68.88ZM58.71,253V220.69H22.52V253A34.23,34.23,0,0,1,28,192.06l2-.8v-2.17c0-.13,0-.25,0-.39V76.21a8.56,8.56,0,0,1,.16-1.66L30.67,72l-2.44-1a34.23,34.23,0,0,1-5.39-60.85V42.39H59V10.14A34.24,34.24,0,0,1,53.65,71l-2.46,1,.51,2.6a8.29,8.29,0,0,1,.16,1.64V188.87c0,.11,0,.22,0,.34l-.09,2.22,2,.85A34.24,34.24,0,0,1,58.71,253Z"/><path class="cls-1" d="M58.24,187.28V76a40.63,40.63,0,0,0-1.12-74L52.66,0V36H29.22V0L24.76,1.94a40.62,40.62,0,0,0-1.12,74V187a40.62,40.62,0,0,0,.8,74.16l4.46,1.93v-36H52.33v36l4.46-1.93a40.63,40.63,0,0,0,1.45-73.87ZM58.71,253V220.69H22.52V253A34.23,34.23,0,0,1,28,192.06l2-.8v-2.17c0-.13,0-.25,0-.39V76.21a8.56,8.56,0,0,1,.16-1.66L30.67,72l-2.44-1a34.23,34.23,0,0,1-5.39-60.85V42.39H59V10.14A34.24,34.24,0,0,1,53.65,71l-2.46,1,.51,2.6a8.29,8.29,0,0,1,.16,1.64V188.87c0,.11,0,.22,0,.34l-.09,2.22,2,.85A34.24,34.24,0,0,1,58.71,253Z"/><path class="cls-1" d="M44,80.64a5,5,0,0,0-3.18-1.08c-2.5,0-4.51,1.65-4.51,3.69v96.59a3.37,3.37,0,0,0,1.32,2.61,5,5,0,0,0,3.19,1.08c2.49,0,4.5-1.65,4.5-3.69V83.25A3.37,3.37,0,0,0,44,80.64Zm-1.87,99.18a1.58,1.58,0,0,1-1.31.52,1.67,1.67,0,0,1-1.32-.5V83.28a1.56,1.56,0,0,1,1.32-.53,1.64,1.64,0,0,1,1.31.5Z"/><path class="cls-1" d="M40.78,76.37c-4.25,0-7.7,3.08-7.7,6.88v96.59c0,3.8,3.45,6.89,7.7,6.89s7.7-3.09,7.7-6.89V83.25C48.48,79.45,45,76.37,40.78,76.37ZM39.46,179.84V83.28a1.56,1.56,0,0,1,1.32-.53,1.64,1.64,0,0,1,1.31.5v96.57a1.58,1.58,0,0,1-1.31.52A1.67,1.67,0,0,1,39.46,179.84Z"/><path class="cls-1" d="M71.7,41.16A30.64,30.64,0,0,1,41.12,71h-.74l.15-6.38A24.27,24.27,0,0,0,65.32,41Z"/><path class="cls-1" d="M41.17,199.29,41,205.67a24.2,24.2,0,0,0-24.77,23.64l-6.39-.15a30.6,30.6,0,0,1,31.31-29.87Z"/></g></g></svg>