<svg xmlns="http://www.w3.org/2000/svg" viewBox="0 0 241.21 210.04"><defs><style>.cls-1{fill:#fff;}</style></defs><title>BRAIN</title><g id="Layer_2" data-name="Layer 2"><g id="Capa_1" data-name="Capa 1"><path class="cls-1" d="M113.17,187.36l.17-174.93-1.24-1A46,46,0,0,0,58.25,9.15c-11.13,7.44-16.8,18.71-15.52,30.24-14.5-1.22-25,7.47-30.22,16.66C6.83,66,6.22,77.2,10.64,84.61,4.33,89.71.43,98.34,0,108.43c-.43,11,3.42,21.09,10.18,27-5.21,11-4.14,23.25,3,32.38C20,176.52,30.55,180.36,42,178.53c.32,0,.64-.1,1-.16.17.79.36,1.56.57,2.33,3.24,11.74,11.44,20.75,23.58,25.72A49,49,0,0,0,85.54,210c8.11,0,15.7-2.08,20.85-6.12A17.33,17.33,0,0,0,113.17,187.36Zm-10.72,11.5c-7.22,5.66-21.35,6.37-32.87,1.65-6.86-2.8-18.69-10-20.83-26.43l-.47-3.66-.11,0-3.44,1a29.89,29.89,0,0,1-3.36.75c-9.29,1.56-17.76-1.41-23.12-8.26-5.81-7.42-6.48-17.5-1.84-26.58.2-.4.41-.79.63-1.18l1.45-2.56-2.43-1.65a17.73,17.73,0,0,1-1.7-1.33c-5.23-4.66-8.3-13-7.95-21.93.37-9.37,4.24-17.05,10.35-20.55l3.51-2L17.5,83.18c-4.64-5-4.4-15.25.56-24,2.23-3.93,10.81-16.44,27.61-12.93l.35.07,5.17,1.13-1.41-5.1a23.62,23.62,0,0,1-.86-6C48.84,28,53.39,20.08,61.8,14.46A39.62,39.62,0,0,1,107,15.58l0,24.69v8.19l0,37.2v7l0,34.82v7l0,53.07v.24l0,.23A10.92,10.92,0,0,1,102.45,198.86Z"/><path class="cls-1" d="M71.43,64.89C56.8,62.26,45,51,42.67,37.38L49,36.31c1.85,11,11.55,20.14,23.59,22.29Z"/><path class="cls-1" d="M95.65,51a33.52,33.52,0,0,1-12.29-2.37c-10.4-4.2-16-12.58-14.52-21.87l6.31,1c-1.46,9.33,7.74,13.81,10.6,15,8.5,3.43,17.86,2.28,21.3-2.62l5.22,3.67C108.68,48.89,102.28,51,95.65,51Z"/><path class="cls-1" d="M43.16,75.57l-2.35-5.94c4.39-1.74,12-9.45,12-14.29l6.38,0C59.16,64,48.79,73.34,43.16,75.57Z"/><path class="cls-1" d="M55.78,115.92a13.46,13.46,0,0,1-3.88-.59c-5.74-1.71-8.4-6.42-10.76-10.57-1.79-3.18-3.49-6.17-6.33-7.61l2.88-5.7c4.56,2.31,6.93,6.48,9,10.16s3.75,6.63,7,7.6c5.69,1.7,9.26-4.11,13.33-11.89l.31-.59C73.55,84.91,83,80.17,96.1,82.24c4.45.7,11.62,3.68,13.73,4.74l-2.89,5.7a56.85,56.85,0,0,0-11.83-4.13C84.72,86.92,77.91,90.35,73,99.69l-.3.59C69.56,106.32,64.54,115.92,55.78,115.92Z"/><path class="cls-1" d="M32,99.39a9.25,9.25,0,0,1-7.2-3.72l5-4C31.05,93.22,32.06,93,32.4,93a4.64,4.64,0,0,0,3.13-3.19,3.92,3.92,0,0,0-.94-4.11l4.59-4.43a10.21,10.21,0,0,1,2.43,10.49,10.88,10.88,0,0,1-8,7.52A8.2,8.2,0,0,1,32,99.39Z"/><path class="cls-1" d="M78.37,184.53a18.27,18.27,0,0,1-3.07-.26l1-6.29c5,.81,8.29-1.18,9.9-5.92,1.43-4.17.06-8.15-1.54-12.75-1.72-5-3.66-10.58-1.7-16.89,2.15-6.91,9-13.41,15.92-15.13a13.91,13.91,0,0,1,13.63,3.7L108,135.51a7.56,7.56,0,0,0-7.59-2c-4.77,1.18-9.87,6-11.36,10.83-1.33,4.3.11,8.48,1.65,12.91,1.72,5,3.68,10.64,1.55,16.9C90,180.79,84.92,184.53,78.37,184.53Z"/><path class="cls-1" d="M42.84,181c-5.19-13.58,3.86-20,11.14-25.24,9.34-6.66,17.4-12.42,6.9-31.83l5.62-3c13.18,24.37.47,33.44-8.81,40.07-8.1,5.77-12.16,9.19-8.89,17.76Z"/><path class="cls-1" d="M45,138.23a24.21,24.21,0,0,1-3.76-1.63c-2.73-1.35-6.46-3.19-9.59-3.39-7.93-.49-13,.94-15,4.25l-5.45-3.33c3.36-5.48,10.37-7.93,20.85-7.29,4.41.28,8.8,2.45,12,4a26,26,0,0,0,2.64,1.21Z"/><path class="cls-1" d="M240.09,125.7l1.12-34.47-17.67-.58a88.43,88.43,0,0,0-3.46-12.26l16-8.76L219.47,39.39,202.31,48.8a90.87,90.87,0,0,0-8.44-8.21L204,23.43,174.35,5.85l-10.54,17.8a88.67,88.67,0,0,0-10.88-2.84V0H132.66V210h20.27v-13.1a88.8,88.8,0,0,0,10.61-2.75l6.21,11.66,30.45-16.17-6.55-12.33a92.14,92.14,0,0,0,9.26-9L215,176l18.54-29.09-13.15-8.38a88.82,88.82,0,0,0,3.56-13.37Zm-15.38,23.16L213,167.19l-11.4-7.27-1.8,2.16a84.94,84.94,0,0,1-12.22,12l-2.07,1.65,6,11.33-19.17,10.19-5.79-10.88-2.61.94a82.31,82.31,0,0,1-14.76,3.84l-2.68.44v12.1H139V6.38h7.51V26.19l2.67.44a83,83,0,0,1,14.92,3.89l2.49.9,10-16.82,18.69,11.07-9.7,16.4,2.16,1.73a84.45,84.45,0,0,1,11.43,11.1l1.68,2,16.09-8.82,10.45,19-15.3,8.38,1,2.63a82.45,82.45,0,0,1,4.6,16.2l.46,2.55,16.42.54-.7,21.71-15.4-.52-.42,2.81a82.34,82.34,0,0,1-4.59,17.3l-.93,2.43Z"/><path class="cls-1" d="M139,43.67c-1-.06-2.12-.09-3.19-.09V63c1.07,0,2.13,0,3.19.13A42.06,42.06,0,0,1,139,147c-1.06.08-2.12.13-3.19.13v19.37c1.07,0,2.14,0,3.19-.09a61.44,61.44,0,0,0,0-122.69Zm0,119.49v-13a45.25,45.25,0,0,0,0-90.26v-13a58.24,58.24,0,0,1,0,116.29Z"/><path class="cls-1" d="M139,40.47c-1,0-2.11-.08-3.18-.08h-3.2V66.14h3.18c1.08,0,2.15,0,3.2.14a38.88,38.88,0,0,1,0,77.46c-1,.09-2.12.14-3.2.14h-3.18v25.75h3.2q1.6,0,3.18-.09a64.63,64.63,0,0,0,0-129.08Zm0,122.69v-13a45.25,45.25,0,0,0,0-90.26v-13a58.24,58.24,0,0,1,0,116.29Z"/></g></g></svg>