<svg xmlns="http://www.w3.org/2000/svg" viewBox="0 0 146.69 273.76"><defs><style>.cls-1{fill:#fff;}</style></defs><title>COMPASS</title><g id="Layer_2" data-name="Layer 2"><g id="Capa_1" data-name="Capa 1"><path class="cls-1" d="M65.52,77.38l-1.06,3-1,3-11.5,33.06c.52.12,1.05.23,1.57.33q2.37.48,4.77.84l11.27-32.4,1.07-3.06,1.07-3.07A20.86,20.86,0,0,1,65.52,77.38Zm0,0-1.06,3-1,3-11.5,33.06-2.11,6.07L31.88,174l-1.09,3.14-1.12,3.23a14,14,0,0,1,4.19,7.35l1.67-4.8,1.36-3.91,19.23-55.26,2.13-6.13,11.27-32.4,1.07-3.06,1.07-3.07A20.86,20.86,0,0,1,65.52,77.38ZM20.17,207.71l-1.1,3.15-4.25,12.22L6.38,241.53V219.67l3.54-11.62,1-3.16,1-3.21a13.91,13.91,0,0,1-4.7-6.45L5.8,199.71l-1.17,3.81L0,218.72v52.1L20.69,225.6,26.1,210l1.37-3.91h0l1.67-4.8a13.76,13.76,0,0,1-7.85,3.16Zm.26-34.15,1-3.15,15.71-51.56L39,112.74,51.05,73.12,52.31,69l1.46-4.79a21.7,21.7,0,0,1,2.62-18.65l-3.1-1.09-.16-.05-.2.64L49.61,56l-2.48,8.12L33,110.35l-1.87,6.14L14.48,171.22,13.31,175,12,179.52a13.86,13.86,0,0,1,7.51-2.74Z"/><path class="cls-1" d="M116.21,116.19l-1.75-6.2-12.8-45.22-2.27-8L96.13,45.23l-.24-.84-.22.08-3.1,1.08A21.64,21.64,0,0,1,95,64.71l1.36,4.81,1.17,4.12,11,38.8,1.74,6.15,30,106.09L140,238.59,99.13,122,97,116,85.6,83.4l-1.06-3-1.06-3a21.11,21.11,0,0,1-6.14,1.77l1.07,3.07,1.07,3,11.23,32,2.13,6.1,52.67,150.37,1.18-49.9Z"/><path class="cls-1" d="M99.39,56.76a24.65,24.65,0,0,0-3.26-11.53,8.53,8.53,0,0,0-.46-.76,24.85,24.85,0,0,0-9.68-9,24,24,0,0,0-3.2-1.4c-.65-.23-1.31-.43-2-.61l-.63-.15a21.68,21.68,0,0,0-2.3-.42,4.81,4.81,0,0,0-.65-.08l-.37,0-.7-.05-.46,0c-.4,0-.81,0-1.22,0s-.82,0-1.22,0l-.46,0-.7.05-.37,0a4.81,4.81,0,0,0-.65.08,5,5,0,0,0-.66.1l-.5.08a4.52,4.52,0,0,0-.53.11c-.42.08-.83.17-1.24.28-.67.18-1.33.38-2,.61a23.32,23.32,0,0,0-3.2,1.4,24.82,24.82,0,0,0-9.68,9c-.13.19-.25.39-.36.59A24.45,24.45,0,0,0,49.61,56c0,.53-.06,1.07-.06,1.61A24.92,24.92,0,0,0,64.46,80.41a24.34,24.34,0,0,0,6.13,1.79,23.84,23.84,0,0,0,3.89.31,25.42,25.42,0,0,0,3.93-.31,24.5,24.5,0,0,0,6.13-1.81A24.91,24.91,0,0,0,99.41,57.58C99.41,57.3,99.41,57,99.39,56.76ZM83.48,77.36a21.11,21.11,0,0,1-6.14,1.77,20.71,20.71,0,0,1-2.86.19,20.14,20.14,0,0,1-2.82-.19,20.86,20.86,0,0,1-6.14-1.75,21.71,21.71,0,0,1-12.78-19.8,21.53,21.53,0,0,1,3.65-12A21.8,21.8,0,0,1,67,37.17l.22-.08a20.32,20.32,0,0,1,2.67-.75l.72-.14.3-.06.8-.11c.28,0,.56-.07.85-.09a20.63,20.63,0,0,1,3.85,0l.77.08.16,0,.59.09.59.1.48.1h.06c.63.14,1.25.3,1.86.49l1,.34a21.83,21.83,0,0,1,10.63,8.38A21.64,21.64,0,0,1,95,64.71,21.82,21.82,0,0,1,83.48,77.36Z"/><path class="cls-1" d="M81.73,37.09l-.8-.26,1,.34Zm-2.66-.75c.63.14,1.25.3,1.86.49C80.32,36.64,79.7,36.47,79.07,36.34ZM86,31.94a25.08,25.08,0,0,0-3.2-1.21,26.93,26.93,0,0,0-3.7-.88,5.07,5.07,0,0,0-.54-.09c-.86-.12-1.74-.21-2.63-.25-.47,0-1,0-1.44,0s-1,0-1.45,0c-.88,0-1.76.13-2.62.25a5.07,5.07,0,0,0-.54.09,26.93,26.93,0,0,0-3.7.88A25.08,25.08,0,0,0,63,31.94,28.13,28.13,0,0,0,46.36,57.58a27.43,27.43,0,0,0,.77,6.51,27.76,27.76,0,0,0,3.92,9A28.2,28.2,0,0,0,63.41,83.43a27.83,27.83,0,0,0,16.07,1.82A26.58,26.58,0,0,0,85.6,83.4a28.23,28.23,0,0,0,16.06-18.63,27.58,27.58,0,0,0,.94-7.19A28.14,28.14,0,0,0,86,31.94Zm9,32.77A21.82,21.82,0,0,1,83.48,77.36a21.11,21.11,0,0,1-6.14,1.77,20.71,20.71,0,0,1-2.86.19,20.14,20.14,0,0,1-2.82-.19,20.86,20.86,0,0,1-6.14-1.75,21.71,21.71,0,0,1-12.78-19.8,21.53,21.53,0,0,1,3.65-12A21.8,21.8,0,0,1,67,37.17l.22-.08a20.32,20.32,0,0,1,2.67-.75c.24-.06.48-.1.72-.14l.3-.06.8-.11c.28,0,.56-.07.85-.09a20.63,20.63,0,0,1,3.85,0l.77.08.16,0,.59.09.59.1.48.1h.06c.63.14,1.25.3,1.86.49l1,.34a21.83,21.83,0,0,1,10.63,8.38A21.64,21.64,0,0,1,95,64.71Z"/><path class="cls-1" d="M73.34,125.18A106.26,106.26,0,0,1,1,96.88l4.34-4.69a100.15,100.15,0,0,0,136,0l4.33,4.69A106.24,106.24,0,0,1,73.34,125.18Z"/><rect class="cls-1" x="71.29" y="102.07" width="6.38" height="31.67"/><path class="cls-1" d="M74.48,3.19a8.31,8.31,0,0,0-8.31,8.32V34.08c.65-.23,1.31-.43,2-.61.41-.11.82-.2,1.24-.28a4.52,4.52,0,0,1,.53-.11,4.33,4.33,0,0,1,.5-.08,5,5,0,0,1,.66-.1,4.81,4.81,0,0,1,.65-.08l.37,0,.7-.05.46,0c.4,0,.81,0,1.22,0s.82,0,1.22,0l.46,0,.7.05.37,0a4.81,4.81,0,0,1,.65.08,21.68,21.68,0,0,1,2.3.42l.63.15c.67.18,1.33.38,2,.61V11.51A8.32,8.32,0,0,0,74.48,3.19Zm4.07,26.57a25.45,25.45,0,0,0-2.63-.25c-.47,0-1,0-1.44,0s-1,0-1.45,0a25.25,25.25,0,0,0-2.62.25,5.07,5.07,0,0,0-.54.09l-.51.08V11.51a5.12,5.12,0,1,1,10.24,0V29.93l-.51-.08A5.07,5.07,0,0,0,78.55,29.76Z"/><path class="cls-1" d="M74.48,0A11.52,11.52,0,0,0,63,11.51V38.6l4-1.43.22-.08a20.32,20.32,0,0,1,2.67-.75l.72-.14.3-.06.8-.11c.28,0,.56-.07.85-.09a20.63,20.63,0,0,1,3.85,0l.77.08.16,0,.59.09.59.1.48.1h.06c.63.13,1.25.3,1.86.49l.8.26.21.08,4,1.43V11.51A11.53,11.53,0,0,0,74.48,0Zm4.07,29.76a25.45,25.45,0,0,0-2.63-.25c-.47,0-1,0-1.44,0s-1,0-1.45,0a25.25,25.25,0,0,0-2.62.25,5.07,5.07,0,0,0-.54.09l-.51.08V11.51a5.12,5.12,0,1,1,10.24,0V29.93l-.51-.08A5.07,5.07,0,0,0,78.55,29.76Z"/><path class="cls-1" d="M35.53,183a17.26,17.26,0,0,0-4.74-5.78,17,17,0,0,0-10.36-3.62h-.15A17.07,17.07,0,0,0,3.19,190.65a17.11,17.11,0,0,0,17,17.06h.11a17.08,17.08,0,0,0,7.19-1.58h0A17.08,17.08,0,0,0,35.53,183Zm-6.39,18.36a13.76,13.76,0,0,1-7.85,3.16c-.33,0-.67,0-1,0a13.88,13.88,0,0,1-.82-27.74c.27,0,.55,0,.82,0a13.86,13.86,0,0,1,9.39,3.66,14,14,0,0,1,4.19,7.35,13.89,13.89,0,0,1-4.72,13.56Z"/><path class="cls-1" d="M36.89,179.05a20.31,20.31,0,0,0-15.49-8.64c-.37,0-.74,0-1.12,0a19.85,19.85,0,0,0-5.8.85,20.25,20.25,0,0,0-4.56,36.83,20,20,0,0,0,9.15,2.81c.4,0,.8,0,1.21,0A20,20,0,0,0,26.1,210a20.23,20.23,0,0,0,10.79-31Zm-7.75,22.27a13.76,13.76,0,0,1-7.85,3.16c-.33,0-.67,0-1,0a13.88,13.88,0,0,1-.82-27.74c.27,0,.55,0,.82,0a13.86,13.86,0,0,1,9.39,3.66,14,14,0,0,1,4.19,7.35,13.89,13.89,0,0,1-4.72,13.56Z"/></g></g></svg>