<svg xmlns="http://www.w3.org/2000/svg" viewBox="0 0 354.77 216.77"><defs><style>.cls-1{fill:#fff;}</style></defs><title>HAND</title><g id="Layer_2" data-name="Layer 2"><g id="Capa_1" data-name="Capa 1"><path class="cls-1" d="M233.9,192.09A10.86,10.86,0,1,1,223,181.24,10.87,10.87,0,0,1,233.9,192.09Z"/><path class="cls-1" d="M128.56,170.61v43H240.35v-43Zm108.6,39.77H131.75V173.8H237.16Z"/><path class="cls-1" d="M125.37,167.42v49.35H243.54V167.42Zm111.79,43H131.75V173.8H237.16Z"/><path class="cls-1" d="M251.59,43.73h0a11.34,11.34,0,0,1-1.82,6.12,11.3,11.3,0,0,1-2.9,3,11.24,11.24,0,0,1-15.94-3.06,10.76,10.76,0,0,1-1.33-2.9,2.46,2.46,0,0,1-.09-.29,11.14,11.14,0,0,1-.38-2.9h-6.38a11.09,11.09,0,0,1-.39,2.9l-.09.29a11.21,11.21,0,0,1-20.14,2.9,11,11,0,0,1-1.44-3.19,11.51,11.51,0,0,1-.38-2.36h0l-.71.1-2.44.31h0l-.92.12-2.22.28h-.06l-1.11.14c-.11.45-.24.91-.37,1.39a32.33,32.33,0,0,1-1.14,3.19,24.62,24.62,0,0,1-1.49,3.06,21.15,21.15,0,0,1-2.21,3.19,18,18,0,0,1-3.43,3.19,13.71,13.71,0,0,1-1.26.83,18,18,0,0,1-5.14,2H136.2A3.19,3.19,0,0,0,133,64.89,3.14,3.14,0,0,0,133.1,66a3.18,3.18,0,0,0,2.26,2.36,24.65,24.65,0,0,1,2.34.83A42.79,42.79,0,0,1,144,72.42,44.32,44.32,0,0,1,151.44,78c10.33,9.77,14.49,23.31,12.35,40.25l3.17.4,3.17.4c3-23.91-6.11-38.33-15.52-46.67h97v41.86a22.72,22.72,0,0,1-8,17l-14.19,12.3v23.8H140.67V142l-.73-.69-.21-.2-.06-.06a157.58,157.58,0,0,1-29.19-40.24c-.1-.21-.21-.41-.31-.62l-.5-1,0-.08,0-.07-.44-.92q-.22-.46-.42-.9l-.18-.4c-.26-.56-.51-1.1-.74-1.62a2.29,2.29,0,0,1-.1-.23c-.11-.25-.22-.49-.32-.73-.5-1.11-.93-2.14-1.31-3.06-.22-.53-.42-1-.6-1.48-.1-.23-.18-.45-.26-.66l-.19-.48c-.05-.12-.09-.23-.13-.34l-.12-.32q-.2-.51-.33-.9a.06.06,0,0,1,0,0c-.1-.26-.17-.46-.22-.62l-.09-.27h0a30.33,30.33,0,0,1,.26-13.62c.27-1.12.59-2.18.94-3.19s.83-2.2,1.29-3.19a37.42,37.42,0,0,1,4-6.78c.34-.44.59-.75.73-.91l2.7-2.28.9-.76-5.84.76,0,0-.07.07a24.86,24.86,0,0,0-2.64,3.09A33.07,33.07,0,0,0,102.55,66a32.12,32.12,0,0,0-1.15,3.19,29.73,29.73,0,0,0-.8,3.19,33.12,33.12,0,0,0,.45,14.45s.06.19.19.56c.07.22.17.51.3.85q.06.19.15.42c0,.13.09.27.15.41q.21.6.51,1.35c.09.23.18.47.28.71.25.64.53,1.35.85,2.11a0,0,0,0,0,0,0c.21.5.44,1,.67,1.6h0l.87,2c.1.23.21.46.32.7.24.53.49,1.07.76,1.63l.5,1c.4.83.83,1.7,1.28,2.59a.83.83,0,0,1,.07.13c.18.35.37.71.55,1.08,5.78,11.28,15.16,26.29,29,39.32v27.24h95.09V145.08l13-11.23s9.3-7.17,9.24-19.58V66H186.55a17.6,17.6,0,0,0,10.33-6.78h6.41a17.54,17.54,0,0,0,16.42,0h12.35a17.54,17.54,0,0,0,16.57,0h.85a7.89,7.89,0,0,0,5.28-2V43.73Z"/><path class="cls-1" d="M229.58,46.92h-7.33l.09-.29a11.09,11.09,0,0,0,.39-2.9V40.54h6.38v3.19a11.14,11.14,0,0,0,.38,2.9A2.46,2.46,0,0,0,229.58,46.92Z"/><path class="cls-1" d="M258,66v48.23c.07,13.3-9.31,21.17-10.39,22l-11.79,10.23V173.8H134.28V144.74c-14.61-14.1-24.2-30.14-29.82-41.59-.26-.51-.51-1-.73-1.49-.14-.3-.29-.6-.43-.89a126.81,126.81,0,0,1-5.1-12.34L98.06,88a.83.83,0,0,0,0-.12s0-.06,0-.08a2.5,2.5,0,0,1-.07-.26,36.31,36.31,0,0,1-.59-15.13,32.5,32.5,0,0,1,.71-3.19c.31-1.12.66-2.18,1-3.19a36.29,36.29,0,0,1,3.7-7.19,33.73,33.73,0,0,1,2.06-2.8A21,21,0,0,1,106.73,54l.07-.08.19-.19,2.16,2.35,2.17,2.34h0c-.08.07-.37.36-.81.84A28.72,28.72,0,0,0,106,66a28.68,28.68,0,0,0-2.18,6.38A30,30,0,0,0,104.12,86a.17.17,0,0,0,0,.05h0l.09.27c0,.16.12.36.22.62a.06.06,0,0,0,0,0q.14.39.33.9l.12.32c0,.11.08.22.13.34l.19.48c.08.21.16.43.26.66.18.46.38.95.6,1.48.38.92.81,2,1.31,3.06.1.24.21.48.32.73a2.29,2.29,0,0,0,.1.23c.23.52.48,1.06.74,1.62l.18.4q.2.43.42.9l.44.92,0,.07,0,.08.5,1c.1.21.21.41.31.62,5.58,11.21,15,26.87,29.19,40.24l.06.06.21.2.73.69v25.42h88.71v-23.8l14.19-12.3a22.72,22.72,0,0,0,8-17V66Z"/><path class="cls-1" d="M258,40.54v3.19a17.46,17.46,0,0,1-.86,5.44,7.87,7.87,0,0,1-2.33,8.07A8,8,0,0,1,251.57,59V46.92h-.47a10.85,10.85,0,0,0,.47-3.19V40.54Z"/><path class="cls-1" d="M312.83,83.68l-.16,6.38a38.35,38.35,0,0,1-37.39-39.19l6.38.15A32,32,0,0,0,312.83,83.68Z"/><path class="cls-1" d="M51.34,12.64,51.19,19A32,32,0,0,1,82.35,51.69l6.38.15A38.34,38.34,0,0,0,51.34,12.64Zm0,0L51.19,19A32,32,0,0,1,82.35,51.69l6.38.15A38.34,38.34,0,0,0,51.34,12.64Zm0,0L51.19,19A32,32,0,0,1,82.35,51.69l6.38.15A38.34,38.34,0,0,0,51.34,12.64Zm0,0L51.19,19A32,32,0,0,1,82.35,51.69l6.38.15A38.34,38.34,0,0,0,51.34,12.64Zm0,0L51.19,19A32,32,0,0,1,82.35,51.69l6.38.15A38.34,38.34,0,0,0,51.34,12.64Zm0,0L51.19,19A32,32,0,0,1,82.35,51.69l6.38.15A38.34,38.34,0,0,0,51.34,12.64Zm0,0L51.19,19A32,32,0,0,1,82.35,51.69l6.38.15A38.34,38.34,0,0,0,51.34,12.64Zm0,0L51.19,19A32,32,0,0,1,82.35,51.69l6.38.15A38.34,38.34,0,0,0,51.34,12.64Zm0,0L51.19,19A32,32,0,0,1,82.35,51.69l6.38.15A38.34,38.34,0,0,0,51.34,12.64Zm0,0L51.19,19A32,32,0,0,1,82.35,51.69l6.38.15A38.34,38.34,0,0,0,51.34,12.64Zm0,0L51.19,19A32,32,0,0,1,82.35,51.69l6.38.15A38.34,38.34,0,0,0,51.34,12.64Zm0,0L51.19,19A32,32,0,0,1,82.35,51.69l6.38.15A38.34,38.34,0,0,0,51.34,12.64Zm0,0L51.19,19A32,32,0,0,1,82.35,51.69l6.38.15A38.34,38.34,0,0,0,51.34,12.64Zm0,0L51.19,19A32,32,0,0,1,82.35,51.69l6.38.15A38.34,38.34,0,0,0,51.34,12.64Zm0,0L51.19,19A32,32,0,0,1,82.35,51.69l6.38.15A38.34,38.34,0,0,0,51.34,12.64Zm0,0L51.19,19A32,32,0,0,1,82.35,51.69l6.38.15A38.34,38.34,0,0,0,51.34,12.64Zm0,0L51.19,19A32,32,0,0,1,82.35,51.69l6.38.15A38.34,38.34,0,0,0,51.34,12.64Zm0,0L51.19,19A32,32,0,0,1,82.35,51.69l6.38.15A38.34,38.34,0,0,0,51.34,12.64Zm0,0L51.19,19A32,32,0,0,1,82.35,51.69l6.38.15A38.34,38.34,0,0,0,51.34,12.64Zm0,0L51.19,19A32,32,0,0,1,82.35,51.69l6.38.15A38.34,38.34,0,0,0,51.34,12.64Zm0,0L51.19,19A32,32,0,0,1,82.35,51.69l6.38.15A38.34,38.34,0,0,0,51.34,12.64Zm0,0L51.19,19A32,32,0,0,1,82.35,51.69l6.38.15A38.34,38.34,0,0,0,51.34,12.64Zm0,0L51.19,19A32,32,0,0,1,82.35,51.69l6.38.15A38.34,38.34,0,0,0,51.34,12.64Zm0,0L51.19,19A32,32,0,0,1,82.35,51.69l6.38.15A38.34,38.34,0,0,0,51.34,12.64Zm0,0L51.19,19A32,32,0,0,1,82.35,51.69l6.38.15A38.34,38.34,0,0,0,51.34,12.64Zm0,0L51.19,19A32,32,0,0,1,82.35,51.69l6.38.15A38.34,38.34,0,0,0,51.34,12.64Zm0,0L51.19,19A32,32,0,0,1,82.35,51.69l6.38.15A38.34,38.34,0,0,0,51.34,12.64ZM232.06,59.26a17.54,17.54,0,0,0,16.57,0Zm-4.27-3.19a17,17,0,0,1-1.88-2.27A17.11,17.11,0,0,1,224,56.07a17.79,17.79,0,0,1-4.31,3.19h12.35A17.38,17.38,0,0,1,227.79,56.07Zm-24.5,3.19a17.54,17.54,0,0,0,16.42,0ZM51.34,12.64,51.19,19A32,32,0,0,1,82.35,51.69l6.38.15A38.34,38.34,0,0,0,51.34,12.64Zm0,0L51.19,19A32,32,0,0,1,82.35,51.69l6.38.15A38.34,38.34,0,0,0,51.34,12.64ZM257.09,49.17a17.73,17.73,0,0,1-5.52,8.11V47.12a3.9,3.9,0,0,0-.47-.2,10.86,10.86,0,0,1-1.35,2.93,1.53,1.53,0,0,1-.27,3h-2.63a11.21,11.21,0,0,1-13,0H229.2a14.46,14.46,0,0,1-1.52-2.24c-.14-.27-.28-.54-.4-.82,0,0,0,0,0,0s-.13-.28-.19-.43-.18-.42-.26-.64-.07-.2-.1-.3,0,0,0,0a4.5,4.5,0,0,1-.16-.48c-.1-.32-.19-.65-.26-1h-.72a9.41,9.41,0,0,1-.25.91q-.08.29-.18.57c0,.12-.08.24-.13.36a10.86,10.86,0,0,1-.45,1.06h-.73c.1.27.2.54.32.81-.11.2-.22.4-.34.59s-.18.29-.28.43a4.43,4.43,0,0,1-.29.42l-.29.4c-.1.13-.2.27-.31.39l0,0h-4.67a11.19,11.19,0,0,1-12.88,0H200.4c-.16-.19-.31-.39-.46-.58,0,.19-.08.39-.13.58a16.35,16.35,0,0,1-1,3,1.42,1.42,0,0,1-.08.18,17.45,17.45,0,0,1-1.85,3.19h6.41a17.54,17.54,0,0,0,16.42,0h12.35a17.54,17.54,0,0,0,16.57,0h.85a7.89,7.89,0,0,0,5.28-2,7.87,7.87,0,0,0,2.33-8.07ZM51.34,12.64,51.19,19A32,32,0,0,1,82.35,51.69l6.38.15A38.34,38.34,0,0,0,51.34,12.64ZM305.9,32.45h44a48,48,0,0,0-88.26.66c-.24,0-.47,0-.73,0h-9.33V43.73a11.34,11.34,0,0,1-1.82,6.12,11.3,11.3,0,0,1-2.9,3,11.24,11.24,0,0,1-15.94-3.06,10.76,10.76,0,0,1-1.33-2.9,2.46,2.46,0,0,1-.09-.29,11.14,11.14,0,0,1-.38-2.9V33.07h-6.38V43.73a11.09,11.09,0,0,1-.39,2.9l-.09.29a11.21,11.21,0,0,1-20.14,2.9,11,11,0,0,1-1.44-3.19,11.51,11.51,0,0,1-.38-2.36c0-.19,0-.39,0-.58V33.07h-6.39v1.14H171.43V33.07h-8.3v1.14H140.67V33.07H96.27a15.24,15.24,0,0,0-2.88.27A48,48,0,0,0,4.88,32.05h44v38.2h-44A48,48,0,0,0,93.39,69a15.21,15.21,0,0,0,2.88.28h9.07c.4-1.14.83-2.2,1.29-3.19a37.42,37.42,0,0,1,4-6.78c.34-.44.59-.75.73-.91l2.7-2.28.9-.76,2.89-2.43,3.62-3.06,3.79-3.19,3.78-3.19,3.38-2.85h61.2c-.1.84-.25,1.8-.46,2.85-.12.58-.25,1.18-.41,1.8-.11.45-.24.91-.37,1.39a32.33,32.33,0,0,1-1.14,3.19,24.62,24.62,0,0,1-1.49,3.06,21.15,21.15,0,0,1-2.21,3.19,18,18,0,0,1-3.43,3.19,13.71,13.71,0,0,1-1.26.83,18,18,0,0,1-5.14,2H136.2A3.19,3.19,0,0,0,133,64.89,3.14,3.14,0,0,0,133.1,66a3.18,3.18,0,0,0,2.26,2.36,24.65,24.65,0,0,1,2.34.83H260.9c.15,0,.28,0,.42,0a48,48,0,0,0,88.57,1.46h-44ZM96.27,66A11.69,11.69,0,0,1,94,65.81l-2.58-.48-1,2.43a44.76,44.76,0,0,1-80.38,5.68h42V28.85h-42a44.76,44.76,0,0,1,80.38,5.68l1,2.45,2.59-.5a11.42,11.42,0,0,1,2.27-.22h31.41l-8.51,7.18H105.3a7.91,7.91,0,0,0-2.51,15.41A36.29,36.29,0,0,0,99.09,66ZM108,52.88H105.3a1.53,1.53,0,1,1,0-3.06h6.31Zm236.74,21A44.76,44.76,0,0,1,264.29,68l-.8-2h-2.17a4.32,4.32,0,0,0-.5,0H186.55a17.6,17.6,0,0,0,10.33-6.78h6.41a17.54,17.54,0,0,0,16.42,0h12.35a17.54,17.54,0,0,0,16.57,0h.85a7.89,7.89,0,0,0,5.28-2,7.87,7.87,0,0,0,2.33-8.07,17.46,17.46,0,0,0,.86-5.44V36.26h2.95c.15,0,.29,0,.43,0l2.35.19.9-2.14a44.76,44.76,0,0,1,80.14-5.08h-42V73.85ZM51.34,12.64,51.19,19A32,32,0,0,1,82.35,51.69l6.38.15A38.34,38.34,0,0,0,51.34,12.64Zm0,0L51.19,19A32,32,0,0,1,82.35,51.69l6.38.15A38.34,38.34,0,0,0,51.34,12.64ZM257.09,49.17a17.73,17.73,0,0,1-5.52,8.11V47.12a3.9,3.9,0,0,0-.47-.2,10.86,10.86,0,0,1-1.35,2.93,1.53,1.53,0,0,1-.27,3h-2.63a11.21,11.21,0,0,1-13,0H229.2a14.46,14.46,0,0,1-1.52-2.24c-.14-.27-.28-.54-.4-.82,0,0,0,0,0,0s-.13-.28-.19-.43-.18-.42-.26-.64-.07-.2-.1-.3,0,0,0,0a4.5,4.5,0,0,1-.16-.48c-.1-.32-.19-.65-.26-1h-.72a9.41,9.41,0,0,1-.25.91q-.08.29-.18.57c0,.12-.08.24-.13.36a10.86,10.86,0,0,1-.45,1.06h-.73c.1.27.2.54.32.81-.11.2-.22.4-.34.59s-.18.29-.28.43a4.43,4.43,0,0,1-.29.42l-.29.4c-.1.13-.2.27-.31.39l0,0h-4.67a11.19,11.19,0,0,1-12.88,0H200.4c-.16-.19-.31-.39-.46-.58,0,.19-.08.39-.13.58a16.35,16.35,0,0,1-1,3,1.42,1.42,0,0,1-.08.18,17.45,17.45,0,0,1-1.85,3.19h6.41a17.54,17.54,0,0,0,16.42,0h12.35a17.54,17.54,0,0,0,16.57,0h.85a7.89,7.89,0,0,0,5.28-2,7.87,7.87,0,0,0,2.33-8.07ZM51.34,12.64,51.19,19A32,32,0,0,1,82.35,51.69l6.38.15A38.34,38.34,0,0,0,51.34,12.64Zm0,0L51.19,19A32,32,0,0,1,82.35,51.69l6.38.15A38.34,38.34,0,0,0,51.34,12.64Zm0,0L51.19,19A32,32,0,0,1,82.35,51.69l6.38.15A38.34,38.34,0,0,0,51.34,12.64Zm0,0L51.19,19A32,32,0,0,1,82.35,51.69l6.38.15A38.34,38.34,0,0,0,51.34,12.64Zm0,0L51.19,19A32,32,0,0,1,82.35,51.69l6.38.15A38.34,38.34,0,0,0,51.34,12.64Zm0,0L51.19,19A32,32,0,0,1,82.35,51.69l6.38.15A38.34,38.34,0,0,0,51.34,12.64Zm0,0L51.19,19A32,32,0,0,1,82.35,51.69l6.38.15A38.34,38.34,0,0,0,51.34,12.64Zm0,0L51.19,19A32,32,0,0,1,82.35,51.69l6.38.15A38.34,38.34,0,0,0,51.34,12.64Zm0,0L51.19,19A32,32,0,0,1,82.35,51.69l6.38.15A38.34,38.34,0,0,0,51.34,12.64Zm0,0L51.19,19A32,32,0,0,1,82.35,51.69l6.38.15A38.34,38.34,0,0,0,51.34,12.64Zm0,0L51.19,19A32,32,0,0,1,82.35,51.69l6.38.15A38.34,38.34,0,0,0,51.34,12.64Zm0,0L51.19,19A32,32,0,0,1,82.35,51.69l6.38.15A38.34,38.34,0,0,0,51.34,12.64Zm0,0L51.19,19A32,32,0,0,1,82.35,51.69l6.38.15A38.34,38.34,0,0,0,51.34,12.64Zm0,0L51.19,19A32,32,0,0,1,82.35,51.69l6.38.15A38.34,38.34,0,0,0,51.34,12.64Zm0,0L51.19,19A32,32,0,0,1,82.35,51.69l6.38.15A38.34,38.34,0,0,0,51.34,12.64Zm0,0L51.19,19A32,32,0,0,1,82.35,51.69l6.38.15A38.34,38.34,0,0,0,51.34,12.64Zm0,0L51.19,19A32,32,0,0,1,82.35,51.69l6.38.15A38.34,38.34,0,0,0,51.34,12.64Zm0,0L51.19,19A32,32,0,0,1,82.35,51.69l6.38.15A38.34,38.34,0,0,0,51.34,12.64Zm0,0L51.19,19A32,32,0,0,1,82.35,51.69l6.38.15A38.34,38.34,0,0,0,51.34,12.64Zm0,0L51.19,19A32,32,0,0,1,82.35,51.69l6.38.15A38.34,38.34,0,0,0,51.34,12.64Zm0,0L51.19,19A32,32,0,0,1,82.35,51.69l6.38.15A38.34,38.34,0,0,0,51.34,12.64Zm0,0L51.19,19A32,32,0,0,1,82.35,51.69l6.38.15A38.34,38.34,0,0,0,51.34,12.64Zm0,0L51.19,19A32,32,0,0,1,82.35,51.69l6.38.15A38.34,38.34,0,0,0,51.34,12.64Zm0,0L51.19,19A32,32,0,0,1,82.35,51.69l6.38.15A38.34,38.34,0,0,0,51.34,12.64Zm0,0L51.19,19A32,32,0,0,1,82.35,51.69l6.38.15A38.34,38.34,0,0,0,51.34,12.64Zm0,0L51.19,19A32,32,0,0,1,82.35,51.69l6.38.15A38.34,38.34,0,0,0,51.34,12.64Zm0,0L51.19,19A32,32,0,0,1,82.35,51.69l6.38.15A38.34,38.34,0,0,0,51.34,12.64Z"/><path class="cls-1" d="M222.73,29.88v6.38h6.38v-6c0-.12,0-.25,0-.37Zm86.36,5.76h45.68l-1.95-4.46a51.16,51.16,0,0,0-93.25-1.3h-8c0,.12,0,.25,0,.37v6h9.33c.15,0,.29,0,.43,0l2.35.19.9-2.14a44.76,44.76,0,0,1,80.14-5.08h-42V73.85h42A44.76,44.76,0,0,1,264.29,68l-.8-2h-2.17a4.32,4.32,0,0,0-.5,0H133.1a3.18,3.18,0,0,0,2.26,2.36,24.65,24.65,0,0,1,2.34.83A42.79,42.79,0,0,1,144,72.42H259.21a51.15,51.15,0,0,0,93.61-.49l1.95-4.47H309.09Zm-115.2-5.76v4.33H171.43V29.88h-8.3v4.33H140.67V29.88H96.27c-.29,0-.59,0-.88,0A51.15,51.15,0,0,0,2,30.77L0,35.24H45.67V67.05H0l2,4.47a51.15,51.15,0,0,0,93.44.88l.88,0h8.13c.27-1.12.59-2.18.94-3.19s.83-2.2,1.29-3.19H96.27A11.69,11.69,0,0,1,94,65.81l-2.58-.48-1,2.43a44.76,44.76,0,0,1-80.38,5.68h42V28.85h-42a44.76,44.76,0,0,1,80.38,5.68l1,2.45,2.59-.5a11.42,11.42,0,0,1,2.27-.22h104V29.88Z"/><path class="cls-1" d="M105.3,46.63a4.72,4.72,0,0,0-.45,9.42h9.24l.9-.76,2.89-2.43,3.62-3.06,3.79-3.19Zm-1.54,4.72a1.54,1.54,0,0,1,1.54-1.53h6.31L108,52.88H105.3A1.54,1.54,0,0,1,103.76,51.35Z"/><path class="cls-1" d="M254.2,51.35a4.71,4.71,0,0,1-1.38,3.34,4.82,4.82,0,0,1-1.25.89,4.73,4.73,0,0,1-2.09.49H187.57a21.15,21.15,0,0,0,2.21-3.19,24.62,24.62,0,0,0,1.49-3.06,32.33,32.33,0,0,0,1.14-3.19h8.26a11,11,0,0,0,1.44,3.19,11.22,11.22,0,0,0,20.14-2.9l.09-.29h7.15a2.46,2.46,0,0,0,.09.29,10.76,10.76,0,0,0,1.33,2.9,11.22,11.22,0,0,0,18.84,0,10.86,10.86,0,0,0,1.35-2.93,3.9,3.9,0,0,1,.47.2,4.77,4.77,0,0,1,2.11,2.08A4.71,4.71,0,0,1,254.2,51.35Z"/><path class="cls-1" d="M194.86,49.45c-.05.12-.09.25-.14.37H195C194.94,49.7,194.9,49.57,194.86,49.45Zm3.4-.07a3.81,3.81,0,0,1-.15.44h.35C198.39,49.68,198.32,49.53,198.26,49.38Zm29,.39c-.07-.14-.13-.28-.19-.43s-.18-.42-.26-.64-.07-.2-.1-.3,0,0,0,0a4.5,4.5,0,0,1-.16-.48c-.1-.32-.19-.65-.26-1h-.72a9.41,9.41,0,0,1-.25.91q-.08.29-.18.57c0,.12-.08.24-.13.36a10.86,10.86,0,0,1-.45,1.06h2.73S227.26,49.79,227.25,49.77Zm-32.39-.32c-.05.12-.09.25-.14.37H195C194.94,49.7,194.9,49.57,194.86,49.45Zm3.4-.07a3.81,3.81,0,0,1-.15.44h.35C198.39,49.68,198.32,49.53,198.26,49.38Zm29,.39c-.07-.14-.13-.28-.19-.43s-.18-.42-.26-.64-.07-.2-.1-.3,0,0,0,0a4.5,4.5,0,0,1-.16-.48c-.1-.32-.19-.65-.26-1h-.72a9.41,9.41,0,0,1-.25.91q-.08.29-.18.57c0,.12-.08.24-.13.36a10.86,10.86,0,0,1-.45,1.06h2.73S227.26,49.79,227.25,49.77Zm29.84-.6a7.82,7.82,0,0,0-2.33-3.71l-.09-.08a8,8,0,0,0-3.08-1.65h0a11.34,11.34,0,0,1-1.82,6.12,1.53,1.53,0,0,1-.27,3h-2.63a11.21,11.21,0,0,1-13,0h-15.9a11.19,11.19,0,0,1-12.88,0H189.78a21.15,21.15,0,0,1-2.21,3.19,18,18,0,0,1-3.43,3.19h65.34a7.89,7.89,0,0,0,5.28-2,7.87,7.87,0,0,0,2.33-8.07Zm-29.84.6c-.07-.14-.13-.28-.19-.43s-.18-.42-.26-.64-.07-.2-.1-.3,0,0,0,0a4.5,4.5,0,0,1-.16-.48c-.1-.32-.19-.65-.26-1h-.72a9.41,9.41,0,0,1-.25.91q-.08.29-.18.57c0,.12-.08.24-.13.36a10.86,10.86,0,0,1-.45,1.06h2.73S227.26,49.79,227.25,49.77Zm-29-.39a3.81,3.81,0,0,1-.15.44h.35C198.39,49.68,198.32,49.53,198.26,49.38Zm-3.4.07c-.05.12-.09.25-.14.37H195C194.94,49.7,194.9,49.57,194.86,49.45Zm32.39.32c-.07-.14-.13-.28-.19-.43s-.18-.42-.26-.64-.07-.2-.1-.3,0,0,0,0a4.5,4.5,0,0,1-.16-.48c-.1-.32-.19-.65-.26-1h-.72a9.41,9.41,0,0,1-.25.91q-.08.29-.18.57c0,.12-.08.24-.13.36a10.86,10.86,0,0,1-.45,1.06h2.73S227.26,49.79,227.25,49.77Zm-29-.39a3.81,3.81,0,0,1-.15.44h.35C198.39,49.68,198.32,49.53,198.26,49.38Zm-3.4.07c-.05.12-.09.25-.14.37H195C194.94,49.7,194.9,49.57,194.86,49.45Zm32.39.32c-.07-.14-.13-.28-.19-.43s-.18-.42-.26-.64-.07-.2-.1-.3,0,0,0,0a4.5,4.5,0,0,1-.16-.48c-.1-.32-.19-.65-.26-1h-.72a9.41,9.41,0,0,1-.25.91q-.08.29-.18.57c0,.12-.08.24-.13.36a10.86,10.86,0,0,1-.45,1.06h2.73S227.26,49.79,227.25,49.77Zm-29-.39a3.81,3.81,0,0,1-.15.44h.35C198.39,49.68,198.32,49.53,198.26,49.38Zm-3.4.07c-.05.12-.09.25-.14.37H195C194.94,49.7,194.9,49.57,194.86,49.45Zm34.72-2.53h-.77a16.56,16.56,0,0,1-.8,2.9h2.9A10.76,10.76,0,0,1,229.58,46.92Zm-2.33,2.85c-.07-.14-.13-.28-.19-.43s-.18-.42-.26-.64-.07-.2-.1-.3,0,0,0,0a4.5,4.5,0,0,1-.16-.48c-.1-.32-.19-.65-.26-1h-.72a9.41,9.41,0,0,1-.25.91q-.08.29-.18.57c0,.12-.08.24-.13.36a10.86,10.86,0,0,1-.45,1.06h2.73S227.26,49.79,227.25,49.77Zm-29-.39a3.81,3.81,0,0,1-.15.44h.35C198.39,49.68,198.32,49.53,198.26,49.38Zm-3.4.07c-.05.12-.09.25-.14.37H195C194.94,49.7,194.9,49.57,194.86,49.45Zm34.72-2.53h-.77a16.56,16.56,0,0,1-.8,2.9h2.9A10.76,10.76,0,0,1,229.58,46.92Zm-2.33,2.85c-.07-.14-.13-.28-.19-.43s-.18-.42-.26-.64-.07-.2-.1-.3,0,0,0,0a4.5,4.5,0,0,1-.16-.48c-.1-.32-.19-.65-.26-1h-.72a9.41,9.41,0,0,1-.25.91q-.08.29-.18.57c0,.12-.08.24-.13.36a10.86,10.86,0,0,1-.45,1.06h2.73S227.26,49.79,227.25,49.77Zm-29-.39a3.81,3.81,0,0,1-.15.44h.35C198.39,49.68,198.32,49.53,198.26,49.38Zm-3.4.07c-.05.12-.09.25-.14.37H195C194.94,49.7,194.9,49.57,194.86,49.45Zm34.72-2.53h-.77a16.56,16.56,0,0,1-.8,2.9h2.9A10.76,10.76,0,0,1,229.58,46.92Zm-2.33,2.85c-.07-.14-.13-.28-.19-.43s-.18-.42-.26-.64-.07-.2-.1-.3,0,0,0,0a4.5,4.5,0,0,1-.16-.48c-.1-.32-.19-.65-.26-1h-.72a9.41,9.41,0,0,1-.25.91q-.08.29-.18.57c0,.12-.08.24-.13.36a10.86,10.86,0,0,1-.45,1.06h2.73S227.26,49.79,227.25,49.77Zm-29-.39a3.81,3.81,0,0,1-.15.44h.35C198.39,49.68,198.32,49.53,198.26,49.38Zm-3.4.07c-.05.12-.09.25-.14.37H195C194.94,49.7,194.9,49.57,194.86,49.45Zm34.72-2.53h-.77a16.56,16.56,0,0,1-.8,2.9h2.9A10.76,10.76,0,0,1,229.58,46.92Zm-2.33,2.85c-.07-.14-.13-.28-.19-.43s-.18-.42-.26-.64-.07-.2-.1-.3,0,0,0,0a4.5,4.5,0,0,1-.16-.48c-.1-.32-.19-.65-.26-1h-.72a9.41,9.41,0,0,1-.25.91q-.08.29-.18.57c0,.12-.08.24-.13.36a10.86,10.86,0,0,1-.45,1.06h2.73S227.26,49.79,227.25,49.77Zm-29-.39a3.81,3.81,0,0,1-.15.44h.35C198.39,49.68,198.32,49.53,198.26,49.38Zm-3.4.07c-.05.12-.09.25-.14.37H195C194.94,49.7,194.9,49.57,194.86,49.45ZM108,52.88l-.89.75-.1.09,2.16,2.35h4.94l.9-.76,2.89-2.43Zm121.6-6h-.77a16.56,16.56,0,0,1-.8,2.9h2.9A10.76,10.76,0,0,1,229.58,46.92Zm-2.33,2.85c-.07-.14-.13-.28-.19-.43s-.18-.42-.26-.64-.07-.2-.1-.3,0,0,0,0a4.5,4.5,0,0,1-.16-.48c-.1-.32-.19-.65-.26-1h-.72a9.41,9.41,0,0,1-.25.91q-.08.29-.18.57c0,.12-.08.24-.13.36a10.86,10.86,0,0,1-.45,1.06h2.73S227.26,49.79,227.25,49.77Zm-29-.39a3.81,3.81,0,0,1-.15.44h.35C198.39,49.68,198.32,49.53,198.26,49.38Zm-3.4.07c-.05.12-.09.25-.14.37H195C194.94,49.7,194.9,49.57,194.86,49.45ZM108,52.88l-.89.75-.1.09,2.16,2.35h4.94l.9-.76,2.89-2.43Zm121.6-6h-.77a16.56,16.56,0,0,1-.8,2.9h2.9A10.76,10.76,0,0,1,229.58,46.92Zm-2.33,2.85c-.07-.14-.13-.28-.19-.43s-.18-.42-.26-.64-.07-.2-.1-.3,0,0,0,0a4.5,4.5,0,0,1-.16-.48c-.1-.32-.19-.65-.26-1h-.72a9.41,9.41,0,0,1-.25.91q-.08.29-.18.57c0,.12-.08.24-.13.36a10.86,10.86,0,0,1-.45,1.06h2.73S227.26,49.79,227.25,49.77Zm-29-.39a3.81,3.81,0,0,1-.15.44h.35C198.39,49.68,198.32,49.53,198.26,49.38Zm-3.4.07c-.05.12-.09.25-.14.37H195C194.94,49.7,194.9,49.57,194.86,49.45ZM108,52.88l-.89.75-.1.09,2.16,2.35h4.94l.9-.76,2.89-2.43Zm121.6-6a2.46,2.46,0,0,1-.09-.29,11.14,11.14,0,0,1-.38-2.9v-.29h-6.38v.29a11.09,11.09,0,0,1-.39,2.9l-.09.29a11.13,11.13,0,0,1-1.35,2.9h10A10.76,10.76,0,0,1,229.58,46.92Zm-2.33,2.85c-.07-.14-.13-.28-.19-.43s-.18-.42-.26-.64-.07-.2-.1-.3,0,0,0,0a4.5,4.5,0,0,1-.16-.48c-.1-.32-.19-.65-.26-1h-.72a9.41,9.41,0,0,1-.25.91q-.08.29-.18.57c0,.12-.08.24-.13.36a10.86,10.86,0,0,1-.45,1.06h2.73S227.26,49.79,227.25,49.77Zm0,0c-.07-.14-.13-.28-.19-.43s-.18-.42-.26-.64-.07-.2-.1-.3,0,0,0,0a4.5,4.5,0,0,1-.16-.48c-.1-.32-.19-.65-.26-1h-.72a9.41,9.41,0,0,1-.25.91q-.08.29-.18.57c0,.12-.08.24-.13.36a10.86,10.86,0,0,1-.45,1.06h2.73S227.26,49.79,227.25,49.77Zm-32.39-.32c-.05.12-.09.25-.14.37H195C194.94,49.7,194.9,49.57,194.86,49.45Zm3.4-.07a3.81,3.81,0,0,1-.15.44h.35C198.39,49.68,198.32,49.53,198.26,49.38Zm29,.39c-.07-.14-.13-.28-.19-.43s-.18-.42-.26-.64-.07-.2-.1-.3,0,0,0,0a4.5,4.5,0,0,1-.16-.48c-.1-.32-.19-.65-.26-1h-.72a9.41,9.41,0,0,1-.25.91q-.08.29-.18.57c0,.12-.08.24-.13.36a10.86,10.86,0,0,1-.45,1.06h2.73S227.26,49.79,227.25,49.77Zm-32.39-.32c-.05.12-.09.25-.14.37H195C194.94,49.7,194.9,49.57,194.86,49.45Zm3.4-.07a3.81,3.81,0,0,1-.15.44h.35C198.39,49.68,198.32,49.53,198.26,49.38Zm29,.39c-.07-.14-.13-.28-.19-.43s-.18-.42-.26-.64-.07-.2-.1-.3,0,0,0,0a4.5,4.5,0,0,1-.16-.48c-.1-.32-.19-.65-.26-1h-.72a9.41,9.41,0,0,1-.25.91q-.08.29-.18.57c0,.12-.08.24-.13.36a10.86,10.86,0,0,1-.45,1.06h2.73S227.26,49.79,227.25,49.77Zm-32.39-.32c-.05.12-.09.25-.14.37H195C194.94,49.7,194.9,49.57,194.86,49.45Zm3.4-.07a3.81,3.81,0,0,1-.15.44h.35C198.39,49.68,198.32,49.53,198.26,49.38Zm29,.39c-.07-.14-.13-.28-.19-.43s-.18-.42-.26-.64-.07-.2-.1-.3,0,0,0,0a4.5,4.5,0,0,1-.16-.48c-.1-.32-.19-.65-.26-1h-.72a9.41,9.41,0,0,1-.25.91q-.08.29-.18.57c0,.12-.08.24-.13.36a10.86,10.86,0,0,1-.45,1.06h2.73S227.26,49.79,227.25,49.77Zm-32.39-.32c-.05.12-.09.25-.14.37H195C194.94,49.7,194.9,49.57,194.86,49.45Zm3.4-.07a3.81,3.81,0,0,1-.15.44h.35C198.39,49.68,198.32,49.53,198.26,49.38Zm29,.39c-.07-.14-.13-.28-.19-.43s-.18-.42-.26-.64-.07-.2-.1-.3,0,0,0,0a4.5,4.5,0,0,1-.16-.48c-.1-.32-.19-.65-.26-1h-.72a9.41,9.41,0,0,1-.25.91q-.08.29-.18.57c0,.12-.08.24-.13.36a10.86,10.86,0,0,1-.45,1.06h2.73S227.26,49.79,227.25,49.77Zm-32.39-.32c-.05.12-.09.25-.14.37H195C194.94,49.7,194.9,49.57,194.86,49.45Zm3.4-.07a3.81,3.81,0,0,1-.15.44h.35C198.39,49.68,198.32,49.53,198.26,49.38Zm29,.39c-.07-.14-.13-.28-.19-.43s-.18-.42-.26-.64-.07-.2-.1-.3,0,0,0,0a4.5,4.5,0,0,1-.16-.48c-.1-.32-.19-.65-.26-1h-.72a9.41,9.41,0,0,1-.25.91q-.08.29-.18.57c0,.12-.08.24-.13.36a10.86,10.86,0,0,1-.45,1.06h2.73S227.26,49.79,227.25,49.77Zm-32.39-.32c-.05.12-.09.25-.14.37H195C194.94,49.7,194.9,49.57,194.86,49.45Zm3.4-.07a3.81,3.81,0,0,1-.15.44h.35C198.39,49.68,198.32,49.53,198.26,49.38Zm29,.39c-.07-.14-.13-.28-.19-.43s-.18-.42-.26-.64-.07-.2-.1-.3,0,0,0,0a4.5,4.5,0,0,1-.16-.48c-.1-.32-.19-.65-.26-1h-.72a9.41,9.41,0,0,1-.25.91q-.08.29-.18.57c0,.12-.08.24-.13.36a10.86,10.86,0,0,1-.45,1.06h2.73S227.26,49.79,227.25,49.77Zm-32.39-.32c-.05.12-.09.25-.14.37H195C194.94,49.7,194.9,49.57,194.86,49.45Zm3.4-.07a3.81,3.81,0,0,1-.15.44h.35C198.39,49.68,198.32,49.53,198.26,49.38Zm29,.39c-.07-.14-.13-.28-.19-.43s-.18-.42-.26-.64-.07-.2-.1-.3,0,0,0,0a4.5,4.5,0,0,1-.16-.48c-.1-.32-.19-.65-.26-1h-.72a9.41,9.41,0,0,1-.25.91q-.08.29-.18.57c0,.12-.08.24-.13.36a10.86,10.86,0,0,1-.45,1.06h2.73S227.26,49.79,227.25,49.77Zm0,0c-.07-.14-.13-.28-.19-.43s-.18-.42-.26-.64-.07-.2-.1-.3,0,0,0,0a4.5,4.5,0,0,1-.16-.48c-.1-.32-.19-.65-.26-1h-.72a9.41,9.41,0,0,1-.25.91q-.08.29-.18.57c0,.12-.08.24-.13.36a10.86,10.86,0,0,1-.45,1.06h2.73S227.26,49.79,227.25,49.77Zm-29-.39a3.81,3.81,0,0,1-.15.44h.35C198.39,49.68,198.32,49.53,198.26,49.38Zm-3.4.07c-.05.12-.09.25-.14.37H195C194.94,49.7,194.9,49.57,194.86,49.45Zm32.39.32c-.07-.14-.13-.28-.19-.43s-.18-.42-.26-.64-.07-.2-.1-.3,0,0,0,0a4.5,4.5,0,0,1-.16-.48c-.1-.32-.19-.65-.26-1h-.72a9.41,9.41,0,0,1-.25.91q-.08.29-.18.57c0,.12-.08.24-.13.36a10.86,10.86,0,0,1-.45,1.06h2.73S227.26,49.79,227.25,49.77Zm-29-.39a3.81,3.81,0,0,1-.15.44h.35C198.39,49.68,198.32,49.53,198.26,49.38Zm-3.4.07c-.05.12-.09.25-.14.37H195C194.94,49.7,194.9,49.57,194.86,49.45Zm32.39.32c-.07-.14-.13-.28-.19-.43s-.18-.42-.26-.64-.07-.2-.1-.3,0,0,0,0a4.5,4.5,0,0,1-.16-.48c-.1-.32-.19-.65-.26-1h-.72a9.41,9.41,0,0,1-.25.91q-.08.29-.18.57c0,.12-.08.24-.13.36a10.86,10.86,0,0,1-.45,1.06h2.73S227.26,49.79,227.25,49.77Zm-29-.39a3.81,3.81,0,0,1-.15.44h.35C198.39,49.68,198.32,49.53,198.26,49.38Zm-3.4.07c-.05.12-.09.25-.14.37H195C194.94,49.7,194.9,49.57,194.86,49.45Zm32.39.32c-.07-.14-.13-.28-.19-.43s-.18-.42-.26-.64-.07-.2-.1-.3,0,0,0,0a4.5,4.5,0,0,1-.16-.48c-.1-.32-.19-.65-.26-1h-.72a9.41,9.41,0,0,1-.25.91q-.08.29-.18.57c0,.12-.08.24-.13.36a10.86,10.86,0,0,1-.45,1.06h2.73S227.26,49.79,227.25,49.77Zm-29-.39a3.81,3.81,0,0,1-.15.44h.35C198.39,49.68,198.32,49.53,198.26,49.38Zm-3.4.07c-.05.12-.09.25-.14.37H195C194.94,49.7,194.9,49.57,194.86,49.45Zm32.39.32c-.07-.14-.13-.28-.19-.43s-.18-.42-.26-.64-.07-.2-.1-.3,0,0,0,0a4.5,4.5,0,0,1-.16-.48c-.1-.32-.19-.65-.26-1h-.72a9.41,9.41,0,0,1-.25.91q-.08.29-.18.57c0,.12-.08.24-.13.36a10.86,10.86,0,0,1-.45,1.06h2.73S227.26,49.79,227.25,49.77Zm-29-.39a3.81,3.81,0,0,1-.15.44h.35C198.39,49.68,198.32,49.53,198.26,49.38Zm-3.4.07c-.05.12-.09.25-.14.37H195C194.94,49.7,194.9,49.57,194.86,49.45Zm32.39.32c-.07-.14-.13-.28-.19-.43s-.18-.42-.26-.64-.07-.2-.1-.3,0,0,0,0a4.5,4.5,0,0,1-.16-.48c-.1-.32-.19-.65-.26-1h-.72a9.41,9.41,0,0,1-.25.91q-.08.29-.18.57c0,.12-.08.24-.13.36a10.86,10.86,0,0,1-.45,1.06h2.73S227.26,49.79,227.25,49.77Zm-29-.39a3.81,3.81,0,0,1-.15.44h.35C198.39,49.68,198.32,49.53,198.26,49.38Zm-3.4.07c-.05.12-.09.25-.14.37H195C194.94,49.7,194.9,49.57,194.86,49.45Zm32.39.32c-.07-.14-.13-.28-.19-.43s-.18-.42-.26-.64-.07-.2-.1-.3,0,0,0,0a4.5,4.5,0,0,1-.16-.48c-.1-.32-.19-.65-.26-1h-.72a9.41,9.41,0,0,1-.25.91q-.08.29-.18.57c0,.12-.08.24-.13.36a10.86,10.86,0,0,1-.45,1.06h2.73S227.26,49.79,227.25,49.77Zm-26.58-3.14a11.51,11.51,0,0,1-.38-2.36c0-.19,0-.39,0-.58v-.25h-7.09c-.12.58-.25,1.18-.41,1.8-.11.45-.24.91-.37,1.39a32.33,32.33,0,0,1-1.14,3.19h10.84A11,11,0,0,1,200.67,46.63ZM105.3,43.44a7.91,7.91,0,0,0-2.51,15.41l.35.11a7.72,7.72,0,0,0,2.16.3h5.36c.34-.44.59-.75.73-.91l2.7-2.28.9-.76,2.89-2.43H105.3a1.53,1.53,0,1,1,0-3.06h16.2l3.79-3.19,3.78-3.19Zm122,6.33c-.07-.14-.13-.28-.19-.43s-.18-.42-.26-.64-.07-.2-.1-.3,0,0,0,0a4.5,4.5,0,0,1-.16-.48c-.1-.32-.19-.65-.26-1h-.72a9.41,9.41,0,0,1-.25.91q-.08.29-.18.57c0,.12-.08.24-.13.36a10.86,10.86,0,0,1-.45,1.06h2.73S227.26,49.79,227.25,49.77Zm0,0c-.07-.14-.13-.28-.19-.43s-.18-.42-.26-.64-.07-.2-.1-.3,0,0,0,0a4.5,4.5,0,0,1-.16-.48c-.1-.32-.19-.65-.26-1h-.72a9.41,9.41,0,0,1-.25.91q-.08.29-.18.57c0,.12-.08.24-.13.36a10.86,10.86,0,0,1-.45,1.06h2.73S227.26,49.79,227.25,49.77ZM108,52.88l-.89.75-.1.09,2.16,2.35h4.94l.9-.76,2.89-2.43Zm86.88-3.43c-.05.12-.09.25-.14.37H195C194.94,49.7,194.9,49.57,194.86,49.45Zm3.4-.07a3.81,3.81,0,0,1-.15.44h.35C198.39,49.68,198.32,49.53,198.26,49.38Zm29,.39c-.07-.14-.13-.28-.19-.43s-.18-.42-.26-.64-.07-.2-.1-.3,0,0,0,0a4.5,4.5,0,0,1-.16-.48c-.1-.32-.19-.65-.26-1h-.72a9.41,9.41,0,0,1-.25.91q-.08.29-.18.57c0,.12-.08.24-.13.36a10.86,10.86,0,0,1-.45,1.06h2.73S227.26,49.79,227.25,49.77Zm2.33-2.85h-.77a16.56,16.56,0,0,1-.8,2.9h2.9A10.76,10.76,0,0,1,229.58,46.92Zm-121.6,6-.89.75-.1.09,2.16,2.35h4.94l.9-.76,2.89-2.43Zm86.88-3.43c-.05.12-.09.25-.14.37H195C194.94,49.7,194.9,49.57,194.86,49.45Zm3.4-.07a3.81,3.81,0,0,1-.15.44h.35C198.39,49.68,198.32,49.53,198.26,49.38Zm29,.39c-.07-.14-.13-.28-.19-.43s-.18-.42-.26-.64-.07-.2-.1-.3,0,0,0,0a4.5,4.5,0,0,1-.16-.48c-.1-.32-.19-.65-.26-1h-.72a9.41,9.41,0,0,1-.25.91q-.08.29-.18.57c0,.12-.08.24-.13.36a10.86,10.86,0,0,1-.45,1.06h2.73S227.26,49.79,227.25,49.77Zm2.33-2.85h-.77a16.56,16.56,0,0,1-.8,2.9h2.9A10.76,10.76,0,0,1,229.58,46.92Zm-34.72,2.53c-.05.12-.09.25-.14.37H195C194.94,49.7,194.9,49.57,194.86,49.45Zm3.4-.07a3.81,3.81,0,0,1-.15.44h.35C198.39,49.68,198.32,49.53,198.26,49.38Zm29,.39c-.07-.14-.13-.28-.19-.43s-.18-.42-.26-.64-.07-.2-.1-.3,0,0,0,0a4.5,4.5,0,0,1-.16-.48c-.1-.32-.19-.65-.26-1h-.72a9.41,9.41,0,0,1-.25.91q-.08.29-.18.57c0,.12-.08.24-.13.36a10.86,10.86,0,0,1-.45,1.06h2.73S227.26,49.79,227.25,49.77Zm2.33-2.85h-.77a16.56,16.56,0,0,1-.8,2.9h2.9A10.76,10.76,0,0,1,229.58,46.92Zm-34.72,2.53c-.05.12-.09.25-.14.37H195C194.94,49.7,194.9,49.57,194.86,49.45Zm3.4-.07a3.81,3.81,0,0,1-.15.44h.35C198.39,49.68,198.32,49.53,198.26,49.38Zm29,.39c-.07-.14-.13-.28-.19-.43s-.18-.42-.26-.64-.07-.2-.1-.3,0,0,0,0a4.5,4.5,0,0,1-.16-.48c-.1-.32-.19-.65-.26-1h-.72a9.41,9.41,0,0,1-.25.91q-.08.29-.18.57c0,.12-.08.24-.13.36a10.86,10.86,0,0,1-.45,1.06h2.73S227.26,49.79,227.25,49.77Zm2.33-2.85h-.77a16.56,16.56,0,0,1-.8,2.9h2.9A10.76,10.76,0,0,1,229.58,46.92Zm-34.72,2.53c-.05.12-.09.25-.14.37H195C194.94,49.7,194.9,49.57,194.86,49.45Zm3.4-.07a3.81,3.81,0,0,1-.15.44h.35C198.39,49.68,198.32,49.53,198.26,49.38Zm29,.39c-.07-.14-.13-.28-.19-.43s-.18-.42-.26-.64-.07-.2-.1-.3,0,0,0,0a4.5,4.5,0,0,1-.16-.48c-.1-.32-.19-.65-.26-1h-.72a9.41,9.41,0,0,1-.25.91q-.08.29-.18.57c0,.12-.08.24-.13.36a10.86,10.86,0,0,1-.45,1.06h2.73S227.26,49.79,227.25,49.77Zm2.33-2.85h-.77a16.56,16.56,0,0,1-.8,2.9h2.9A10.76,10.76,0,0,1,229.58,46.92Zm-34.72,2.53c-.05.12-.09.25-.14.37H195C194.94,49.7,194.9,49.57,194.86,49.45Zm3.4-.07a3.81,3.81,0,0,1-.15.44h.35C198.39,49.68,198.32,49.53,198.26,49.38Zm29,.39c-.07-.14-.13-.28-.19-.43s-.18-.42-.26-.64-.07-.2-.1-.3,0,0,0,0a4.5,4.5,0,0,1-.16-.48c-.1-.32-.19-.65-.26-1h-.72a9.41,9.41,0,0,1-.25.91q-.08.29-.18.57c0,.12-.08.24-.13.36a10.86,10.86,0,0,1-.45,1.06h2.73S227.26,49.79,227.25,49.77Zm2.33-2.85h-.77a16.56,16.56,0,0,1-.8,2.9h2.9A10.76,10.76,0,0,1,229.58,46.92Z"/><path class="cls-1" d="M88.73,51.84l-6.38-.15A32,32,0,0,0,51.19,19l.15-6.38A38.34,38.34,0,0,1,88.73,51.84Z"/><path class="cls-1" d="M312.83,83.68l-.16,6.38a38.35,38.35,0,0,1-37.39-39.19l6.38.15A32,32,0,0,0,312.83,83.68Z"/><path class="cls-1" d="M142.86,62.13a14.42,14.42,0,0,0,18.09,0ZM165.05,18a14.42,14.42,0,0,0-27.57,5.92V40.59h28.84V23.9A14.29,14.29,0,0,0,165.05,18ZM140.67,23.9a11.23,11.23,0,1,1,22.46,0V34.21H140.67Z"/><path class="cls-1" d="M168.25,17.34a0,0,0,0,1,0,0,17.15,17.15,0,0,0-2.57-4.38,17.61,17.61,0,0,0-31.4,11V40.59h6.39V23.9a11.23,11.23,0,1,1,22.46,0V40.59h6.39V23.9A17.46,17.46,0,0,0,168.25,17.34ZM138.34,62.13a17.25,17.25,0,0,0,3.47,3.19,13,13,0,0,0,1.1.72,17.61,17.61,0,0,0,18,0,13,13,0,0,0,1.1-.72,17.2,17.2,0,0,0,3.46-3.19Z"/><path class="cls-1" d="M196.72,14.34a14.42,14.42,0,0,0-28.47,3,0,0,0,0,0,0,0,2.44,2.44,0,0,0,0,.27v23h25.41c-.1.84-.25,1.8-.46,2.85-.12.58-.25,1.18-.41,1.8-.11.45-.24.91-.37,1.39a32.33,32.33,0,0,1-1.14,3.19,24.62,24.62,0,0,1-1.49,3.06,21.15,21.15,0,0,1-2.21,3.19,18,18,0,0,1-3.43,3.19,13.71,13.71,0,0,1-1.26.83,18,18,0,0,1-5.14,2H177a14.27,14.27,0,0,0,5.63,1.15c.4,0,.8,0,1.19-.05a14.37,14.37,0,0,0,8.8-4,14,14,0,0,0,2.5-3.19,13.57,13.57,0,0,0,1.36-3.15s0,0,0,0a13.42,13.42,0,0,0,.53-3.06c0-.32,0-.64,0-1V17.61A14.63,14.63,0,0,0,196.72,14.34Zm-2.83,19.87H171.43V17.61a11.23,11.23,0,1,1,22.46,0Z"/><path class="cls-1" d="M200.1,15.08a17.16,17.16,0,0,0-1-3.71,17.61,17.61,0,0,0-34.08,6.24v23h6.38v-23a11.23,11.23,0,1,1,22.46,0V48.86c0,.32,0,.64,0,1a11.23,11.23,0,0,1-11,10.27,18,18,0,0,1-5.14,2h-6.65a17.31,17.31,0,0,0,5.3,3.19,16,16,0,0,0,2.38.72,17.18,17.18,0,0,0,3.89.44,17.41,17.41,0,0,0,2.06-.12,15.9,15.9,0,0,0,1.83-.32,17.57,17.57,0,0,0,12.18-10,1.42,1.42,0,0,0,.08-.18,16.35,16.35,0,0,0,1-3c.05-.19.09-.39.13-.58a18.48,18.48,0,0,0,.32-2.48c0-.32,0-.64,0-1V17.61A17.62,17.62,0,0,0,200.1,15.08Z"/><path class="cls-1" d="M223.82,49.82a16.56,16.56,0,0,1-.8-2.9h-.77a11.21,11.21,0,0,1-20.14,2.9,11,11,0,0,1-1.44-3.19,11.51,11.51,0,0,1-.38-2.36c0-.19,0-.39,0-.58V37.4a35.65,35.65,0,0,1-.55,6c0,.31-.1.62-.16.93-.15.74-.31,1.49-.5,2.26s-.5,1.83-.81,2.75c.06.15.13.3.2.44h1.8a18.48,18.48,0,0,1-.32,2.48c.15.19.3.39.46.58.29.35.59.68.91,1a14.24,14.24,0,0,0,2.81,2.19h14.77a14.06,14.06,0,0,0,3.72-3.19l0,0c.11-.12.21-.26.31-.39l.29-.4a4.43,4.43,0,0,0,.29-.42c.1-.14.19-.29.28-.43s.23-.39.34-.59C224,50.36,223.92,50.09,223.82,49.82Zm0,0a16.56,16.56,0,0,1-.8-2.9h-.77a11.21,11.21,0,0,1-20.14,2.9,11,11,0,0,1-1.44-3.19,11.51,11.51,0,0,1-.38-2.36c0-.19,0-.39,0-.58V37.4a35.65,35.65,0,0,1-.55,6c0,.31-.1.62-.16.93-.15.74-.31,1.49-.5,2.26s-.5,1.83-.81,2.75c.06.15.13.3.2.44h1.8a18.48,18.48,0,0,1-.32,2.48c.15.19.3.39.46.58.29.35.59.68.91,1a14.24,14.24,0,0,0,2.81,2.19h14.77a14.06,14.06,0,0,0,3.72-3.19l0,0c.11-.12.21-.26.31-.39l.29-.4a4.43,4.43,0,0,0,.29-.42c.1-.14.19-.29.28-.43s.23-.39.34-.59C224,50.36,223.92,50.09,223.82,49.82Zm0,0a16.56,16.56,0,0,1-.8-2.9h-.77a11.21,11.21,0,0,1-20.14,2.9,11,11,0,0,1-1.44-3.19,11.51,11.51,0,0,1-.38-2.36c0-.19,0-.39,0-.58V37.4a35.65,35.65,0,0,1-.55,6c0,.31-.1.62-.16.93-.15.74-.31,1.49-.5,2.26s-.5,1.83-.81,2.75c.06.15.13.3.2.44h1.8a18.48,18.48,0,0,1-.32,2.48c.15.19.3.39.46.58.29.35.59.68.91,1a14.24,14.24,0,0,0,2.81,2.19h14.77a14.06,14.06,0,0,0,3.72-3.19l0,0c.11-.12.21-.26.31-.39l.29-.4a4.43,4.43,0,0,0,.29-.42c.1-.14.19-.29.28-.43s.23-.39.34-.59C224,50.36,223.92,50.09,223.82,49.82Zm0,0a16.56,16.56,0,0,1-.8-2.9h-.77a11.21,11.21,0,0,1-20.14,2.9,11,11,0,0,1-1.44-3.19,11.51,11.51,0,0,1-.38-2.36c0-.19,0-.39,0-.58V37.4a35.65,35.65,0,0,1-.55,6c0,.31-.1.62-.16.93-.15.74-.31,1.49-.5,2.26s-.5,1.83-.81,2.75c.06.15.13.3.2.44h1.8a18.48,18.48,0,0,1-.32,2.48c.15.19.3.39.46.58.29.35.59.68.91,1a14.24,14.24,0,0,0,2.81,2.19h14.77a14.06,14.06,0,0,0,3.72-3.19l0,0c.11-.12.21-.26.31-.39l.29-.4a4.43,4.43,0,0,0,.29-.42c.1-.14.19-.29.28-.43s.23-.39.34-.59C224,50.36,223.92,50.09,223.82,49.82Zm0,0a16.56,16.56,0,0,1-.8-2.9h-.77a11.21,11.21,0,0,1-20.14,2.9,11,11,0,0,1-1.44-3.19,11.51,11.51,0,0,1-.38-2.36c0-.19,0-.39,0-.58V37.4a35.65,35.65,0,0,1-.55,6c0,.31-.1.62-.16.93-.15.74-.31,1.49-.5,2.26s-.5,1.83-.81,2.75c.06.15.13.3.2.44h1.8a18.48,18.48,0,0,1-.32,2.48c.15.19.3.39.46.58.29.35.59.68.91,1a14.24,14.24,0,0,0,2.81,2.19h14.77a14.06,14.06,0,0,0,3.72-3.19l0,0c.11-.12.21-.26.31-.39l.29-.4a4.43,4.43,0,0,0,.29-.42c.1-.14.19-.29.28-.43s.23-.39.34-.59C224,50.36,223.92,50.09,223.82,49.82Zm0,0a16.56,16.56,0,0,1-.8-2.9h-.77a11.21,11.21,0,0,1-20.14,2.9,11,11,0,0,1-1.44-3.19,11.51,11.51,0,0,1-.38-2.36c0-.19,0-.39,0-.58V37.4a35.65,35.65,0,0,1-.55,6c0,.31-.1.62-.16.93-.15.74-.31,1.49-.5,2.26s-.5,1.83-.81,2.75c.06.15.13.3.2.44h1.8a18.48,18.48,0,0,1-.32,2.48c.15.19.3.39.46.58.29.35.59.68.91,1a14.24,14.24,0,0,0,2.81,2.19h14.77a14.06,14.06,0,0,0,3.72-3.19l0,0c.11-.12.21-.26.31-.39l.29-.4a4.43,4.43,0,0,0,.29-.42c.1-.14.19-.29.28-.43s.23-.39.34-.59C224,50.36,223.92,50.09,223.82,49.82Zm0,0a16.56,16.56,0,0,1-.8-2.9h-.77a11.21,11.21,0,0,1-20.14,2.9,11,11,0,0,1-1.44-3.19,11.51,11.51,0,0,1-.38-2.36c0-.19,0-.39,0-.58V37.4a35.65,35.65,0,0,1-.55,6c0,.31-.1.62-.16.93-.15.74-.31,1.49-.5,2.26s-.5,1.83-.81,2.75c.06.15.13.3.2.44h1.8a18.48,18.48,0,0,1-.32,2.48c.15.19.3.39.46.58.29.35.59.68.91,1a14.24,14.24,0,0,0,2.81,2.19h14.77a14.06,14.06,0,0,0,3.72-3.19l0,0c.11-.12.21-.26.31-.39l.29-.4a4.43,4.43,0,0,0,.29-.42c.1-.14.19-.29.28-.43s.23-.39.34-.59C224,50.36,223.92,50.09,223.82,49.82Zm0,0a16.56,16.56,0,0,1-.8-2.9h-.77a11.21,11.21,0,0,1-20.14,2.9,11,11,0,0,1-1.44-3.19,11.51,11.51,0,0,1-.38-2.36c0-.19,0-.39,0-.58V37.4a35.65,35.65,0,0,1-.55,6c0,.31-.1.62-.16.93-.15.74-.31,1.49-.5,2.26s-.5,1.83-.81,2.75c.06.15.13.3.2.44h1.8a18.48,18.48,0,0,1-.32,2.48c.15.19.3.39.46.58.29.35.59.68.91,1a14.24,14.24,0,0,0,2.81,2.19h14.77a14.06,14.06,0,0,0,3.72-3.19l0,0c.11-.12.21-.26.31-.39l.29-.4a4.43,4.43,0,0,0,.29-.42c.1-.14.19-.29.28-.43s.23-.39.34-.59C224,50.36,223.92,50.09,223.82,49.82Zm0,0a16.56,16.56,0,0,1-.8-2.9h-.77a11.21,11.21,0,0,1-20.14,2.9,11,11,0,0,1-1.44-3.19,11.51,11.51,0,0,1-.38-2.36c0-.19,0-.39,0-.58V37.4a35.65,35.65,0,0,1-.55,6c0,.31-.1.62-.16.93-.15.74-.31,1.49-.5,2.26s-.5,1.83-.81,2.75c.06.15.13.3.2.44h1.8a18.48,18.48,0,0,1-.32,2.48c.15.19.3.39.46.58.29.35.59.68.91,1a14.24,14.24,0,0,0,2.81,2.19h14.77a14.06,14.06,0,0,0,3.72-3.19l0,0c.11-.12.21-.26.31-.39l.29-.4a4.43,4.43,0,0,0,.29-.42c.1-.14.19-.29.28-.43s.23-.39.34-.59C224,50.36,223.92,50.09,223.82,49.82Zm0,0a16.56,16.56,0,0,1-.8-2.9h-.77a11.21,11.21,0,0,1-20.14,2.9,11,11,0,0,1-1.44-3.19,11.51,11.51,0,0,1-.38-2.36c0-.19,0-.39,0-.58V37.4a35.65,35.65,0,0,1-.55,6c0,.31-.1.62-.16.93-.15.74-.31,1.49-.5,2.26s-.5,1.83-.81,2.75c.06.15.13.3.2.44h1.8a18.48,18.48,0,0,1-.32,2.48c.15.19.3.39.46.58.29.35.59.68.91,1a14.24,14.24,0,0,0,2.81,2.19h14.77a14.06,14.06,0,0,0,3.72-3.19l0,0c.11-.12.21-.26.31-.39l.29-.4a4.43,4.43,0,0,0,.29-.42c.1-.14.19-.29.28-.43s.23-.39.34-.59C224,50.36,223.92,50.09,223.82,49.82Zm0,0a16.56,16.56,0,0,1-.8-2.9h-.77a11.21,11.21,0,0,1-20.14,2.9,11,11,0,0,1-1.44-3.19,11.51,11.51,0,0,1-.38-2.36c0-.19,0-.39,0-.58V37.4a35.65,35.65,0,0,1-.55,6c0,.31-.1.62-.16.93-.15.74-.31,1.49-.5,2.26s-.5,1.83-.81,2.75c.06.15.13.3.2.44h1.8a18.48,18.48,0,0,1-.32,2.48c.15.19.3.39.46.58.29.35.59.68.91,1a14.24,14.24,0,0,0,2.81,2.19h14.77a14.06,14.06,0,0,0,3.72-3.19l0,0c.11-.12.21-.26.31-.39l.29-.4a4.43,4.43,0,0,0,.29-.42c.1-.14.19-.29.28-.43s.23-.39.34-.59C224,50.36,223.92,50.09,223.82,49.82Zm0,0a16.56,16.56,0,0,1-.8-2.9h-.77a11.25,11.25,0,0,1-4.31,6h4.67l0,0c.11-.12.21-.26.31-.39l.29-.4a4.43,4.43,0,0,0,.29-.42c.1-.14.19-.29.28-.43s.23-.39.34-.59C224,50.36,223.92,50.09,223.82,49.82Zm-21.71,0a11,11,0,0,1-1.44-3.19,11.51,11.51,0,0,1-.38-2.36c0-.19,0-.39,0-.58V37.4a35.65,35.65,0,0,1-.55,6c0,.31-.1.62-.16.93-.15.74-.31,1.49-.5,2.26s-.5,1.83-.81,2.75c.06.15.13.3.2.44h1.8a18.48,18.48,0,0,1-.32,2.48c.15.19.3.39.46.58h4.66A11.16,11.16,0,0,1,202.11,49.82Zm23.45-29.13a14.42,14.42,0,0,0-28.47,3.21V43.69c0,.33,0,.67,0,1a14.06,14.06,0,0,0,.26,2,14.2,14.2,0,0,0,.87,2.75c.06.15.13.3.2.44a13.78,13.78,0,0,0,1.48,2.48c.15.19.3.39.46.58.29.35.59.68.91,1a14.4,14.4,0,0,0,17.58,2.19,14.06,14.06,0,0,0,3.72-3.19l0,0c.11-.12.21-.26.31-.39l.29-.4a4.43,4.43,0,0,0,.29-.42c.1-.14.19-.29.28-.43s.23-.39.34-.59a7.68,7.68,0,0,0,.41-.81,10.86,10.86,0,0,0,.45-1.06c.05-.12.09-.24.13-.36s.13-.38.18-.57a9.41,9.41,0,0,0,.25-.91l.06-.29a14.63,14.63,0,0,0,.3-2.9V23.9A14.17,14.17,0,0,0,225.56,20.69Zm-2.83,23a11.09,11.09,0,0,1-.39,2.9l-.09.29a11.21,11.21,0,0,1-20.14,2.9,11,11,0,0,1-1.44-3.19,11.51,11.51,0,0,1-.38-2.36c0-.19,0-.39,0-.58V23.9a11.23,11.23,0,1,1,22.45,0Zm-20.62,6.09a11,11,0,0,1-1.44-3.19,11.51,11.51,0,0,1-.38-2.36c0-.19,0-.39,0-.58V37.4a35.65,35.65,0,0,1-.55,6c0,.31-.1.62-.16.93-.15.74-.31,1.49-.5,2.26s-.5,1.83-.81,2.75c.06.15.13.3.2.44h1.8a18.48,18.48,0,0,1-.32,2.48c.15.19.3.39.46.58h4.66A11.16,11.16,0,0,1,202.11,49.82Zm21.71,0a16.56,16.56,0,0,1-.8-2.9h-.77a11.25,11.25,0,0,1-4.31,6h4.67l0,0c.11-.12.21-.26.31-.39l.29-.4a4.43,4.43,0,0,0,.29-.42c.1-.14.19-.29.28-.43s.23-.39.34-.59C224,50.36,223.92,50.09,223.82,49.82Zm0,0a16.56,16.56,0,0,1-.8-2.9h-.77a11.21,11.21,0,0,1-20.14,2.9,11,11,0,0,1-1.44-3.19,11.51,11.51,0,0,1-.38-2.36c0-.19,0-.39,0-.58V37.4a35.65,35.65,0,0,1-.55,6c0,.31-.1.62-.16.93-.15.74-.31,1.49-.5,2.26s-.5,1.83-.81,2.75c.06.15.13.3.2.44h1.8a18.48,18.48,0,0,1-.32,2.48c.15.19.3.39.46.58.29.35.59.68.91,1a14.24,14.24,0,0,0,2.81,2.19h14.77a14.06,14.06,0,0,0,3.72-3.19l0,0c.11-.12.21-.26.31-.39l.29-.4a4.43,4.43,0,0,0,.29-.42c.1-.14.19-.29.28-.43s.23-.39.34-.59C224,50.36,223.92,50.09,223.82,49.82Zm0,0a16.56,16.56,0,0,1-.8-2.9h-.77a11.21,11.21,0,0,1-20.14,2.9,11,11,0,0,1-1.44-3.19,11.51,11.51,0,0,1-.38-2.36c0-.19,0-.39,0-.58V37.4a35.65,35.65,0,0,1-.55,6c0,.31-.1.62-.16.93-.15.74-.31,1.49-.5,2.26s-.5,1.83-.81,2.75c.06.15.13.3.2.44h1.8a18.48,18.48,0,0,1-.32,2.48c.15.19.3.39.46.58.29.35.59.68.91,1a14.24,14.24,0,0,0,2.81,2.19h14.77a14.06,14.06,0,0,0,3.72-3.19l0,0c.11-.12.21-.26.31-.39l.29-.4a4.43,4.43,0,0,0,.29-.42c.1-.14.19-.29.28-.43s.23-.39.34-.59C224,50.36,223.92,50.09,223.82,49.82Zm0,0a16.56,16.56,0,0,1-.8-2.9h-.77a11.21,11.21,0,0,1-20.14,2.9,11,11,0,0,1-1.44-3.19,11.51,11.51,0,0,1-.38-2.36c0-.19,0-.39,0-.58V37.4a35.65,35.65,0,0,1-.55,6c0,.31-.1.62-.16.93-.15.74-.31,1.49-.5,2.26s-.5,1.83-.81,2.75c.06.15.13.3.2.44h1.8a18.48,18.48,0,0,1-.32,2.48c.15.19.3.39.46.58.29.35.59.68.91,1a14.24,14.24,0,0,0,2.81,2.19h14.77a14.06,14.06,0,0,0,3.72-3.19l0,0c.11-.12.21-.26.31-.39l.29-.4a4.43,4.43,0,0,0,.29-.42c.1-.14.19-.29.28-.43s.23-.39.34-.59C224,50.36,223.92,50.09,223.82,49.82Zm0,0a16.56,16.56,0,0,1-.8-2.9h-.77a11.21,11.21,0,0,1-20.14,2.9,11,11,0,0,1-1.44-3.19,11.51,11.51,0,0,1-.38-2.36c0-.19,0-.39,0-.58V37.4a35.65,35.65,0,0,1-.55,6c0,.31-.1.62-.16.93-.15.74-.31,1.49-.5,2.26s-.5,1.83-.81,2.75c.06.15.13.3.2.44h1.8a18.48,18.48,0,0,1-.32,2.48c.15.19.3.39.46.58.29.35.59.68.91,1a14.24,14.24,0,0,0,2.81,2.19h14.77a14.06,14.06,0,0,0,3.72-3.19l0,0c.11-.12.21-.26.31-.39l.29-.4a4.43,4.43,0,0,0,.29-.42c.1-.14.19-.29.28-.43s.23-.39.34-.59C224,50.36,223.92,50.09,223.82,49.82Zm0,0a16.56,16.56,0,0,1-.8-2.9h-.77a11.21,11.21,0,0,1-20.14,2.9,11,11,0,0,1-1.44-3.19,11.51,11.51,0,0,1-.38-2.36c0-.19,0-.39,0-.58V37.4a35.65,35.65,0,0,1-.55,6c0,.31-.1.62-.16.93-.15.74-.31,1.49-.5,2.26s-.5,1.83-.81,2.75c.06.15.13.3.2.44h1.8a18.48,18.48,0,0,1-.32,2.48c.15.19.3.39.46.58.29.35.59.68.91,1a14.24,14.24,0,0,0,2.81,2.19h14.77a14.06,14.06,0,0,0,3.72-3.19l0,0c.11-.12.21-.26.31-.39l.29-.4a4.43,4.43,0,0,0,.29-.42c.1-.14.19-.29.28-.43s.23-.39.34-.59C224,50.36,223.92,50.09,223.82,49.82Zm0,0a16.56,16.56,0,0,1-.8-2.9h-.77a11.21,11.21,0,0,1-20.14,2.9,11,11,0,0,1-1.44-3.19,11.51,11.51,0,0,1-.38-2.36c0-.19,0-.39,0-.58V37.4a35.65,35.65,0,0,1-.55,6c0,.31-.1.62-.16.93-.15.74-.31,1.49-.5,2.26s-.5,1.83-.81,2.75c.06.15.13.3.2.44h1.8a18.48,18.48,0,0,1-.32,2.48c.15.19.3.39.46.58.29.35.59.68.91,1a14.24,14.24,0,0,0,2.81,2.19h14.77a14.06,14.06,0,0,0,3.72-3.19l0,0c.11-.12.21-.26.31-.39l.29-.4a4.43,4.43,0,0,0,.29-.42c.1-.14.19-.29.28-.43s.23-.39.34-.59C224,50.36,223.92,50.09,223.82,49.82Zm0,0a16.56,16.56,0,0,1-.8-2.9h-.77a11.21,11.21,0,0,1-20.14,2.9,11,11,0,0,1-1.44-3.19,11.51,11.51,0,0,1-.38-2.36c0-.19,0-.39,0-.58V37.4a35.65,35.65,0,0,1-.55,6c0,.31-.1.62-.16.93-.15.74-.31,1.49-.5,2.26s-.5,1.83-.81,2.75c.06.15.13.3.2.44h1.8a18.48,18.48,0,0,1-.32,2.48c.15.19.3.39.46.58.29.35.59.68.91,1a14.24,14.24,0,0,0,2.81,2.19h14.77a14.06,14.06,0,0,0,3.72-3.19l0,0c.11-.12.21-.26.31-.39l.29-.4a4.43,4.43,0,0,0,.29-.42c.1-.14.19-.29.28-.43s.23-.39.34-.59C224,50.36,223.92,50.09,223.82,49.82Zm0,0a16.56,16.56,0,0,1-.8-2.9h-.77a11.21,11.21,0,0,1-20.14,2.9,11,11,0,0,1-1.44-3.19,11.51,11.51,0,0,1-.38-2.36c0-.19,0-.39,0-.58V37.4a35.65,35.65,0,0,1-.55,6c0,.31-.1.62-.16.93-.15.74-.31,1.49-.5,2.26s-.5,1.83-.81,2.75c.06.15.13.3.2.44h1.8a18.48,18.48,0,0,1-.32,2.48c.15.19.3.39.46.58.29.35.59.68.91,1a14.24,14.24,0,0,0,2.81,2.19h14.77a14.06,14.06,0,0,0,3.72-3.19l0,0c.11-.12.21-.26.31-.39l.29-.4a4.43,4.43,0,0,0,.29-.42c.1-.14.19-.29.28-.43s.23-.39.34-.59C224,50.36,223.92,50.09,223.82,49.82Zm0,0a16.56,16.56,0,0,1-.8-2.9h-.77a11.21,11.21,0,0,1-20.14,2.9,11,11,0,0,1-1.44-3.19,11.51,11.51,0,0,1-.38-2.36c0-.19,0-.39,0-.58V37.4a35.65,35.65,0,0,1-.55,6c0,.31-.1.62-.16.93-.15.74-.31,1.49-.5,2.26s-.5,1.83-.81,2.75c.06.15.13.3.2.44h1.8a18.48,18.48,0,0,1-.32,2.48c.15.19.3.39.46.58.29.35.59.68.91,1a14.24,14.24,0,0,0,2.81,2.19h14.77a14.06,14.06,0,0,0,3.72-3.19l0,0c.11-.12.21-.26.31-.39l.29-.4a4.43,4.43,0,0,0,.29-.42c.1-.14.19-.29.28-.43s.23-.39.34-.59C224,50.36,223.92,50.09,223.82,49.82Zm0,0a16.56,16.56,0,0,1-.8-2.9h-.77a11.21,11.21,0,0,1-20.14,2.9,11,11,0,0,1-1.44-3.19,11.51,11.51,0,0,1-.38-2.36c0-.19,0-.39,0-.58V37.4a35.65,35.65,0,0,1-.55,6c0,.31-.1.62-.16.93-.15.74-.31,1.49-.5,2.26s-.5,1.83-.81,2.75c.06.15.13.3.2.44h1.8a18.48,18.48,0,0,1-.32,2.48c.15.19.3.39.46.58.29.35.59.68.91,1a14.24,14.24,0,0,0,2.81,2.19h14.77a14.06,14.06,0,0,0,3.72-3.19l0,0c.11-.12.21-.26.31-.39l.29-.4a4.43,4.43,0,0,0,.29-.42c.1-.14.19-.29.28-.43s.23-.39.34-.59C224,50.36,223.92,50.09,223.82,49.82Z"/><path class="cls-1" d="M223,46.92h-.77a11.13,11.13,0,0,1-1.35,2.9h2.92A16.56,16.56,0,0,1,223,46.92Zm-22.35-.29a11.51,11.51,0,0,1-.38-2.36c0-.19,0-.39,0-.58V37.4a35.65,35.65,0,0,1-.55,6c0,.31-.1.62-.16.93-.15.74-.31,1.49-.5,2.26s-.5,1.83-.81,2.75c.06.15.13.3.2.44h3.65A11,11,0,0,1,200.67,46.63Zm22.35.29h-.77a11.13,11.13,0,0,1-1.35,2.9h2.92A16.56,16.56,0,0,1,223,46.92Zm-22.35-.29a11.51,11.51,0,0,1-.38-2.36c0-.19,0-.39,0-.58V37.4a35.65,35.65,0,0,1-.55,6c0,.31-.1.62-.16.93-.15.74-.31,1.49-.5,2.26s-.5,1.83-.81,2.75c.06.15.13.3.2.44h3.65A11,11,0,0,1,200.67,46.63Zm22.35.29h-.77a11.13,11.13,0,0,1-1.35,2.9h2.92A16.56,16.56,0,0,1,223,46.92Zm-22.35-.29a11.51,11.51,0,0,1-.38-2.36c0-.19,0-.39,0-.58V37.4a35.65,35.65,0,0,1-.55,6c0,.31-.1.62-.16.93-.15.74-.31,1.49-.5,2.26s-.5,1.83-.81,2.75c.06.15.13.3.2.44h3.65A11,11,0,0,1,200.67,46.63Zm23.15,3.19a16.56,16.56,0,0,1-.8-2.9h-.77a11.25,11.25,0,0,1-4.31,6h4.67l0,0c.11-.12.21-.26.31-.39l.29-.4a4.43,4.43,0,0,0,.29-.42c.1-.14.19-.29.28-.43s.23-.39.34-.59C224,50.36,223.92,50.09,223.82,49.82Zm-21.71,0a11,11,0,0,1-1.44-3.19,11.51,11.51,0,0,1-.38-2.36c0-.19,0-.39,0-.58V37.4a35.65,35.65,0,0,1-.55,6c0,.31-.1.62-.16.93-.15.74-.31,1.49-.5,2.26s-.5,1.83-.81,2.75c.06.15.13.3.2.44h1.8a18.48,18.48,0,0,1-.32,2.48c.15.19.3.39.46.58h4.66A11.16,11.16,0,0,1,202.11,49.82Zm21.71,0a16.56,16.56,0,0,1-.8-2.9h-.77a11.25,11.25,0,0,1-4.31,6h4.67l0,0c.11-.12.21-.26.31-.39l.29-.4a4.43,4.43,0,0,0,.29-.42c.1-.14.19-.29.28-.43s.23-.39.34-.59C224,50.36,223.92,50.09,223.82,49.82Zm-21.71,0a11,11,0,0,1-1.44-3.19,11.51,11.51,0,0,1-.38-2.36c0-.19,0-.39,0-.58V37.4a35.65,35.65,0,0,1-.55,6c0,.31-.1.62-.16.93-.15.74-.31,1.49-.5,2.26s-.5,1.83-.81,2.75c.06.15.13.3.2.44h1.8a18.48,18.48,0,0,1-.32,2.48c.15.19.3.39.46.58h4.66A11.16,11.16,0,0,1,202.11,49.82Zm21.71,0a16.56,16.56,0,0,1-.8-2.9h-.77a11.25,11.25,0,0,1-4.31,6h4.67l0,0c.11-.12.21-.26.31-.39l.29-.4a4.43,4.43,0,0,0,.29-.42c.1-.14.19-.29.28-.43s.23-.39.34-.59C224,50.36,223.92,50.09,223.82,49.82Zm-21.71,0a11,11,0,0,1-1.44-3.19,11.51,11.51,0,0,1-.38-2.36c0-.19,0-.39,0-.58V37.4a35.65,35.65,0,0,1-.55,6c0,.31-.1.62-.16.93-.15.74-.31,1.49-.5,2.26s-.5,1.83-.81,2.75c.06.15.13.3.2.44h1.8a18.48,18.48,0,0,1-.32,2.48c.15.19.3.39.46.58h4.66A11.16,11.16,0,0,1,202.11,49.82Zm21.71,0a16.56,16.56,0,0,1-.8-2.9h-.77a11.21,11.21,0,0,1-20.14,2.9,11,11,0,0,1-1.44-3.19,11.51,11.51,0,0,1-.38-2.36c0-.19,0-.39,0-.58V37.4a35.65,35.65,0,0,1-.55,6c0,.31-.1.62-.16.93-.15.74-.31,1.49-.5,2.26s-.5,1.83-.81,2.75c.06.15.13.3.2.44h1.8a18.48,18.48,0,0,1-.32,2.48c.15.19.3.39.46.58.29.35.59.68.91,1a14.24,14.24,0,0,0,2.81,2.19h14.77a14.06,14.06,0,0,0,3.72-3.19l0,0c.11-.12.21-.26.31-.39l.29-.4a4.43,4.43,0,0,0,.29-.42c.1-.14.19-.29.28-.43s.23-.39.34-.59C224,50.36,223.92,50.09,223.82,49.82Zm0,0a16.56,16.56,0,0,1-.8-2.9h-.77a11.21,11.21,0,0,1-20.14,2.9,11,11,0,0,1-1.44-3.19,11.51,11.51,0,0,1-.38-2.36c0-.19,0-.39,0-.58V37.4a35.65,35.65,0,0,1-.55,6c0,.31-.1.62-.16.93-.15.74-.31,1.49-.5,2.26s-.5,1.83-.81,2.75c.06.15.13.3.2.44h1.8a18.48,18.48,0,0,1-.32,2.48c.15.19.3.39.46.58.29.35.59.68.91,1a14.24,14.24,0,0,0,2.81,2.19h14.77a14.06,14.06,0,0,0,3.72-3.19l0,0c.11-.12.21-.26.31-.39l.29-.4a4.43,4.43,0,0,0,.29-.42c.1-.14.19-.29.28-.43s.23-.39.34-.59C224,50.36,223.92,50.09,223.82,49.82Zm0,0a16.56,16.56,0,0,1-.8-2.9h-.77a11.21,11.21,0,0,1-20.14,2.9,11,11,0,0,1-1.44-3.19,11.51,11.51,0,0,1-.38-2.36c0-.19,0-.39,0-.58V37.4a35.65,35.65,0,0,1-.55,6c0,.31-.1.62-.16.93-.15.74-.31,1.49-.5,2.26s-.5,1.83-.81,2.75c.06.15.13.3.2.44h1.8a18.48,18.48,0,0,1-.32,2.48c.15.19.3.39.46.58.29.35.59.68.91,1a14.24,14.24,0,0,0,2.81,2.19h14.77a14.06,14.06,0,0,0,3.72-3.19l0,0c.11-.12.21-.26.31-.39l.29-.4a4.43,4.43,0,0,0,.29-.42c.1-.14.19-.29.28-.43s.23-.39.34-.59C224,50.36,223.92,50.09,223.82,49.82Zm0,0a16.56,16.56,0,0,1-.8-2.9h-.77a11.21,11.21,0,0,1-20.14,2.9,11,11,0,0,1-1.44-3.19,11.51,11.51,0,0,1-.38-2.36c0-.19,0-.39,0-.58V37.4a35.65,35.65,0,0,1-.55,6c0,.31-.1.62-.16.93-.15.74-.31,1.49-.5,2.26s-.5,1.83-.81,2.75c.06.15.13.3.2.44h1.8a18.48,18.48,0,0,1-.32,2.48c.15.19.3.39.46.58.29.35.59.68.91,1a14.24,14.24,0,0,0,2.81,2.19h14.77a14.06,14.06,0,0,0,3.72-3.19l0,0c.11-.12.21-.26.31-.39l.29-.4a4.43,4.43,0,0,0,.29-.42c.1-.14.19-.29.28-.43s.23-.39.34-.59C224,50.36,223.92,50.09,223.82,49.82Zm0,0a16.56,16.56,0,0,1-.8-2.9h-.77a11.21,11.21,0,0,1-20.14,2.9,11,11,0,0,1-1.44-3.19,11.51,11.51,0,0,1-.38-2.36c0-.19,0-.39,0-.58V37.4a35.65,35.65,0,0,1-.55,6c0,.31-.1.62-.16.93-.15.74-.31,1.49-.5,2.26s-.5,1.83-.81,2.75c.06.15.13.3.2.44h1.8a18.48,18.48,0,0,1-.32,2.48c.15.19.3.39.46.58.29.35.59.68.91,1a14.24,14.24,0,0,0,2.81,2.19h14.77a14.06,14.06,0,0,0,3.72-3.19l0,0c.11-.12.21-.26.31-.39l.29-.4a4.43,4.43,0,0,0,.29-.42c.1-.14.19-.29.28-.43s.23-.39.34-.59C224,50.36,223.92,50.09,223.82,49.82Zm0,0a16.56,16.56,0,0,1-.8-2.9h-.77a11.21,11.21,0,0,1-20.14,2.9,11,11,0,0,1-1.44-3.19,11.51,11.51,0,0,1-.38-2.36c0-.19,0-.39,0-.58V37.4a35.65,35.65,0,0,1-.55,6c0,.31-.1.62-.16.93-.15.74-.31,1.49-.5,2.26s-.5,1.83-.81,2.75c.06.15.13.3.2.44h1.8a18.48,18.48,0,0,1-.32,2.48c.15.19.3.39.46.58.29.35.59.68.91,1a14.24,14.24,0,0,0,2.81,2.19h14.77a14.06,14.06,0,0,0,3.72-3.19l0,0c.11-.12.21-.26.31-.39l.29-.4a4.43,4.43,0,0,0,.29-.42c.1-.14.19-.29.28-.43s.23-.39.34-.59C224,50.36,223.92,50.09,223.82,49.82Zm0,0a16.56,16.56,0,0,1-.8-2.9h-.77a11.21,11.21,0,0,1-20.14,2.9,11,11,0,0,1-1.44-3.19,11.51,11.51,0,0,1-.38-2.36c0-.19,0-.39,0-.58V37.4a35.65,35.65,0,0,1-.55,6c0,.31-.1.62-.16.93-.15.74-.31,1.49-.5,2.26s-.5,1.83-.81,2.75c.06.15.13.3.2.44h1.8a18.48,18.48,0,0,1-.32,2.48c.15.19.3.39.46.58.29.35.59.68.91,1a14.24,14.24,0,0,0,2.81,2.19h14.77a14.06,14.06,0,0,0,3.72-3.19l0,0c.11-.12.21-.26.31-.39l.29-.4a4.43,4.43,0,0,0,.29-.42c.1-.14.19-.29.28-.43s.23-.39.34-.59C224,50.36,223.92,50.09,223.82,49.82Zm0,0a16.56,16.56,0,0,1-.8-2.9h-.77a11.21,11.21,0,0,1-20.14,2.9,11,11,0,0,1-1.44-3.19,11.51,11.51,0,0,1-.38-2.36c0-.19,0-.39,0-.58V37.4a35.65,35.65,0,0,1-.55,6c0,.31-.1.62-.16.93-.15.74-.31,1.49-.5,2.26s-.5,1.83-.81,2.75c.06.15.13.3.2.44h1.8a18.48,18.48,0,0,1-.32,2.48c.15.19.3.39.46.58.29.35.59.68.91,1a14.24,14.24,0,0,0,2.81,2.19h14.77a14.06,14.06,0,0,0,3.72-3.19l0,0c.11-.12.21-.26.31-.39l.29-.4a4.43,4.43,0,0,0,.29-.42c.1-.14.19-.29.28-.43s.23-.39.34-.59C224,50.36,223.92,50.09,223.82,49.82Zm0,0a16.56,16.56,0,0,1-.8-2.9h-.77a11.21,11.21,0,0,1-20.14,2.9,11,11,0,0,1-1.44-3.19,11.51,11.51,0,0,1-.38-2.36c0-.19,0-.39,0-.58V37.4a35.65,35.65,0,0,1-.55,6c0,.31-.1.62-.16.93-.15.74-.31,1.49-.5,2.26s-.5,1.83-.81,2.75c.06.15.13.3.2.44h1.8a18.48,18.48,0,0,1-.32,2.48c.15.19.3.39.46.58.29.35.59.68.91,1a14.24,14.24,0,0,0,2.81,2.19h14.77a14.06,14.06,0,0,0,3.72-3.19l0,0c.11-.12.21-.26.31-.39l.29-.4a4.43,4.43,0,0,0,.29-.42c.1-.14.19-.29.28-.43s.23-.39.34-.59C224,50.36,223.92,50.09,223.82,49.82Zm0,0a16.56,16.56,0,0,1-.8-2.9h-.77a11.21,11.21,0,0,1-20.14,2.9,11,11,0,0,1-1.44-3.19,11.51,11.51,0,0,1-.38-2.36c0-.19,0-.39,0-.58V37.4a35.65,35.65,0,0,1-.55,6c0,.31-.1.62-.16.93-.15.74-.31,1.49-.5,2.26s-.5,1.83-.81,2.75c.06.15.13.3.2.44h1.8a18.48,18.48,0,0,1-.32,2.48c.15.19.3.39.46.58.29.35.59.68.91,1a14.24,14.24,0,0,0,2.81,2.19h14.77a14.06,14.06,0,0,0,3.72-3.19l0,0c.11-.12.21-.26.31-.39l.29-.4a4.43,4.43,0,0,0,.29-.42c.1-.14.19-.29.28-.43s.23-.39.34-.59C224,50.36,223.92,50.09,223.82,49.82Zm0,0a16.56,16.56,0,0,1-.8-2.9h-.77a11.21,11.21,0,0,1-20.14,2.9,11,11,0,0,1-1.44-3.19,11.51,11.51,0,0,1-.38-2.36c0-.19,0-.39,0-.58V37.4a35.65,35.65,0,0,1-.55,6c0,.31-.1.62-.16.93-.15.74-.31,1.49-.5,2.26s-.5,1.83-.81,2.75c.06.15.13.3.2.44h1.8a18.48,18.48,0,0,1-.32,2.48c.15.19.3.39.46.58.29.35.59.68.91,1a14.24,14.24,0,0,0,2.81,2.19h14.77a14.06,14.06,0,0,0,3.72-3.19l0,0c.11-.12.21-.26.31-.39l.29-.4a4.43,4.43,0,0,0,.29-.42c.1-.14.19-.29.28-.43s.23-.39.34-.59C224,50.36,223.92,50.09,223.82,49.82Zm0,0a16.56,16.56,0,0,1-.8-2.9h-.77a11.25,11.25,0,0,1-4.31,6h4.67l0,0c.11-.12.21-.26.31-.39l.29-.4a4.43,4.43,0,0,0,.29-.42c.1-.14.19-.29.28-.43s.23-.39.34-.59C224,50.36,223.92,50.09,223.82,49.82Zm-21.71,0a11,11,0,0,1-1.44-3.19,11.51,11.51,0,0,1-.38-2.36c0-.19,0-.39,0-.58V37.4a35.65,35.65,0,0,1-.55,6c0,.31-.1.62-.16.93-.15.74-.31,1.49-.5,2.26s-.5,1.83-.81,2.75c.06.15.13.3.2.44h1.8a18.48,18.48,0,0,1-.32,2.48c.15.19.3.39.46.58h4.66A11.16,11.16,0,0,1,202.11,49.82Zm26.83-28.39a17,17,0,0,0-.95-3.71,17.6,17.6,0,0,0-31.27-3.38,17.46,17.46,0,0,0-2.83,9.56V43.69c0,.47,0,.94.06,1.4s.1,1,.19,1.54a16.65,16.65,0,0,0,.72,2.82c0,.12.08.25.13.37a18,18,0,0,0,1.49,3.06l0,0,.22.35a17,17,0,0,0,2.08,2.62l.17.18a17.79,17.79,0,0,0,4.31,3.19,17.54,17.54,0,0,0,16.42,0A17.79,17.79,0,0,0,224,56.07a17.11,17.11,0,0,0,1.89-2.27c.22-.3.42-.61.61-.92a17.6,17.6,0,0,0,1.16-2.24c.12-.27.23-.54.33-.82a16.56,16.56,0,0,0,.8-2.9,2.5,2.5,0,0,0,.05-.29,17.28,17.28,0,0,0,.25-2.9V23.9A18.3,18.3,0,0,0,228.94,21.43Zm-6.21,22.3a11.09,11.09,0,0,1-.39,2.9l-.09.29a11.21,11.21,0,0,1-20.14,2.9,11,11,0,0,1-1.44-3.19,11.51,11.51,0,0,1-.38-2.36c0-.19,0-.39,0-.58V23.9a11.23,11.23,0,1,1,22.45,0Zm-20.62,6.09a11,11,0,0,1-1.44-3.19,11.51,11.51,0,0,1-.38-2.36c0-.19,0-.39,0-.58V37.4a35.65,35.65,0,0,1-.55,6c0,.31-.1.62-.16.93-.15.74-.31,1.49-.5,2.26s-.5,1.83-.81,2.75c.06.15.13.3.2.44h1.8a18.48,18.48,0,0,1-.32,2.48c.15.19.3.39.46.58h4.66A11.16,11.16,0,0,1,202.11,49.82Zm21.71,0a16.56,16.56,0,0,1-.8-2.9h-.77a11.25,11.25,0,0,1-4.31,6h4.67l0,0c.11-.12.21-.26.31-.39l.29-.4a4.43,4.43,0,0,0,.29-.42c.1-.14.19-.29.28-.43s.23-.39.34-.59C224,50.36,223.92,50.09,223.82,49.82Zm0,0a16.56,16.56,0,0,1-.8-2.9h-.77a11.21,11.21,0,0,1-20.14,2.9,11,11,0,0,1-1.44-3.19,11.51,11.51,0,0,1-.38-2.36c0-.19,0-.39,0-.58V37.4a35.65,35.65,0,0,1-.55,6c0,.31-.1.62-.16.93-.15.74-.31,1.49-.5,2.26s-.5,1.83-.81,2.75c.06.15.13.3.2.44h1.8a18.48,18.48,0,0,1-.32,2.48c.15.19.3.39.46.58.29.35.59.68.91,1a14.24,14.24,0,0,0,2.81,2.19h14.77a14.06,14.06,0,0,0,3.72-3.19l0,0c.11-.12.21-.26.31-.39l.29-.4a4.43,4.43,0,0,0,.29-.42c.1-.14.19-.29.28-.43s.23-.39.34-.59C224,50.36,223.92,50.09,223.82,49.82Zm0,0a16.56,16.56,0,0,1-.8-2.9h-.77a11.21,11.21,0,0,1-20.14,2.9,11,11,0,0,1-1.44-3.19,11.51,11.51,0,0,1-.38-2.36c0-.19,0-.39,0-.58V37.4a35.65,35.65,0,0,1-.55,6c0,.31-.1.62-.16.93-.15.74-.31,1.49-.5,2.26s-.5,1.83-.81,2.75c.06.15.13.3.2.44h1.8a18.48,18.48,0,0,1-.32,2.48c.15.19.3.39.46.58.29.35.59.68.91,1a14.24,14.24,0,0,0,2.81,2.19h14.77a14.06,14.06,0,0,0,3.72-3.19l0,0c.11-.12.21-.26.31-.39l.29-.4a4.43,4.43,0,0,0,.29-.42c.1-.14.19-.29.28-.43s.23-.39.34-.59C224,50.36,223.92,50.09,223.82,49.82Zm0,0a16.56,16.56,0,0,1-.8-2.9h-.77a11.21,11.21,0,0,1-20.14,2.9,11,11,0,0,1-1.44-3.19,11.51,11.51,0,0,1-.38-2.36c0-.19,0-.39,0-.58V37.4a35.65,35.65,0,0,1-.55,6c0,.31-.1.62-.16.93-.15.74-.31,1.49-.5,2.26s-.5,1.83-.81,2.75c.06.15.13.3.2.44h1.8a18.48,18.48,0,0,1-.32,2.48c.15.19.3.39.46.58.29.35.59.68.91,1a14.24,14.24,0,0,0,2.81,2.19h14.77a14.06,14.06,0,0,0,3.72-3.19l0,0c.11-.12.21-.26.31-.39l.29-.4a4.43,4.43,0,0,0,.29-.42c.1-.14.19-.29.28-.43s.23-.39.34-.59C224,50.36,223.92,50.09,223.82,49.82Zm0,0a16.56,16.56,0,0,1-.8-2.9h-.77a11.21,11.21,0,0,1-20.14,2.9,11,11,0,0,1-1.44-3.19,11.51,11.51,0,0,1-.38-2.36c0-.19,0-.39,0-.58V37.4a35.65,35.65,0,0,1-.55,6c0,.31-.1.62-.16.93-.15.74-.31,1.49-.5,2.26s-.5,1.83-.81,2.75c.06.15.13.3.2.44h1.8a18.48,18.48,0,0,1-.32,2.48c.15.19.3.39.46.58.29.35.59.68.91,1a14.24,14.24,0,0,0,2.81,2.19h14.77a14.06,14.06,0,0,0,3.72-3.19l0,0c.11-.12.21-.26.31-.39l.29-.4a4.43,4.43,0,0,0,.29-.42c.1-.14.19-.29.28-.43s.23-.39.34-.59C224,50.36,223.92,50.09,223.82,49.82Zm0,0a16.56,16.56,0,0,1-.8-2.9h-.77a11.21,11.21,0,0,1-20.14,2.9,11,11,0,0,1-1.44-3.19,11.51,11.51,0,0,1-.38-2.36c0-.19,0-.39,0-.58V37.4a35.65,35.65,0,0,1-.55,6c0,.31-.1.62-.16.93-.15.74-.31,1.49-.5,2.26s-.5,1.83-.81,2.75c.06.15.13.3.2.44h1.8a18.48,18.48,0,0,1-.32,2.48c.15.19.3.39.46.58.29.35.59.68.91,1a14.24,14.24,0,0,0,2.81,2.19h14.77a14.06,14.06,0,0,0,3.72-3.19l0,0c.11-.12.21-.26.31-.39l.29-.4a4.43,4.43,0,0,0,.29-.42c.1-.14.19-.29.28-.43s.23-.39.34-.59C224,50.36,223.92,50.09,223.82,49.82Zm0,0a16.56,16.56,0,0,1-.8-2.9h-.77a11.21,11.21,0,0,1-20.14,2.9,11,11,0,0,1-1.44-3.19,11.51,11.51,0,0,1-.38-2.36c0-.19,0-.39,0-.58V37.4a35.65,35.65,0,0,1-.55,6c0,.31-.1.62-.16.93-.15.74-.31,1.49-.5,2.26s-.5,1.83-.81,2.75c.06.15.13.3.2.44h1.8a18.48,18.48,0,0,1-.32,2.48c.15.19.3.39.46.58.29.35.59.68.91,1a14.24,14.24,0,0,0,2.81,2.19h14.77a14.06,14.06,0,0,0,3.72-3.19l0,0c.11-.12.21-.26.31-.39l.29-.4a4.43,4.43,0,0,0,.29-.42c.1-.14.19-.29.28-.43s.23-.39.34-.59C224,50.36,223.92,50.09,223.82,49.82Zm0,0a16.56,16.56,0,0,1-.8-2.9h-.77a11.21,11.21,0,0,1-20.14,2.9,11,11,0,0,1-1.44-3.19,11.51,11.51,0,0,1-.38-2.36c0-.19,0-.39,0-.58V37.4a35.65,35.65,0,0,1-.55,6c0,.31-.1.62-.16.93-.15.74-.31,1.49-.5,2.26s-.5,1.83-.81,2.75c.06.15.13.3.2.44h1.8a18.48,18.48,0,0,1-.32,2.48c.15.19.3.39.46.58.29.35.59.68.91,1a14.24,14.24,0,0,0,2.81,2.19h14.77a14.06,14.06,0,0,0,3.72-3.19l0,0c.11-.12.21-.26.31-.39l.29-.4a4.43,4.43,0,0,0,.29-.42c.1-.14.19-.29.28-.43s.23-.39.34-.59C224,50.36,223.92,50.09,223.82,49.82Zm0,0a16.56,16.56,0,0,1-.8-2.9h-.77a11.21,11.21,0,0,1-20.14,2.9,11,11,0,0,1-1.44-3.19,11.51,11.51,0,0,1-.38-2.36c0-.19,0-.39,0-.58V37.4a35.65,35.65,0,0,1-.55,6c0,.31-.1.62-.16.93-.15.74-.31,1.49-.5,2.26s-.5,1.83-.81,2.75c.06.15.13.3.2.44h1.8a18.48,18.48,0,0,1-.32,2.48c.15.19.3.39.46.58.29.35.59.68.91,1a14.24,14.24,0,0,0,2.81,2.19h14.77a14.06,14.06,0,0,0,3.72-3.19l0,0c.11-.12.21-.26.31-.39l.29-.4a4.43,4.43,0,0,0,.29-.42c.1-.14.19-.29.28-.43s.23-.39.34-.59C224,50.36,223.92,50.09,223.82,49.82Zm0,0a16.56,16.56,0,0,1-.8-2.9h-.77a11.21,11.21,0,0,1-20.14,2.9,11,11,0,0,1-1.44-3.19,11.51,11.51,0,0,1-.38-2.36c0-.19,0-.39,0-.58V37.4a35.65,35.65,0,0,1-.55,6c0,.31-.1.62-.16.93-.15.74-.31,1.49-.5,2.26s-.5,1.83-.81,2.75c.06.15.13.3.2.44h1.8a18.48,18.48,0,0,1-.32,2.48c.15.19.3.39.46.58.29.35.59.68.91,1a14.24,14.24,0,0,0,2.81,2.19h14.77a14.06,14.06,0,0,0,3.72-3.19l0,0c.11-.12.21-.26.31-.39l.29-.4a4.43,4.43,0,0,0,.29-.42c.1-.14.19-.29.28-.43s.23-.39.34-.59C224,50.36,223.92,50.09,223.82,49.82Zm0,0a16.56,16.56,0,0,1-.8-2.9h-.77a11.21,11.21,0,0,1-20.14,2.9,11,11,0,0,1-1.44-3.19,11.51,11.51,0,0,1-.38-2.36c0-.19,0-.39,0-.58V37.4a35.65,35.65,0,0,1-.55,6c0,.31-.1.62-.16.93-.15.74-.31,1.49-.5,2.26s-.5,1.83-.81,2.75c.06.15.13.3.2.44h1.8a18.48,18.48,0,0,1-.32,2.48c.15.19.3.39.46.58.29.35.59.68.91,1a14.24,14.24,0,0,0,2.81,2.19h14.77a14.06,14.06,0,0,0,3.72-3.19l0,0c.11-.12.21-.26.31-.39l.29-.4a4.43,4.43,0,0,0,.29-.42c.1-.14.19-.29.28-.43s.23-.39.34-.59C224,50.36,223.92,50.09,223.82,49.82Zm-21.71,0a11,11,0,0,1-1.44-3.19,11.51,11.51,0,0,1-.38-2.36c0-.19,0-.39,0-.58V37.4a35.65,35.65,0,0,1-.55,6c0,.31-.1.62-.16.93-.15.74-.31,1.49-.5,2.26s-.5,1.83-.81,2.75c.06.15.13.3.2.44h1.8a18.48,18.48,0,0,1-.32,2.48c.15.19.3.39.46.58h4.66A11.16,11.16,0,0,1,202.11,49.82Zm21.71,0a16.56,16.56,0,0,1-.8-2.9h-.77a11.25,11.25,0,0,1-4.31,6h4.67l0,0c.11-.12.21-.26.31-.39l.29-.4a4.43,4.43,0,0,0,.29-.42c.1-.14.19-.29.28-.43s.23-.39.34-.59C224,50.36,223.92,50.09,223.82,49.82Zm-21.71,0a11,11,0,0,1-1.44-3.19,11.51,11.51,0,0,1-.38-2.36c0-.19,0-.39,0-.58V37.4a35.65,35.65,0,0,1-.55,6c0,.31-.1.62-.16.93-.15.74-.31,1.49-.5,2.26s-.5,1.83-.81,2.75c.06.15.13.3.2.44h1.8a18.48,18.48,0,0,1-.32,2.48c.15.19.3.39.46.58h4.66A11.16,11.16,0,0,1,202.11,49.82Zm21.71,0a16.56,16.56,0,0,1-.8-2.9h-.77a11.25,11.25,0,0,1-4.31,6h4.67l0,0c.11-.12.21-.26.31-.39l.29-.4a4.43,4.43,0,0,0,.29-.42c.1-.14.19-.29.28-.43s.23-.39.34-.59C224,50.36,223.92,50.09,223.82,49.82Zm-21.71,0a11,11,0,0,1-1.44-3.19,11.51,11.51,0,0,1-.38-2.36c0-.19,0-.39,0-.58V37.4a35.65,35.65,0,0,1-.55,6c0,.31-.1.62-.16.93-.15.74-.31,1.49-.5,2.26s-.5,1.83-.81,2.75c.06.15.13.3.2.44h1.8a18.48,18.48,0,0,1-.32,2.48c.15.19.3.39.46.58h4.66A11.16,11.16,0,0,1,202.11,49.82Zm21.71,0a16.56,16.56,0,0,1-.8-2.9h-.77a11.25,11.25,0,0,1-4.31,6h4.67l0,0c.11-.12.21-.26.31-.39l.29-.4a4.43,4.43,0,0,0,.29-.42c.1-.14.19-.29.28-.43s.23-.39.34-.59C224,50.36,223.92,50.09,223.82,49.82Zm-21.71,0a11,11,0,0,1-1.44-3.19,11.51,11.51,0,0,1-.38-2.36c0-.19,0-.39,0-.58V37.4a35.65,35.65,0,0,1-.55,6c0,.31-.1.62-.16.93-.15.74-.31,1.49-.5,2.26s-.5,1.83-.81,2.75c.06.15.13.3.2.44h1.8a18.48,18.48,0,0,1-.32,2.48c.15.19.3.39.46.58h4.66A11.16,11.16,0,0,1,202.11,49.82Zm21.71,0a16.56,16.56,0,0,1-.8-2.9h-.77a11.25,11.25,0,0,1-4.31,6h4.67l0,0c.11-.12.21-.26.31-.39l.29-.4a4.43,4.43,0,0,0,.29-.42c.1-.14.19-.29.28-.43s.23-.39.34-.59C224,50.36,223.92,50.09,223.82,49.82Zm-23.15-3.19a11.51,11.51,0,0,1-.38-2.36c0-.19,0-.39,0-.58V37.4a35.65,35.65,0,0,1-.55,6c0,.31-.1.62-.16.93-.15.74-.31,1.49-.5,2.26s-.5,1.83-.81,2.75c.06.15.13.3.2.44h3.65A11,11,0,0,1,200.67,46.63Zm22.35.29h-.77a11.13,11.13,0,0,1-1.35,2.9h2.92A16.56,16.56,0,0,1,223,46.92Zm-22.35-.29a11.51,11.51,0,0,1-.38-2.36c0-.19,0-.39,0-.58V37.4a35.65,35.65,0,0,1-.55,6c0,.31-.1.62-.16.93-.15.74-.31,1.49-.5,2.26s-.5,1.83-.81,2.75c.06.15.13.3.2.44h3.65A11,11,0,0,1,200.67,46.63Zm22.35.29h-.77a11.13,11.13,0,0,1-1.35,2.9h2.92A16.56,16.56,0,0,1,223,46.92Zm-22.35-.29a11.51,11.51,0,0,1-.38-2.36c0-.19,0-.39,0-.58V37.4a35.65,35.65,0,0,1-.55,6c0,.31-.1.62-.16.93-.15.74-.31,1.49-.5,2.26s-.5,1.83-.81,2.75c.06.15.13.3.2.44h3.65A11,11,0,0,1,200.67,46.63Zm22.35.29h-.77a11.13,11.13,0,0,1-1.35,2.9h2.92A16.56,16.56,0,0,1,223,46.92Z"/><path class="cls-1" d="M249.75,49.85a11.3,11.3,0,0,1-2.9,3h2.63a1.53,1.53,0,0,0,.27-3Zm-18.84,0a10.76,10.76,0,0,1-1.33-2.9,2.46,2.46,0,0,1-.09-.29,11.14,11.14,0,0,1-.38-2.9,17.28,17.28,0,0,1-.25,2.9,2.5,2.5,0,0,1-.05.29h-2.53c.07.33.16.66.26,1a4.5,4.5,0,0,0,.16.48s0,0,0,0,.06.2.1.3.17.43.26.64.12.29.19.43,0,0,0,0c.12.28.26.55.4.82a14.46,14.46,0,0,0,1.52,2.24h4.64A11.24,11.24,0,0,1,230.91,49.82Zm18.84,0a11.3,11.3,0,0,1-2.9,3h2.63a1.53,1.53,0,0,0,.27-3Zm-18.84,0a10.76,10.76,0,0,1-1.33-2.9,2.46,2.46,0,0,1-.09-.29,11.14,11.14,0,0,1-.38-2.9,17.28,17.28,0,0,1-.25,2.9,2.5,2.5,0,0,1-.05.29h-2.53c.07.33.16.66.26,1a4.5,4.5,0,0,0,.16.48s0,0,0,0,.06.2.1.3.17.43.26.64.12.29.19.43,0,0,0,0c.12.28.26.55.4.82a14.46,14.46,0,0,0,1.52,2.24h4.64A11.24,11.24,0,0,1,230.91,49.82Zm18.84,0a11.3,11.3,0,0,1-2.9,3h2.63a1.53,1.53,0,0,0,.27-3Zm-18.84,0a10.76,10.76,0,0,1-1.33-2.9,2.46,2.46,0,0,1-.09-.29,11.14,11.14,0,0,1-.38-2.9,17.28,17.28,0,0,1-.25,2.9,2.5,2.5,0,0,1-.05.29h-2.53c.07.33.16.66.26,1a4.5,4.5,0,0,0,.16.48s0,0,0,0,.06.2.1.3.17.43.26.64.12.29.19.43,0,0,0,0c.12.28.26.55.4.82a14.46,14.46,0,0,0,1.52,2.24h4.64A11.24,11.24,0,0,1,230.91,49.82Zm18.84,0a11.3,11.3,0,0,1-2.9,3h2.63a1.53,1.53,0,0,0,.27-3Zm-18.84,0a10.76,10.76,0,0,1-1.33-2.9,2.46,2.46,0,0,1-.09-.29,11.14,11.14,0,0,1-.38-2.9,17.28,17.28,0,0,1-.25,2.9,2.5,2.5,0,0,1-.05.29h-2.53c.07.33.16.66.26,1a4.5,4.5,0,0,0,.16.48s0,0,0,0,.06.2.1.3.17.43.26.64.12.29.19.43,0,0,0,0c.12.28.26.55.4.82a14.46,14.46,0,0,0,1.52,2.24h4.64A11.24,11.24,0,0,1,230.91,49.82Zm18.84,0a11.3,11.3,0,0,1-2.9,3h2.63a1.53,1.53,0,0,0,.27-3Zm-18.84,0a10.76,10.76,0,0,1-1.33-2.9,2.46,2.46,0,0,1-.09-.29,11.14,11.14,0,0,1-.38-2.9,17.28,17.28,0,0,1-.25,2.9,2.5,2.5,0,0,1-.05.29h-2.53c.07.33.16.66.26,1a4.5,4.5,0,0,0,.16.48s0,0,0,0,.06.2.1.3.17.43.26.64.12.29.19.43,0,0,0,0c.12.28.26.55.4.82a14.46,14.46,0,0,0,1.52,2.24h4.64A11.24,11.24,0,0,1,230.91,49.82Zm18.84,0a11.3,11.3,0,0,1-2.9,3h2.63a1.53,1.53,0,0,0,.27-3Zm-18.84,0a10.76,10.76,0,0,1-1.33-2.9,2.46,2.46,0,0,1-.09-.29,11.14,11.14,0,0,1-.38-2.9,17.28,17.28,0,0,1-.25,2.9,2.5,2.5,0,0,1-.05.29h-2.53c.07.33.16.66.26,1a4.5,4.5,0,0,0,.16.48s0,0,0,0,.06.2.1.3.17.43.26.64.12.29.19.43,0,0,0,0c.12.28.26.55.4.82a14.46,14.46,0,0,0,1.52,2.24h4.64A11.24,11.24,0,0,1,230.91,49.82Zm18.84,0a11.3,11.3,0,0,1-2.9,3h2.63a1.53,1.53,0,0,0,.27-3Zm-18.84,0a10.76,10.76,0,0,1-1.33-2.9,2.46,2.46,0,0,1-.09-.29,11.14,11.14,0,0,1-.38-2.9,17.28,17.28,0,0,1-.25,2.9,2.5,2.5,0,0,1-.05.29h-2.53c.07.33.16.66.26,1a4.5,4.5,0,0,0,.16.48s0,0,0,0,.06.2.1.3.17.43.26.64.12.29.19.43,0,0,0,0c.12.28.26.55.4.82a14.46,14.46,0,0,0,1.52,2.24h4.64A11.24,11.24,0,0,1,230.91,49.82Zm18.84,0a11.3,11.3,0,0,1-2.9,3h2.63a1.53,1.53,0,0,0,.27-3Zm-18.84,0a10.76,10.76,0,0,1-1.33-2.9,2.46,2.46,0,0,1-.09-.29,11.14,11.14,0,0,1-.38-2.9,17.28,17.28,0,0,1-.25,2.9,2.5,2.5,0,0,1-.05.29h-2.53c.07.33.16.66.26,1a4.5,4.5,0,0,0,.16.48s0,0,0,0,.06.2.1.3.17.43.26.64.12.29.19.43,0,0,0,0c.12.28.26.55.4.82a14.46,14.46,0,0,0,1.52,2.24h4.64A11.24,11.24,0,0,1,230.91,49.82Zm18.84,0a11.3,11.3,0,0,1-2.9,3h2.63a1.53,1.53,0,0,0,.27-3Zm-18.84,0a10.76,10.76,0,0,1-1.33-2.9,2.46,2.46,0,0,1-.09-.29,11.14,11.14,0,0,1-.38-2.9,17.28,17.28,0,0,1-.25,2.9,2.5,2.5,0,0,1-.05.29h-2.53c.07.33.16.66.26,1a4.5,4.5,0,0,0,.16.48s0,0,0,0,.06.2.1.3.17.43.26.64.12.29.19.43,0,0,0,0c.12.28.26.55.4.82a14.46,14.46,0,0,0,1.52,2.24h4.64A11.24,11.24,0,0,1,230.91,49.82Zm18.84,0a11.3,11.3,0,0,1-2.9,3h2.63a1.53,1.53,0,0,0,.27-3Zm-18.84,0a10.76,10.76,0,0,1-1.33-2.9,2.46,2.46,0,0,1-.09-.29,11.14,11.14,0,0,1-.38-2.9,17.28,17.28,0,0,1-.25,2.9,2.5,2.5,0,0,1-.05.29h-2.53c.07.33.16.66.26,1a4.5,4.5,0,0,0,.16.48s0,0,0,0,.06.2.1.3.17.43.26.64.12.29.19.43,0,0,0,0c.12.28.26.55.4.82a14.46,14.46,0,0,0,1.52,2.24h4.64A11.24,11.24,0,0,1,230.91,49.82Zm18.84,0a11.3,11.3,0,0,1-2.9,3h2.63a1.53,1.53,0,0,0,.27-3Zm-18.84,0a10.76,10.76,0,0,1-1.33-2.9,2.46,2.46,0,0,1-.09-.29,11.14,11.14,0,0,1-.38-2.9,17.28,17.28,0,0,1-.25,2.9,2.5,2.5,0,0,1-.05.29h-2.53c.07.33.16.66.26,1a4.5,4.5,0,0,0,.16.48s0,0,0,0,.06.2.1.3.17.43.26.64.12.29.19.43,0,0,0,0c.12.28.26.55.4.82a14.46,14.46,0,0,0,1.52,2.24h4.64A11.24,11.24,0,0,1,230.91,49.82Zm18.84,0a11.3,11.3,0,0,1-2.9,3h2.63a1.53,1.53,0,0,0,.27-3Zm-18.84,0a10.76,10.76,0,0,1-1.33-2.9,2.46,2.46,0,0,1-.09-.29,11.14,11.14,0,0,1-.38-2.9,17.28,17.28,0,0,1-.25,2.9,2.5,2.5,0,0,1-.05.29h-2.53c.07.33.16.66.26,1a4.5,4.5,0,0,0,.16.48s0,0,0,0,.06.2.1.3.17.43.26.64.12.29.19.43,0,0,0,0c.12.28.26.55.4.82a14.46,14.46,0,0,0,1.52,2.24h4.64A11.24,11.24,0,0,1,230.91,49.82Zm23.84-19.94a14.41,14.41,0,0,0-28.82,0c0,.12,0,.25,0,.37V43.73a14.63,14.63,0,0,0,.29,2.9c0,.09,0,.19.07.29.07.33.16.66.26,1a4.5,4.5,0,0,0,.16.48s0,0,0,0,.06.2.1.3.17.43.26.64.12.29.19.43,0,0,0,0c.12.28.26.55.4.82a14.46,14.46,0,0,0,1.52,2.24c.3.36.62.71,1,1a14.4,14.4,0,0,0,21.42-1.15,14.07,14.07,0,0,0,2.11-3.57,14.32,14.32,0,0,0,1-3.82,14.93,14.93,0,0,0,.09-1.65V30.25C254.76,30.13,254.76,30,254.75,29.88Zm-3.18,13.85a11.34,11.34,0,0,1-1.82,6.12,11.3,11.3,0,0,1-2.9,3,11.24,11.24,0,0,1-15.94-3.06,10.76,10.76,0,0,1-1.33-2.9,2.46,2.46,0,0,1-.09-.29,11.14,11.14,0,0,1-.38-2.9V30.25c0-.12,0-.25,0-.37a11.23,11.23,0,0,1,22.44,0c0,.12,0,.25,0,.37Zm-20.66,6.09a10.76,10.76,0,0,1-1.33-2.9,2.46,2.46,0,0,1-.09-.29,11.14,11.14,0,0,1-.38-2.9,17.28,17.28,0,0,1-.25,2.9,2.5,2.5,0,0,1-.05.29h-2.53c.07.33.16.66.26,1a4.5,4.5,0,0,0,.16.48s0,0,0,0,.06.2.1.3.17.43.26.64.12.29.19.43,0,0,0,0c.12.28.26.55.4.82a14.46,14.46,0,0,0,1.52,2.24h4.64A11.24,11.24,0,0,1,230.91,49.82Zm18.84,0a11.3,11.3,0,0,1-2.9,3h2.63a1.53,1.53,0,0,0,.27-3Zm-18.84,0a10.76,10.76,0,0,1-1.33-2.9,2.46,2.46,0,0,1-.09-.29,11.14,11.14,0,0,1-.38-2.9,17.28,17.28,0,0,1-.25,2.9,2.5,2.5,0,0,1-.05.29h-2.53c.07.33.16.66.26,1a4.5,4.5,0,0,0,.16.48s0,0,0,0,.06.2.1.3.17.43.26.64.12.29.19.43,0,0,0,0c.12.28.26.55.4.82a14.46,14.46,0,0,0,1.52,2.24h4.64A11.24,11.24,0,0,1,230.91,49.82Zm18.84,0a11.3,11.3,0,0,1-2.9,3h2.63a1.53,1.53,0,0,0,.27-3Zm-18.84,0a10.76,10.76,0,0,1-1.33-2.9,2.46,2.46,0,0,1-.09-.29,11.14,11.14,0,0,1-.38-2.9,17.28,17.28,0,0,1-.25,2.9,2.5,2.5,0,0,1-.05.29h-2.53c.07.33.16.66.26,1a4.5,4.5,0,0,0,.16.48s0,0,0,0,.06.2.1.3.17.43.26.64.12.29.19.43,0,0,0,0c.12.28.26.55.4.82a14.46,14.46,0,0,0,1.52,2.24h4.64A11.24,11.24,0,0,1,230.91,49.82Zm18.84,0a11.3,11.3,0,0,1-2.9,3h2.63a1.53,1.53,0,0,0,.27-3Zm-18.84,0a10.76,10.76,0,0,1-1.33-2.9,2.46,2.46,0,0,1-.09-.29,11.14,11.14,0,0,1-.38-2.9,17.28,17.28,0,0,1-.25,2.9,2.5,2.5,0,0,1-.05.29h-2.53c.07.33.16.66.26,1a4.5,4.5,0,0,0,.16.48s0,0,0,0,.06.2.1.3.17.43.26.64.12.29.19.43,0,0,0,0c.12.28.26.55.4.82a14.46,14.46,0,0,0,1.52,2.24h4.64A11.24,11.24,0,0,1,230.91,49.82Zm18.84,0a11.3,11.3,0,0,1-2.9,3h2.63a1.53,1.53,0,0,0,.27-3Zm-18.84,0a10.76,10.76,0,0,1-1.33-2.9,2.46,2.46,0,0,1-.09-.29,11.14,11.14,0,0,1-.38-2.9,17.28,17.28,0,0,1-.25,2.9,2.5,2.5,0,0,1-.05.29h-2.53c.07.33.16.66.26,1a4.5,4.5,0,0,0,.16.48s0,0,0,0,.06.2.1.3.17.43.26.64.12.29.19.43,0,0,0,0c.12.28.26.55.4.82a14.46,14.46,0,0,0,1.52,2.24h4.64A11.24,11.24,0,0,1,230.91,49.82Zm18.84,0a11.3,11.3,0,0,1-2.9,3h2.63a1.53,1.53,0,0,0,.27-3Zm-18.84,0a10.76,10.76,0,0,1-1.33-2.9,2.46,2.46,0,0,1-.09-.29,11.14,11.14,0,0,1-.38-2.9,17.28,17.28,0,0,1-.25,2.9,2.5,2.5,0,0,1-.05.29h-2.53c.07.33.16.66.26,1a4.5,4.5,0,0,0,.16.48s0,0,0,0,.06.2.1.3.17.43.26.64.12.29.19.43,0,0,0,0c.12.28.26.55.4.82a14.46,14.46,0,0,0,1.52,2.24h4.64A11.24,11.24,0,0,1,230.91,49.82Zm18.84,0a11.3,11.3,0,0,1-2.9,3h2.63a1.53,1.53,0,0,0,.27-3Zm-18.84,0a10.76,10.76,0,0,1-1.33-2.9,2.46,2.46,0,0,1-.09-.29,11.14,11.14,0,0,1-.38-2.9,17.28,17.28,0,0,1-.25,2.9,2.5,2.5,0,0,1-.05.29h-2.53c.07.33.16.66.26,1a4.5,4.5,0,0,0,.16.48s0,0,0,0,.06.2.1.3.17.43.26.64.12.29.19.43,0,0,0,0c.12.28.26.55.4.82a14.46,14.46,0,0,0,1.52,2.24h4.64A11.24,11.24,0,0,1,230.91,49.82Zm18.84,0a11.3,11.3,0,0,1-2.9,3h2.63a1.53,1.53,0,0,0,.27-3Zm-18.84,0a10.76,10.76,0,0,1-1.33-2.9,2.46,2.46,0,0,1-.09-.29,11.14,11.14,0,0,1-.38-2.9,17.28,17.28,0,0,1-.25,2.9,2.5,2.5,0,0,1-.05.29h-2.53c.07.33.16.66.26,1a4.5,4.5,0,0,0,.16.48s0,0,0,0,.06.2.1.3.17.43.26.64.12.29.19.43,0,0,0,0c.12.28.26.55.4.82a14.46,14.46,0,0,0,1.52,2.24h4.64A11.24,11.24,0,0,1,230.91,49.82Zm18.84,0a11.3,11.3,0,0,1-2.9,3h2.63a1.53,1.53,0,0,0,.27-3Zm-18.84,0a10.76,10.76,0,0,1-1.33-2.9,2.46,2.46,0,0,1-.09-.29,11.14,11.14,0,0,1-.38-2.9,17.28,17.28,0,0,1-.25,2.9,2.5,2.5,0,0,1-.05.29h-2.53c.07.33.16.66.26,1a4.5,4.5,0,0,0,.16.48s0,0,0,0,.06.2.1.3.17.43.26.64.12.29.19.43,0,0,0,0c.12.28.26.55.4.82a14.46,14.46,0,0,0,1.52,2.24h4.64A11.24,11.24,0,0,1,230.91,49.82Zm18.84,0a11.3,11.3,0,0,1-2.9,3h2.63a1.53,1.53,0,0,0,.27-3Zm-18.84,0a10.76,10.76,0,0,1-1.33-2.9,2.46,2.46,0,0,1-.09-.29,11.14,11.14,0,0,1-.38-2.9,17.28,17.28,0,0,1-.25,2.9,2.5,2.5,0,0,1-.05.29h-2.53c.07.33.16.66.26,1a4.5,4.5,0,0,0,.16.48s0,0,0,0,.06.2.1.3.17.43.26.64.12.29.19.43,0,0,0,0c.12.28.26.55.4.82a14.46,14.46,0,0,0,1.52,2.24h4.64A11.24,11.24,0,0,1,230.91,49.82Zm18.84,0a11.3,11.3,0,0,1-2.9,3h2.63a1.53,1.53,0,0,0,.27-3Zm-18.84,0a10.76,10.76,0,0,1-1.33-2.9,2.46,2.46,0,0,1-.09-.29,11.14,11.14,0,0,1-.38-2.9,17.28,17.28,0,0,1-.25,2.9,2.5,2.5,0,0,1-.05.29h-2.53c.07.33.16.66.26,1a4.5,4.5,0,0,0,.16.48s0,0,0,0,.06.2.1.3.17.43.26.64.12.29.19.43,0,0,0,0c.12.28.26.55.4.82a14.46,14.46,0,0,0,1.52,2.24h4.64A11.24,11.24,0,0,1,230.91,49.82Zm18.84,0a11.3,11.3,0,0,1-2.9,3h2.63a1.53,1.53,0,0,0,.27-3Zm-18.84,0a10.76,10.76,0,0,1-1.33-2.9,2.46,2.46,0,0,1-.09-.29,11.14,11.14,0,0,1-.38-2.9,17.28,17.28,0,0,1-.25,2.9,2.5,2.5,0,0,1-.05.29h-2.53c.07.33.16.66.26,1a4.5,4.5,0,0,0,.16.48s0,0,0,0,.06.2.1.3.17.43.26.64.12.29.19.43,0,0,0,0c.12.28.26.55.4.82a14.46,14.46,0,0,0,1.52,2.24h4.64A11.24,11.24,0,0,1,230.91,49.82Zm18.84,0a11.3,11.3,0,0,1-2.9,3h2.63a1.53,1.53,0,0,0,.27-3Z"/><path class="cls-1" d="M229.49,46.63a11.14,11.14,0,0,1-.38-2.9,17.28,17.28,0,0,1-.25,2.9,2.5,2.5,0,0,1-.05.29h.77A2.46,2.46,0,0,1,229.49,46.63Zm0,0a11.14,11.14,0,0,1-.38-2.9,17.28,17.28,0,0,1-.25,2.9,2.5,2.5,0,0,1-.05.29h.77A2.46,2.46,0,0,1,229.49,46.63Zm0,0a11.14,11.14,0,0,1-.38-2.9,17.28,17.28,0,0,1-.25,2.9,2.5,2.5,0,0,1-.05.29h.77A2.46,2.46,0,0,1,229.49,46.63Zm0,0a11.14,11.14,0,0,1-.38-2.9,17.28,17.28,0,0,1-.25,2.9,2.5,2.5,0,0,1-.05.29h.77A2.46,2.46,0,0,1,229.49,46.63Zm0,0a11.14,11.14,0,0,1-.38-2.9,17.28,17.28,0,0,1-.25,2.9,2.5,2.5,0,0,1-.05.29h.77A2.46,2.46,0,0,1,229.49,46.63Zm0,0a11.14,11.14,0,0,1-.38-2.9,17.28,17.28,0,0,1-.25,2.9,2.5,2.5,0,0,1-.05.29h.77A2.46,2.46,0,0,1,229.49,46.63Zm20.26,3.22a11.3,11.3,0,0,1-2.9,3h2.63a1.53,1.53,0,0,0,.27-3Zm-18.84,0a10.76,10.76,0,0,1-1.33-2.9,2.46,2.46,0,0,1-.09-.29,11.14,11.14,0,0,1-.38-2.9,17.28,17.28,0,0,1-.25,2.9,2.5,2.5,0,0,1-.05.29h-2.53c.07.33.16.66.26,1a4.5,4.5,0,0,0,.16.48s0,0,0,0,.06.2.1.3.17.43.26.64.12.29.19.43,0,0,0,0c.12.28.26.55.4.82a14.46,14.46,0,0,0,1.52,2.24h4.64A11.24,11.24,0,0,1,230.91,49.82Zm18.84,0a11.3,11.3,0,0,1-2.9,3h2.63a1.53,1.53,0,0,0,.27-3Zm-18.84,0a10.76,10.76,0,0,1-1.33-2.9,2.46,2.46,0,0,1-.09-.29,11.14,11.14,0,0,1-.38-2.9,17.28,17.28,0,0,1-.25,2.9,2.5,2.5,0,0,1-.05.29h-2.53c.07.33.16.66.26,1a4.5,4.5,0,0,0,.16.48s0,0,0,0,.06.2.1.3.17.43.26.64.12.29.19.43,0,0,0,0c.12.28.26.55.4.82a14.46,14.46,0,0,0,1.52,2.24h4.64A11.24,11.24,0,0,1,230.91,49.82Zm18.84,0a11.3,11.3,0,0,1-2.9,3h2.63a1.53,1.53,0,0,0,.27-3Zm-18.84,0a10.76,10.76,0,0,1-1.33-2.9,2.46,2.46,0,0,1-.09-.29,11.14,11.14,0,0,1-.38-2.9,17.28,17.28,0,0,1-.25,2.9,2.5,2.5,0,0,1-.05.29h-2.53c.07.33.16.66.26,1a4.5,4.5,0,0,0,.16.48s0,0,0,0,.06.2.1.3.17.43.26.64.12.29.19.43,0,0,0,0c.12.28.26.55.4.82a14.46,14.46,0,0,0,1.52,2.24h4.64A11.24,11.24,0,0,1,230.91,49.82Zm18.84,0a11.3,11.3,0,0,1-2.9,3h2.63a1.53,1.53,0,0,0,.27-3Zm-18.84,0a10.76,10.76,0,0,1-1.33-2.9,2.46,2.46,0,0,1-.09-.29,11.14,11.14,0,0,1-.38-2.9,17.28,17.28,0,0,1-.25,2.9,2.5,2.5,0,0,1-.05.29h-2.53c.07.33.16.66.26,1a4.5,4.5,0,0,0,.16.48s0,0,0,0,.06.2.1.3.17.43.26.64.12.29.19.43,0,0,0,0c.12.28.26.55.4.82a14.46,14.46,0,0,0,1.52,2.24h4.64A11.24,11.24,0,0,1,230.91,49.82Zm18.84,0a11.3,11.3,0,0,1-2.9,3h2.63a1.53,1.53,0,0,0,.27-3Zm-18.84,0a10.76,10.76,0,0,1-1.33-2.9,2.46,2.46,0,0,1-.09-.29,11.14,11.14,0,0,1-.38-2.9,17.28,17.28,0,0,1-.25,2.9,2.5,2.5,0,0,1-.05.29h-2.53c.07.33.16.66.26,1a4.5,4.5,0,0,0,.16.48s0,0,0,0,.06.2.1.3.17.43.26.64.12.29.19.43,0,0,0,0c.12.28.26.55.4.82a14.46,14.46,0,0,0,1.52,2.24h4.64A11.24,11.24,0,0,1,230.91,49.82Zm18.84,0a11.3,11.3,0,0,1-2.9,3h2.63a1.53,1.53,0,0,0,.27-3Zm-18.84,0a10.76,10.76,0,0,1-1.33-2.9,2.46,2.46,0,0,1-.09-.29,11.14,11.14,0,0,1-.38-2.9,17.28,17.28,0,0,1-.25,2.9,2.5,2.5,0,0,1-.05.29h-2.53c.07.33.16.66.26,1a4.5,4.5,0,0,0,.16.48s0,0,0,0,.06.2.1.3.17.43.26.64.12.29.19.43,0,0,0,0c.12.28.26.55.4.82a14.46,14.46,0,0,0,1.52,2.24h4.64A11.24,11.24,0,0,1,230.91,49.82Zm18.84,0a11.3,11.3,0,0,1-2.9,3h2.63a1.53,1.53,0,0,0,.27-3Zm-18.84,0a10.76,10.76,0,0,1-1.33-2.9,2.46,2.46,0,0,1-.09-.29,11.14,11.14,0,0,1-.38-2.9,17.28,17.28,0,0,1-.25,2.9,2.5,2.5,0,0,1-.05.29h-2.53c.07.33.16.66.26,1a4.5,4.5,0,0,0,.16.48s0,0,0,0,.06.2.1.3.17.43.26.64.12.29.19.43,0,0,0,0c.12.28.26.55.4.82a14.46,14.46,0,0,0,1.52,2.24h4.64A11.24,11.24,0,0,1,230.91,49.82Zm18.84,0a11.3,11.3,0,0,1-2.9,3h2.63a1.53,1.53,0,0,0,.27-3Zm-18.84,0a10.76,10.76,0,0,1-1.33-2.9,2.46,2.46,0,0,1-.09-.29,11.14,11.14,0,0,1-.38-2.9,17.28,17.28,0,0,1-.25,2.9,2.5,2.5,0,0,1-.05.29h-2.53c.07.33.16.66.26,1a4.5,4.5,0,0,0,.16.48s0,0,0,0,.06.2.1.3.17.43.26.64.12.29.19.43,0,0,0,0c.12.28.26.55.4.82a14.46,14.46,0,0,0,1.52,2.24h4.64A11.24,11.24,0,0,1,230.91,49.82Zm18.84,0a11.3,11.3,0,0,1-2.9,3h2.63a1.53,1.53,0,0,0,.27-3Zm-18.84,0a10.76,10.76,0,0,1-1.33-2.9,2.46,2.46,0,0,1-.09-.29,11.14,11.14,0,0,1-.38-2.9,17.28,17.28,0,0,1-.25,2.9,2.5,2.5,0,0,1-.05.29h-2.53c.07.33.16.66.26,1a4.5,4.5,0,0,0,.16.48s0,0,0,0,.06.2.1.3.17.43.26.64.12.29.19.43,0,0,0,0c.12.28.26.55.4.82a14.46,14.46,0,0,0,1.52,2.24h4.64A11.24,11.24,0,0,1,230.91,49.82Zm18.84,0a11.3,11.3,0,0,1-2.9,3h2.63a1.53,1.53,0,0,0,.27-3Zm-18.84,0a10.76,10.76,0,0,1-1.33-2.9,2.46,2.46,0,0,1-.09-.29,11.14,11.14,0,0,1-.38-2.9,17.28,17.28,0,0,1-.25,2.9,2.5,2.5,0,0,1-.05.29h-2.53c.07.33.16.66.26,1a4.5,4.5,0,0,0,.16.48s0,0,0,0,.06.2.1.3.17.43.26.64.12.29.19.43,0,0,0,0c.12.28.26.55.4.82a14.46,14.46,0,0,0,1.52,2.24h4.64A11.24,11.24,0,0,1,230.91,49.82Zm18.84,0a11.3,11.3,0,0,1-2.9,3h2.63a1.53,1.53,0,0,0,.27-3Zm-18.84,0a10.76,10.76,0,0,1-1.33-2.9,2.46,2.46,0,0,1-.09-.29,11.14,11.14,0,0,1-.38-2.9,17.28,17.28,0,0,1-.25,2.9,2.5,2.5,0,0,1-.05.29h-2.53c.07.33.16.66.26,1a4.5,4.5,0,0,0,.16.48s0,0,0,0,.06.2.1.3.17.43.26.64.12.29.19.43,0,0,0,0c.12.28.26.55.4.82a14.46,14.46,0,0,0,1.52,2.24h4.64A11.24,11.24,0,0,1,230.91,49.82Zm18.84,0a11.3,11.3,0,0,1-2.9,3h2.63a1.53,1.53,0,0,0,.27-3Zm-18.84,0a10.76,10.76,0,0,1-1.33-2.9,2.46,2.46,0,0,1-.09-.29,11.14,11.14,0,0,1-.38-2.9,17.28,17.28,0,0,1-.25,2.9,2.5,2.5,0,0,1-.05.29h-2.53c.07.33.16.66.26,1a4.5,4.5,0,0,0,.16.48s0,0,0,0,.06.2.1.3.17.43.26.64.12.29.19.43,0,0,0,0c.12.28.26.55.4.82a14.46,14.46,0,0,0,1.52,2.24h4.64A11.24,11.24,0,0,1,230.91,49.82Zm27-19.94A17.59,17.59,0,0,0,228,17.72a17,17,0,0,0-2.43,3,17.37,17.37,0,0,0-2.82,9.19c0,.12,0,.25,0,.37V43.73a17.28,17.28,0,0,0,.24,2.9,2.93,2.93,0,0,0,.05.29,16.56,16.56,0,0,0,.8,2.9c.1.27.2.54.32.81a18.31,18.31,0,0,0,1.15,2.25c.2.31.4.62.62.92a17,17,0,0,0,1.88,2.27,17.57,17.57,0,0,0,20.84,3.19,17.73,17.73,0,0,0,8.46-10.09,17.46,17.46,0,0,0,.86-5.44V30.25C258,30.13,258,30,257.94,29.88Zm-6.37,13.85a11.34,11.34,0,0,1-1.82,6.12,11.3,11.3,0,0,1-2.9,3,11.24,11.24,0,0,1-15.94-3.06,10.76,10.76,0,0,1-1.33-2.9,2.46,2.46,0,0,1-.09-.29,11.14,11.14,0,0,1-.38-2.9V30.25c0-.12,0-.25,0-.37a11.23,11.23,0,0,1,22.44,0c0,.12,0,.25,0,.37Zm-20.66,6.09a10.76,10.76,0,0,1-1.33-2.9,2.46,2.46,0,0,1-.09-.29,11.14,11.14,0,0,1-.38-2.9,17.28,17.28,0,0,1-.25,2.9,2.5,2.5,0,0,1-.05.29h-2.53c.07.33.16.66.26,1a4.5,4.5,0,0,0,.16.48s0,0,0,0,.06.2.1.3.17.43.26.64.12.29.19.43,0,0,0,0c.12.28.26.55.4.82a14.46,14.46,0,0,0,1.52,2.24h4.64A11.24,11.24,0,0,1,230.91,49.82Zm18.84,0a11.3,11.3,0,0,1-2.9,3h2.63a1.53,1.53,0,0,0,.27-3Zm-18.84,0a10.76,10.76,0,0,1-1.33-2.9,2.46,2.46,0,0,1-.09-.29,11.14,11.14,0,0,1-.38-2.9,17.28,17.28,0,0,1-.25,2.9,2.5,2.5,0,0,1-.05.29h-2.53c.07.33.16.66.26,1a4.5,4.5,0,0,0,.16.48s0,0,0,0,.06.2.1.3.17.43.26.64.12.29.19.43,0,0,0,0c.12.28.26.55.4.82a14.46,14.46,0,0,0,1.52,2.24h4.64A11.24,11.24,0,0,1,230.91,49.82Zm18.84,0a11.3,11.3,0,0,1-2.9,3h2.63a1.53,1.53,0,0,0,.27-3Zm-18.84,0a10.76,10.76,0,0,1-1.33-2.9,2.46,2.46,0,0,1-.09-.29,11.14,11.14,0,0,1-.38-2.9,17.28,17.28,0,0,1-.25,2.9,2.5,2.5,0,0,1-.05.29h-2.53c.07.33.16.66.26,1a4.5,4.5,0,0,0,.16.48s0,0,0,0,.06.2.1.3.17.43.26.64.12.29.19.43,0,0,0,0c.12.28.26.55.4.82a14.46,14.46,0,0,0,1.52,2.24h4.64A11.24,11.24,0,0,1,230.91,49.82Zm18.84,0a11.3,11.3,0,0,1-2.9,3h2.63a1.53,1.53,0,0,0,.27-3Zm-18.84,0a10.76,10.76,0,0,1-1.33-2.9,2.46,2.46,0,0,1-.09-.29,11.14,11.14,0,0,1-.38-2.9,17.28,17.28,0,0,1-.25,2.9,2.5,2.5,0,0,1-.05.29h-2.53c.07.33.16.66.26,1a4.5,4.5,0,0,0,.16.48s0,0,0,0,.06.2.1.3.17.43.26.64.12.29.19.43,0,0,0,0c.12.28.26.55.4.82a14.46,14.46,0,0,0,1.52,2.24h4.64A11.24,11.24,0,0,1,230.91,49.82Zm18.84,0a11.3,11.3,0,0,1-2.9,3h2.63a1.53,1.53,0,0,0,.27-3Zm-18.84,0a10.76,10.76,0,0,1-1.33-2.9,2.46,2.46,0,0,1-.09-.29,11.14,11.14,0,0,1-.38-2.9,17.28,17.28,0,0,1-.25,2.9,2.5,2.5,0,0,1-.05.29h-2.53c.07.33.16.66.26,1a4.5,4.5,0,0,0,.16.48s0,0,0,0,.06.2.1.3.17.43.26.64.12.29.19.43,0,0,0,0c.12.28.26.55.4.82a14.46,14.46,0,0,0,1.52,2.24h4.64A11.24,11.24,0,0,1,230.91,49.82Zm18.84,0a11.3,11.3,0,0,1-2.9,3h2.63a1.53,1.53,0,0,0,.27-3Zm-18.84,0a10.76,10.76,0,0,1-1.33-2.9,2.46,2.46,0,0,1-.09-.29,11.14,11.14,0,0,1-.38-2.9,17.28,17.28,0,0,1-.25,2.9,2.5,2.5,0,0,1-.05.29h-2.53c.07.33.16.66.26,1a4.5,4.5,0,0,0,.16.48s0,0,0,0,.06.2.1.3.17.43.26.64.12.29.19.43,0,0,0,0c.12.28.26.55.4.82a14.46,14.46,0,0,0,1.52,2.24h4.64A11.24,11.24,0,0,1,230.91,49.82Zm18.84,0a11.3,11.3,0,0,1-2.9,3h2.63a1.53,1.53,0,0,0,.27-3Zm-18.84,0a10.76,10.76,0,0,1-1.33-2.9,2.46,2.46,0,0,1-.09-.29,11.14,11.14,0,0,1-.38-2.9,17.28,17.28,0,0,1-.25,2.9,2.5,2.5,0,0,1-.05.29h-2.53c.07.33.16.66.26,1a4.5,4.5,0,0,0,.16.48s0,0,0,0,.06.2.1.3.17.43.26.64.12.29.19.43,0,0,0,0c.12.28.26.55.4.82a14.46,14.46,0,0,0,1.52,2.24h4.64A11.24,11.24,0,0,1,230.91,49.82Zm18.84,0a11.3,11.3,0,0,1-2.9,3h2.63a1.53,1.53,0,0,0,.27-3Zm-18.84,0a10.76,10.76,0,0,1-1.33-2.9,2.46,2.46,0,0,1-.09-.29,11.14,11.14,0,0,1-.38-2.9,17.28,17.28,0,0,1-.25,2.9,2.5,2.5,0,0,1-.05.29h-2.53c.07.33.16.66.26,1a4.5,4.5,0,0,0,.16.48s0,0,0,0,.06.2.1.3.17.43.26.64.12.29.19.43,0,0,0,0c.12.28.26.55.4.82a14.46,14.46,0,0,0,1.52,2.24h4.64A11.24,11.24,0,0,1,230.91,49.82Zm18.84,0a11.3,11.3,0,0,1-2.9,3h2.63a1.53,1.53,0,0,0,.27-3Zm-18.84,0a10.76,10.76,0,0,1-1.33-2.9,2.46,2.46,0,0,1-.09-.29,11.14,11.14,0,0,1-.38-2.9,17.28,17.28,0,0,1-.25,2.9,2.5,2.5,0,0,1-.05.29h-2.53c.07.33.16.66.26,1a4.5,4.5,0,0,0,.16.48s0,0,0,0,.06.2.1.3.17.43.26.64.12.29.19.43,0,0,0,0c.12.28.26.55.4.82a14.46,14.46,0,0,0,1.52,2.24h4.64A11.24,11.24,0,0,1,230.91,49.82Zm18.84,0a11.3,11.3,0,0,1-2.9,3h2.63a1.53,1.53,0,0,0,.27-3Zm-18.84,0a10.76,10.76,0,0,1-1.33-2.9,2.46,2.46,0,0,1-.09-.29,11.14,11.14,0,0,1-.38-2.9,17.28,17.28,0,0,1-.25,2.9,2.5,2.5,0,0,1-.05.29h-2.53c.07.33.16.66.26,1a4.5,4.5,0,0,0,.16.48s0,0,0,0,.06.2.1.3.17.43.26.64.12.29.19.43,0,0,0,0c.12.28.26.55.4.82a14.46,14.46,0,0,0,1.52,2.24h4.64A11.24,11.24,0,0,1,230.91,49.82Zm18.84,0a11.3,11.3,0,0,1-2.9,3h2.63a1.53,1.53,0,0,0,.27-3Zm-18.84,0a10.76,10.76,0,0,1-1.33-2.9,2.46,2.46,0,0,1-.09-.29,11.14,11.14,0,0,1-.38-2.9,17.28,17.28,0,0,1-.25,2.9,2.5,2.5,0,0,1-.05.29h-2.53c.07.33.16.66.26,1a4.5,4.5,0,0,0,.16.48s0,0,0,0,.06.2.1.3.17.43.26.64.12.29.19.43,0,0,0,0c.12.28.26.55.4.82a14.46,14.46,0,0,0,1.52,2.24h4.64A11.24,11.24,0,0,1,230.91,49.82Zm18.84,0a11.3,11.3,0,0,1-2.9,3h2.63a1.53,1.53,0,0,0,.27-3Zm-18.84,0a10.76,10.76,0,0,1-1.33-2.9,2.46,2.46,0,0,1-.09-.29,11.14,11.14,0,0,1-.38-2.9,17.28,17.28,0,0,1-.25,2.9,2.5,2.5,0,0,1-.05.29h-2.53c.07.33.16.66.26,1a4.5,4.5,0,0,0,.16.48s0,0,0,0,.06.2.1.3.17.43.26.64.12.29.19.43,0,0,0,0c.12.28.26.55.4.82a14.46,14.46,0,0,0,1.52,2.24h4.64A11.24,11.24,0,0,1,230.91,49.82Zm18.84,0a11.3,11.3,0,0,1-2.9,3h2.63a1.53,1.53,0,0,0,.27-3Zm-20.26-3.22a11.14,11.14,0,0,1-.38-2.9,17.28,17.28,0,0,1-.25,2.9,2.5,2.5,0,0,1-.05.29h.77A2.46,2.46,0,0,1,229.49,46.63Zm0,0a11.14,11.14,0,0,1-.38-2.9,17.28,17.28,0,0,1-.25,2.9,2.5,2.5,0,0,1-.05.29h.77A2.46,2.46,0,0,1,229.49,46.63Zm0,0a11.14,11.14,0,0,1-.38-2.9,17.28,17.28,0,0,1-.25,2.9,2.5,2.5,0,0,1-.05.29h.77A2.46,2.46,0,0,1,229.49,46.63Zm0,0a11.14,11.14,0,0,1-.38-2.9,17.28,17.28,0,0,1-.25,2.9,2.5,2.5,0,0,1-.05.29h.77A2.46,2.46,0,0,1,229.49,46.63Zm0,0a11.14,11.14,0,0,1-.38-2.9,17.28,17.28,0,0,1-.25,2.9,2.5,2.5,0,0,1-.05.29h.77A2.46,2.46,0,0,1,229.49,46.63Zm0,0a11.14,11.14,0,0,1-.38-2.9,17.28,17.28,0,0,1-.25,2.9,2.5,2.5,0,0,1-.05.29h.77A2.46,2.46,0,0,1,229.49,46.63Z"/><path class="cls-1" d="M197.09,37.4a36.93,36.93,0,0,1-.65,6c-.08.44-.17.9-.27,1.37s-.28,1.19-.44,1.82c-.25.91-.53,1.86-.87,2.82-.05.12-.09.25-.14.37a31.85,31.85,0,0,1-1.3,3.06,27,27,0,0,1-1.83,3.19,24.42,24.42,0,0,1-2.53,3.19,20.92,20.92,0,0,1-5.21,4,21.54,21.54,0,0,1-5.76,2.09H136.2s.78.22,2.1.72a46.08,46.08,0,0,1,6.61,3.19,48,48,0,0,1,4.8,3.19c9.65,7.28,20.41,21.19,17.25,46.27l-3.17-.4c2.14-16.94-2-30.48-12.35-40.25A44.32,44.32,0,0,0,144,72.42a42.79,42.79,0,0,0-6.33-3.19,24.65,24.65,0,0,0-2.34-.83A3.18,3.18,0,0,1,133.1,66a3.14,3.14,0,0,1-.06-1.15,3.19,3.19,0,0,1,3.16-2.76h41.54a18,18,0,0,0,5.14-2,13.71,13.71,0,0,0,1.26-.83,18,18,0,0,0,3.43-3.19,21.15,21.15,0,0,0,2.21-3.19,24.62,24.62,0,0,0,1.49-3.06,32.33,32.33,0,0,0,1.14-3.19c.13-.48.26-.94.37-1.39.16-.62.29-1.22.41-1.8.21-1,.36-2,.46-2.85h-61.2l-3.38,2.85-3.78,3.19-3.79,3.19-3.62,3.06L115,55.31l-.9.76-2.7,2.28c-.14.16-.39.47-.73.91a37.42,37.42,0,0,0-4,6.78c-.46,1-.89,2-1.29,3.19s-.67,2.07-.94,3.19A30.33,30.33,0,0,0,104.14,86h0l.09.27c0,.16.12.36.22.62a.06.06,0,0,0,0,0q.14.39.33.9l.12.32c0,.11.08.22.13.34l.19.48c.08.21.16.43.26.66.18.46.38.95.6,1.48.38.92.81,2,1.31,3.06.1.24.21.48.32.73a2.29,2.29,0,0,0,.1.23c.23.52.48,1.06.74,1.62l.18.4q.2.43.42.9l.44.92,0,.07,0,.08.5,1c.1.21.21.41.31.62a157.58,157.58,0,0,0,29.19,40.24l.06.06.21.2-2.43,2,0,0a160.74,160.74,0,0,1-29-39.32c-.18-.37-.37-.73-.55-1.08a.83.83,0,0,0-.07-.13c-.45-.89-.88-1.76-1.28-2.59l-.5-1c-.27-.56-.52-1.1-.76-1.63-.11-.24-.22-.47-.32-.7l-.87-2h0c-.25-.56-.47-1.09-.67-1.6a0,0,0,0,1,0,0c-.32-.76-.6-1.47-.85-2.11-.1-.24-.19-.48-.28-.71q-.3-.75-.51-1.35c-.06-.14-.1-.28-.15-.41s-.11-.29-.15-.42c-.13-.34-.23-.63-.3-.85-.13-.37-.19-.56-.19-.56a33.54,33.54,0,0,1,0-14.45c.24-1.11.53-2.17.85-3.19S102.7,67,103.12,66a40.43,40.43,0,0,1,3.62-6.78,34.52,34.52,0,0,1,2.31-3.09l.07-.07,0,0,3.78-3.19,3.63-3.06,3.78-3.19,3.78-3.19,7.16-6Z"/><path class="cls-1" d="M200.28,37.4a35.65,35.65,0,0,1-.55,6c0,.31-.1.62-.16.93-.15.74-.31,1.49-.5,2.26s-.5,1.83-.81,2.75a3.81,3.81,0,0,1-.15.44,31.23,31.23,0,0,1-1.2,3.06,3.39,3.39,0,0,1-.18.39,30.8,30.8,0,0,1-1.43,2.8,29.11,29.11,0,0,1-2.14,3.19A24.42,24.42,0,0,1,185.32,66l-.6.32a24.85,24.85,0,0,1-5.95,2.08,3.08,3.08,0,0,1-.68.07H149.6q.51.34,1,.72a50.17,50.17,0,0,1,4,3.19c9.41,8.34,18.52,22.76,15.52,46.67l-3.17-.4-3.17-.4c2.14-16.94-2-30.48-12.35-40.25A44.32,44.32,0,0,0,144,72.42a42.79,42.79,0,0,0-6.33-3.19,24.65,24.65,0,0,0-2.34-.83A3.18,3.18,0,0,1,133.1,66a3.14,3.14,0,0,1-.06-1.15,3.19,3.19,0,0,1,3.16-2.76h41.54a18,18,0,0,0,5.14-2,13.71,13.71,0,0,0,1.26-.83,18,18,0,0,0,3.43-3.19,21.15,21.15,0,0,0,2.21-3.19,24.62,24.62,0,0,0,1.49-3.06,32.33,32.33,0,0,0,1.14-3.19c.13-.48.26-.94.37-1.39.16-.62.29-1.22.41-1.8.21-1,.36-2,.46-2.85h-61.2l-3.38,2.85-3.78,3.19-3.79,3.19-3.62,3.06L115,55.31l-.9.76-2.7,2.28c-.14.16-.39.47-.73.91a37.42,37.42,0,0,0-4,6.78c-.46,1-.89,2-1.29,3.19s-.67,2.07-.94,3.19A30.33,30.33,0,0,0,104.14,86h0l.09.27c0,.16.12.36.22.62a.06.06,0,0,0,0,0q.14.39.33.9l.12.32c0,.11.08.22.13.34l.19.48c.08.21.16.43.26.66.72,1.9,1.79,4.47,3.25,7.52q.2.43.42.9l.44.92,0,.07,0,.08.5,1c.1.21.21.41.31.62a157.58,157.58,0,0,0,29.19,40.24l.06.06-2.22,2.24,0,0h0l-2.25,2.26a163,163,0,0,1-30.77-42.49c-.26-.51-.51-1-.73-1.49-.14-.3-.29-.6-.43-.89a109.25,109.25,0,0,1-5.1-12.34L98.06,88a.83.83,0,0,0,0-.12s0-.06,0-.08a2.5,2.5,0,0,1-.07-.26,36.76,36.76,0,0,1-.11-15.13,31,31,0,0,1,.78-3.19c.31-1.11.67-2.18,1.06-3.19A42.88,42.88,0,0,1,103.14,59c.7-1.15,1.37-2.12,1.94-2.9.82-1.12,1.44-1.83,1.65-2.07l.07-.08.19-.19.1-.09.89-.75,3.63-3.06,3.78-3.19,3.78-3.19,8.51-7.18,1.54-1.3a3.24,3.24,0,0,1,2.06-.75h65.81a3.19,3.19,0,0,1,3,2A3.3,3.3,0,0,1,200.28,37.4Z"/><path class="cls-1" d="M230.71,192.09a7.67,7.67,0,1,1-7.67-7.66A7.67,7.67,0,0,1,230.71,192.09Z"/><path class="cls-1" d="M223,181.24a10.86,10.86,0,1,0,10.86,10.85A10.87,10.87,0,0,0,223,181.24Z"/></g></g></svg>