<svg xmlns="http://www.w3.org/2000/svg" xmlns:xlink="http://www.w3.org/1999/xlink" viewBox="0 0 29.24 29.24"><defs><style>.cls-1{fill:#fff;}.cls-2{fill:url(#radial-gradient);}</style><radialGradient id="radial-gradient" cx="14.69" cy="14.6" r="4.22" gradientUnits="userSpaceOnUse"><stop offset="0" stop-color="#000056"/><stop offset="0.39" stop-color="#7373a2" stop-opacity="0.55"/><stop offset="0.78" stop-color="#d9d9e6" stop-opacity="0.15"/><stop offset="1" stop-color="#fff" stop-opacity="0"/></radialGradient></defs><title>inst</title><g id="Layer_2" data-name="Layer 2"><g id="ELEMENTS"><path class="cls-1" d="M17.39,14.6a2.71,2.71,0,1,1-2.7-2.71A2.7,2.7,0,0,1,17.39,14.6Z"/><path class="cls-1" d="M18,7.64H11.2a3.54,3.54,0,0,0-3.54,3.54V18a3.54,3.54,0,0,0,3.54,3.54H18A3.55,3.55,0,0,0,21.58,18V11.18A3.55,3.55,0,0,0,18,7.64ZM14.69,18.82a4.22,4.22,0,1,1,4.22-4.22A4.22,4.22,0,0,1,14.69,18.82Zm4.47-7.72a1,1,0,1,1,1-1A1,1,0,0,1,19.16,11.1Z"/><path class="cls-1" d="M14.62,0A14.62,14.62,0,1,0,29.24,14.62,14.61,14.61,0,0,0,14.62,0Zm8.57,18A5.16,5.16,0,0,1,18,23.17H11.2A5.16,5.16,0,0,1,6.05,18V11.18A5.16,5.16,0,0,1,11.2,6H18a5.16,5.16,0,0,1,5.15,5.15Z"/><path class="cls-2" d="M14.69,10.38a4.22,4.22,0,1,0,4.22,4.22A4.22,4.22,0,0,0,14.69,10.38Zm0,6.92a2.71,2.71,0,1,1,2.7-2.7A2.71,2.71,0,0,1,14.69,17.3Z"/></g></g></svg>