<svg xmlns="http://www.w3.org/2000/svg" viewBox="0 0 468.86 201.58">
    <defs>
        <style>
            .cls-1 {
                font-size: 27.3px;
                font-family: KeepCalm-Medium, Keep Calm;
                font-weight: 500;
                letter-spacing: 0.41em;
            }

            .cls-1,
            .cls-2 {
                fill: rgba(0,79,3,0.6);
            }
        </style>
    </defs>
    <title>LOGO_1</title>
    <g id="Layer_2" data-name="Layer 2">
        <g id="Layer_1-2" data-name="Layer 1"><text class="cls-1"
                transform="translate(95.97 193.17)">ONSTRUCTIONS</text>
            <rect class="cls-2" x="45.39" y="25.45" width="5.93" height="9.88" />
            <rect class="cls-2" x="45.39" y="45.2" width="5.93" height="9.88" />
            <rect class="cls-2" x="45.39" y="64.96" width="5.93" height="9.88" />
            <rect class="cls-2" x="45.39" y="84.71" width="5.93" height="9.88" />
            <rect class="cls-2" x="45.39" y="104.47" width="5.93" height="9.88" />
            <rect class="cls-2" x="45.39" y="124.22" width="5.93" height="9.88" />
            <rect class="cls-2" x="45.39" y="143.98" width="5.93" height="9.88" />
            <rect class="cls-2" x="25.64" y="25.45" width="5.93" height="9.88" />
            <rect class="cls-2" x="35.52" y="25.45" width="5.93" height="9.88" />
            <rect class="cls-2" x="25.64" y="45.2" width="5.93" height="9.88" />
            <rect class="cls-2" x="35.52" y="45.2" width="5.93" height="9.88" />
            <rect class="cls-2" x="25.64" y="64.96" width="5.93" height="9.88" />
            <rect class="cls-2" x="35.52" y="64.96" width="5.93" height="9.88" />
            <rect class="cls-2" x="25.64" y="84.71" width="5.93" height="9.88" />
            <rect class="cls-2" x="35.52" y="84.71" width="5.93" height="9.88" />
            <rect class="cls-2" x="25.64" y="104.47" width="5.93" height="9.88" />
            <rect class="cls-2" x="35.52" y="104.47" width="5.93" height="9.88" />
            <rect class="cls-2" x="25.64" y="124.22" width="5.93" height="9.88" />
            <rect class="cls-2" x="35.52" y="124.22" width="5.93" height="9.88" />
            <rect class="cls-2" x="25.64" y="143.98" width="5.93" height="9.88" />
            <rect class="cls-2" x="35.52" y="143.98" width="5.93" height="9.88" />
            <rect class="cls-2" x="32.32" y="163.23" width="9.99" height="20.75" />
            <path class="cls-2"
                d="M77.32,179.3a13.14,13.14,0,0,1-3.95,9.87,13.76,13.76,0,0,1-10,3.82H13.69a13.35,13.35,0,0,1-9.87-3.82A13.35,13.35,0,0,1,0,179.3V13.69A13.35,13.35,0,0,1,3.82,3.82,13.39,13.39,0,0,1,13.69,0H63.38a13.8,13.8,0,0,1,10,3.82,13.14,13.14,0,0,1,3.95,9.87V58.58H60.06V15.17H17.14V177.82H60.06V130.35H77.32Z" />
            <path class="cls-2"
                d="M152.09,139.76q0,10.88-10.88,10.88H109.06q-10.77,0-10.78-10.88V67.86Q98.28,57,109.06,57h32.15q10.88,0,10.88,10.88Zm-12.8-.38V68.24H111.08v71.14Z" />
            <path class="cls-2"
                d="M226.78,150.64H214V68.44l-28.2.77v81.43H173V57h12.8v2.6q7.5-1,15.11-2A127.41,127.41,0,0,1,216.1,56.4q10.68,0,10.68,10.5Z" />
            <path class="cls-2"
                d="M282.9,11.26H264.8V57h16V68.24h-16v82.4H252.19V68.24H241.32V57h10.87V10.88Q252.19,0,263,0H282.9Z" />
            <path class="cls-2" d="M307.92,36.48h-13V20.31h13Zm-.19,114.16H295.12V57h12.61Z" />
            <path class="cls-2"
                d="M382.71,150.64H370V148q-20.61,3.18-22.81,3.17-8.19,0-13.19-5.53a19.8,19.8,0,0,1-5-13.81V77.1a19.58,19.58,0,0,1,5.68-14.39A19.25,19.25,0,0,1,348.93,57H370V0h12.7ZM370,139V68.24H352.3q-10.59,0-10.59,10.88v50q0,10.79,10.59,10.78Q354.79,140,370,139Z" />
            <path class="cls-2"
                d="M457.6,139.76q0,10.88-10.88,10.88H414.57q-10.77,0-10.78-10.88V67.86Q403.79,57,414.57,57h32.15q10.88,0,10.88,10.88Zm-12.8-.38V68.24H416.59v71.14Z" />
            <polygon class="cls-2"
                points="370.32 151.04 347.32 151.04 350.32 148.04 376.32 145.04 382.71 147.61 382.71 151.04 370.32 151.04" />
            <rect class="cls-2" x="178.32" y="57.04" width="34" height="6" />
        </g>
    </g>
</svg>