<svg xmlns="http://www.w3.org/2000/svg" viewBox="0 0 262.65 259.74"><defs><style>.cls-1{fill:#fff;}</style></defs><title>NUT</title><g id="Layer_2" data-name="Layer 2"><g id="Capa_1" data-name="Capa 1"><path class="cls-1" d="M131.33,93.08a36.8,36.8,0,1,0,36.79,36.79A36.84,36.84,0,0,0,131.33,93.08Zm0,70.4a33.61,33.61,0,1,1,33.6-33.61A33.61,33.61,0,0,1,131.33,163.48Zm0-70.4a36.8,36.8,0,1,0,36.79,36.79A36.84,36.84,0,0,0,131.33,93.08Zm0,70.4a33.61,33.61,0,1,1,33.6-33.61A33.61,33.61,0,0,1,131.33,163.48Zm0-104a70.44,70.44,0,1,0,70.43,70.44A70.52,70.52,0,0,0,131.33,59.44Zm0,134.49a64.06,64.06,0,1,1,64-64.05A64.13,64.13,0,0,1,131.33,193.93Zm0-100.85a36.8,36.8,0,1,0,36.79,36.79A36.84,36.84,0,0,0,131.33,93.08Zm0,70.4a33.61,33.61,0,1,1,33.6-33.61A33.61,33.61,0,0,1,131.33,163.48Zm0-124.75v6.38a84.86,84.86,0,0,1,84.76,84.76h6.38A91.25,91.25,0,0,0,131.33,38.73Zm0,0v6.38a84.86,84.86,0,0,1,84.76,84.76h6.38A91.25,91.25,0,0,0,131.33,38.73Zm0,20.71a70.44,70.44,0,1,0,70.43,70.44A70.52,70.52,0,0,0,131.33,59.44Zm0,134.49a64.06,64.06,0,1,1,64-64.05A64.13,64.13,0,0,1,131.33,193.93Zm0-100.85a36.8,36.8,0,1,0,36.79,36.79A36.84,36.84,0,0,0,131.33,93.08Zm0,70.4a33.61,33.61,0,1,1,33.6-33.61A33.61,33.61,0,0,1,131.33,163.48Zm106.08-20.43,21.82-1.64-3.17-42.12-21.57,1.62a106.09,106.09,0,0,0-15.24-32.58l14.81-15.52L203.5,23.65l-14.69,15.4a106.23,106.23,0,0,0-36.37-14.68V3.2H110.21V24.37A106.61,106.61,0,0,0,65.58,44.88l-16.1-14L21.8,62.82,38,76.9A106,106,0,0,0,25.1,116.72L3.42,118.34,6.6,160.46l21.9-1.65a106.65,106.65,0,0,0,15.4,32.1l-15.3,16,30.55,29.15L74.56,220a106,106,0,0,0,35.65,14.21v22.39h42.23V234.16a106.45,106.45,0,0,0,43.89-19.93l16.85,14.61,27.67-31.91-16.7-14.48A106.28,106.28,0,0,0,237.41,143.05Zm-1.06,54.2-23.49,27.09-16.4-14.23-2.07,1.58A103.75,103.75,0,0,1,151.82,231l-2.57.52v21.8H113.4v-21.8l-2.57-.52a102.55,102.55,0,0,1-34.57-13.79l-2.21-1.38L59,231.58,33.11,206.84,48,191.21l-1.52-2.14a103.22,103.22,0,0,1-14.93-31.14l-.72-2.5L9.54,157,6.85,121.29,28,119.71l.31-2.62A102.48,102.48,0,0,1,40.82,78.46l1.28-2.27L26.3,62.5,49.8,35.41,65.47,49l2.08-1.62a104,104,0,0,1,43.28-19.9L113.4,27V6.39h35.85V27l2.57.51A102.59,102.59,0,0,1,187.1,41.74l2.21,1.41,14.3-15,25.93,24.76L215.14,68l1.49,2.14a103.17,103.17,0,0,1,14.79,31.61l.69,2.54,21-1.59,2.7,35.75-21.24,1.6-.33,2.58a102.49,102.49,0,0,1-12.86,38.22l-1.31,2.28Zm-105-158.52v6.38a84.86,84.86,0,0,1,84.76,84.76h6.38A91.25,91.25,0,0,0,131.33,38.73Zm0,20.71a70.44,70.44,0,1,0,70.43,70.44A70.52,70.52,0,0,0,131.33,59.44Zm0,134.49a64.06,64.06,0,1,1,64-64.05A64.13,64.13,0,0,1,131.33,193.93Zm0-100.85a36.8,36.8,0,1,0,36.79,36.79A36.84,36.84,0,0,0,131.33,93.08Zm0,70.4a33.61,33.61,0,1,1,33.6-33.61A33.61,33.61,0,0,1,131.33,163.48Zm0-70.4a36.8,36.8,0,1,0,36.79,36.79A36.84,36.84,0,0,0,131.33,93.08Zm0,70.4a33.61,33.61,0,1,1,33.6-33.61A33.61,33.61,0,0,1,131.33,163.48Zm0-70.4a36.8,36.8,0,1,0,36.79,36.79A36.84,36.84,0,0,0,131.33,93.08Zm0,70.4a33.61,33.61,0,1,1,33.6-33.61A33.61,33.61,0,0,1,131.33,163.48Zm0-104a70.44,70.44,0,1,0,70.43,70.44A70.52,70.52,0,0,0,131.33,59.44Zm0,134.49a64.06,64.06,0,1,1,64-64.05A64.13,64.13,0,0,1,131.33,193.93Zm0-100.85a36.8,36.8,0,1,0,36.79,36.79A36.84,36.84,0,0,0,131.33,93.08Zm0,70.4a33.61,33.61,0,1,1,33.6-33.61A33.61,33.61,0,0,1,131.33,163.48Zm0-124.75v6.38a84.86,84.86,0,0,1,84.76,84.76h6.38A91.25,91.25,0,0,0,131.33,38.73Zm0,0v6.38a84.86,84.86,0,0,1,84.76,84.76h6.38A91.25,91.25,0,0,0,131.33,38.73Zm0,54.35a36.8,36.8,0,1,0,36.79,36.79A36.84,36.84,0,0,0,131.33,93.08Zm0,70.4a33.61,33.61,0,1,1,33.6-33.61A33.61,33.61,0,0,1,131.33,163.48Zm0-70.4a36.8,36.8,0,1,0,36.79,36.79A36.84,36.84,0,0,0,131.33,93.08Zm0,70.4a33.61,33.61,0,1,1,33.6-33.61A33.61,33.61,0,0,1,131.33,163.48Zm0-104a70.44,70.44,0,1,0,70.43,70.44A70.52,70.52,0,0,0,131.33,59.44Zm0,134.49a64.06,64.06,0,1,1,64-64.05A64.13,64.13,0,0,1,131.33,193.93Zm0-100.85a36.8,36.8,0,1,0,36.79,36.79A36.84,36.84,0,0,0,131.33,93.08Zm0,70.4a33.61,33.61,0,1,1,33.6-33.61A33.61,33.61,0,0,1,131.33,163.48Z"/><path class="cls-1" d="M131.33,93.08a36.8,36.8,0,1,0,36.79,36.79A36.84,36.84,0,0,0,131.33,93.08Zm0,67.21a30.42,30.42,0,1,1,30.41-30.42A30.45,30.45,0,0,1,131.33,160.29Zm0-67.21a36.8,36.8,0,1,0,36.79,36.79A36.84,36.84,0,0,0,131.33,93.08Zm0,67.21a30.42,30.42,0,1,1,30.41-30.42A30.45,30.45,0,0,1,131.33,160.29Zm0-67.21a36.8,36.8,0,1,0,36.79,36.79A36.84,36.84,0,0,0,131.33,93.08Zm0,67.21a30.42,30.42,0,1,1,30.41-30.42A30.45,30.45,0,0,1,131.33,160.29Zm0-67.21a36.8,36.8,0,1,0,36.79,36.79A36.84,36.84,0,0,0,131.33,93.08Zm0,67.21a30.42,30.42,0,1,1,30.41-30.42A30.45,30.45,0,0,1,131.33,160.29ZM240.21,146l22.44-1.69L259,95.87l-22.16,1.67a109.32,109.32,0,0,0-13.5-28.87l15.23-16L203.4,19.13,188.3,35a108.71,108.71,0,0,0-32.67-13.18V0H107V21.79a110.35,110.35,0,0,0-41.3,19L49.16,26.41,17.29,63.14,34,77.62a109,109,0,0,0-11.74,36.11L0,115.4l3.65,48.48,22.53-1.7a109.44,109.44,0,0,0,13.62,28.4L24.08,207.05,59.26,240.6,75.09,224A109,109,0,0,0,107,236.75v23h48.61v-23a110.46,110.46,0,0,0,40.55-18.43l17.32,15,31.86-36.73L228.2,181.74A108.79,108.79,0,0,0,240.21,146Zm-43.75,64.07-2.07,1.58A103.75,103.75,0,0,1,151.82,231l-2.57.52v21.8H113.4v-21.8l-2.57-.52a102.55,102.55,0,0,1-34.57-13.79l-2.21-1.38L59,231.58,33.11,206.84,48,191.21l-1.52-2.14a103.22,103.22,0,0,1-14.93-31.14l-.72-2.5L9.54,157,6.85,121.29,28,119.71l.31-2.62A102.48,102.48,0,0,1,40.82,78.46l1.28-2.27L26.3,62.5,49.8,35.41,65.47,49l2.08-1.62a104,104,0,0,1,43.28-19.9L113.4,27V6.39h35.85V27l2.57.51A102.59,102.59,0,0,1,187.1,41.74l2.21,1.41,14.3-15,25.93,24.76L215.14,68l1.49,2.14a103.17,103.17,0,0,1,14.79,31.61l.69,2.54,21-1.59,2.7,35.75-21.24,1.6-.33,2.58a102.49,102.49,0,0,1-12.86,38.22l-1.31,2.28,16.28,14.11-23.49,27.09Zm-65.13-117a36.8,36.8,0,1,0,36.79,36.79A36.84,36.84,0,0,0,131.33,93.08Zm0,67.21a30.42,30.42,0,1,1,30.41-30.42A30.45,30.45,0,0,1,131.33,160.29Zm0-67.21a36.8,36.8,0,1,0,36.79,36.79A36.84,36.84,0,0,0,131.33,93.08Zm0,67.21a30.42,30.42,0,1,1,30.41-30.42A30.45,30.45,0,0,1,131.33,160.29Zm0-67.21a36.8,36.8,0,1,0,36.79,36.79A36.84,36.84,0,0,0,131.33,93.08Zm0,67.21a30.42,30.42,0,1,1,30.41-30.42A30.45,30.45,0,0,1,131.33,160.29Z"/><path class="cls-1" d="M131.33,93.08a36.8,36.8,0,1,0,36.79,36.79A36.84,36.84,0,0,0,131.33,93.08Zm0,67.21a30.42,30.42,0,1,1,30.41-30.42A30.45,30.45,0,0,1,131.33,160.29Z"/><path class="cls-1" d="M131.33,62.63a67.25,67.25,0,1,0,67.24,67.25A67.24,67.24,0,0,0,131.33,62.63Zm0,131.3a64.06,64.06,0,1,1,64-64.05A64.13,64.13,0,0,1,131.33,193.93Z"/><path class="cls-1" d="M131.33,59.44a70.44,70.44,0,1,0,70.43,70.44A70.52,70.52,0,0,0,131.33,59.44Zm0,134.49a64.06,64.06,0,1,1,64-64.05A64.13,64.13,0,0,1,131.33,193.93Z"/><path class="cls-1" d="M131.33,96.27a33.61,33.61,0,1,0,33.6,33.6A33.6,33.6,0,0,0,131.33,96.27Zm0,64a30.42,30.42,0,1,1,30.41-30.42A30.45,30.45,0,0,1,131.33,160.29Z"/><path class="cls-1" d="M131.33,93.08a36.8,36.8,0,1,0,36.79,36.79A36.84,36.84,0,0,0,131.33,93.08Zm0,67.21a30.42,30.42,0,1,1,30.41-30.42A30.45,30.45,0,0,1,131.33,160.29Z"/><path class="cls-1" d="M222.47,129.87h-6.38a84.86,84.86,0,0,0-84.76-84.76V38.73A91.25,91.25,0,0,1,222.47,129.87Z"/></g></g></svg>