<svg xmlns="http://www.w3.org/2000/svg" viewBox="0 0 264.24 264.26"><defs><style>.cls-1{fill:#fff;}</style></defs><title>PROTACTOR</title><g id="Layer_2" data-name="Layer 2"><g id="Capa_1" data-name="Capa 1"><path class="cls-1" d="M7.7,261.06H261.05V7.71Zm250.16-3.19h-8.44v-10H243v10h-9.58v-10h-6.38v10h-9.58v-10h-6.38v10h-9.57v-10h-6.39v10h-9.57v-10h-6.39v10h-9.58v-10h-6.38v10h-9.58v-10h-6.38v10h-9.58v-10h-6.38v10h-9.57v-10h-6.39v10h-9.57v-10H99.39v10H89.81v-10H83.43v10H73.85v-10H67.47v10H57.89v-10H51.51v10H41.94v-10H35.55v10H15.41L257.86,15.41ZM216.86,112,111.73,217.15H216.86ZM213.67,214H119.43l94.24-94.24Z"/><path class="cls-1" d="M111.73,217.15H216.86V112Zm98.75-6.38H127.14l83.34-83.34Zm-98.75,6.38H216.86V112Zm98.75-6.38H127.14l83.34-83.34ZM0,264.26H264.24V0Zm257.86-6.39H15.41L257.86,15.41ZM216.86,112,111.73,217.15H216.86Zm-6.38,98.75H127.14l83.34-83.34Z"/><line class="cls-1" x1="38.74" y1="247.89" x2="38.74" y2="261.06"/><rect class="cls-1" x="35.55" y="247.89" width="6.39" height="13.17"/><line class="cls-1" x1="54.7" y1="247.89" x2="54.7" y2="261.06"/><rect class="cls-1" x="51.51" y="247.89" width="6.38" height="13.17"/><line class="cls-1" x1="70.66" y1="247.89" x2="70.66" y2="261.06"/><rect class="cls-1" x="67.47" y="247.89" width="6.38" height="13.17"/><line class="cls-1" x1="86.62" y1="247.89" x2="86.62" y2="261.06"/><rect class="cls-1" x="83.43" y="247.89" width="6.38" height="13.17"/><line class="cls-1" x1="102.58" y1="247.89" x2="102.58" y2="261.06"/><rect class="cls-1" x="99.39" y="247.89" width="6.39" height="13.17"/><line class="cls-1" x1="118.55" y1="247.89" x2="118.55" y2="261.06"/><rect class="cls-1" x="115.35" y="247.89" width="6.39" height="13.17"/><line class="cls-1" x1="134.5" y1="247.89" x2="134.5" y2="261.06"/><rect class="cls-1" x="131.31" y="247.89" width="6.38" height="13.17"/><line class="cls-1" x1="150.46" y1="247.89" x2="150.46" y2="261.06"/><rect class="cls-1" x="147.27" y="247.89" width="6.38" height="13.17"/><line class="cls-1" x1="166.42" y1="247.89" x2="166.42" y2="261.06"/><rect class="cls-1" x="163.23" y="247.89" width="6.38" height="13.17"/><line class="cls-1" x1="182.38" y1="247.89" x2="182.38" y2="261.06"/><rect class="cls-1" x="179.19" y="247.89" width="6.39" height="13.17"/><line class="cls-1" x1="198.35" y1="247.89" x2="198.35" y2="261.06"/><rect class="cls-1" x="195.15" y="247.89" width="6.39" height="13.17"/><line class="cls-1" x1="214.3" y1="247.89" x2="214.3" y2="261.06"/><rect class="cls-1" x="211.11" y="247.89" width="6.38" height="13.17"/><line class="cls-1" x1="230.26" y1="247.89" x2="230.26" y2="261.06"/><rect class="cls-1" x="227.07" y="247.89" width="6.38" height="13.17"/><line class="cls-1" x1="246.22" y1="247.89" x2="246.22" y2="261.06"/><rect class="cls-1" x="243.03" y="247.89" width="6.39" height="13.17"/></g></g></svg>