<svg xmlns="http://www.w3.org/2000/svg" viewBox="0 0 29.24 29.25"><defs><style>.cls-1{fill:#fff;}</style></defs><title>wht</title><g id="Layer_2" data-name="Layer 2"><g id="ELEMENTS"><path class="cls-1" d="M15.28,7.48a6.82,6.82,0,0,0-6.81,6.81,6.71,6.71,0,0,0,1,3.53l.17.29L9,20.65,11.52,20l.28.17A6.81,6.81,0,1,0,15.28,7.48Zm4,9.38A2,2,0,0,1,17.76,18a3.25,3.25,0,0,1-1.68-.27,7.58,7.58,0,0,1-1.44-.68,8.45,8.45,0,0,1-2.31-2.15,8.67,8.67,0,0,1-.53-.81,4.26,4.26,0,0,1-.51-1.18,1.88,1.88,0,0,1-.07-.53A2.12,2.12,0,0,1,12,10.7,1,1,0,0,1,13,10.55a2.3,2.3,0,0,1,.7,1.06,1.72,1.72,0,0,1,.22.94,1.81,1.81,0,0,1-.5.81.33.33,0,0,0,0,.45,5.48,5.48,0,0,0,2.72,2.33.32.32,0,0,0,.39-.08c.2-.25.4-.74.71-.87a1.41,1.41,0,0,1,1.21.27c.32.19.86.43.94.83A.94.94,0,0,1,19.28,16.86Z"/><path class="cls-1" d="M14.62,0A14.63,14.63,0,1,0,29.24,14.62,14.62,14.62,0,0,0,14.62,0Zm.66,22.69a8.34,8.34,0,0,1-4-1L6.72,22.9l1.22-4.55a8.39,8.39,0,1,1,7.34,4.34Z"/></g></g></svg>